<?xml version="1.0" encoding="utf-8"?>
<!-- Generator: Adobe Illustrator 16.0.0, SVG Export Plug-In . SVG Version: 6.00 Build 0)  -->
<!DOCTYPE svg PUBLIC "-//W3C//DTD SVG 1.1//EN" "http://www.w3.org/Graphics/SVG/1.1/DTD/svg11.dtd">
<svg version="1.1" id="Layer_1" xmlns="http://www.w3.org/2000/svg" xmlns:xlink="http://www.w3.org/1999/xlink" x="0px" y="0px"
	 width="960px" height="560px" viewBox="0 0 960 560" enable-background="new 0 0 960 560" xml:space="preserve">
<polygon fill="#D1D1CA" points="751.499,382.73 190.484,382.73 209.953,280.396 190.484,175.48 751.499,175.48 770.739,280.396 "/>
<polyline fill="none" stroke="#FFFFFF" stroke-width="2" stroke-miterlimit="10" points="611.45,176.481 630.69,281.397 
	611.45,383.73 "/>
<path fill="#FFFFFF" stroke="#94B5C4" stroke-width="2" stroke-miterlimit="10" d="M325.715,280.514h-3.979
	c0.389-1.258,0.607-2.584,0.607-3.962c0-7.735-6.602-13.056-14.744-13.056c-0.258,0-0.504,0.023-0.757,0.036
	c-2.604-10.747-11.956-17.751-23.095-17.751c-10.675,0-19.708,6.355-22.734,16.428c-0.729-0.085-1.467-0.14-2.217-0.14
	c-10.649,0-19.281,7.733-19.281,18.444h-4.537c-7.516,0-13.609,5.791-13.609,12.929c0,7.141,6.094,11.979,13.609,11.979h90.736
	c7.513,0,13.609-4.838,13.609-11.979C339.324,286.305,333.228,280.514,325.715,280.514z"/>
<g>
	<path fill="#798494" d="M267.611,279.157c0,1.661-4.463,3.008-9.969,3.008c-5.505,0-9.99-1.347-9.99-3.008
		c0-1.661,4.485-3.007,9.99-3.007C263.148,276.15,267.611,277.497,267.611,279.157"/>
	<path fill="#798494" d="M257.664,282.715c-5.482,0-9.952-1.338-9.984-2.988h-0.004v4.955c-0.008,0.042,0,0.082,0,0.125
		c0,1.662,4.462,3.008,9.969,3.008c5.504,0,9.988-1.346,9.988-3.008v-5.099C267.633,281.368,263.171,282.715,257.664,282.715"/>
	<path fill="#798494" d="M257.664,288.555c-5.482,0-9.952-1.336-9.984-2.988h-0.004v4.957c-0.008,0.041,0,0.082,0,0.125
		c0,1.66,4.462,3.008,9.969,3.008c5.504,0,9.988-1.348,9.988-3.008v-5.102C267.633,287.208,263.171,288.555,257.664,288.555"/>
	<path fill="#798494" d="M257.664,294.396c-5.482,0-9.952-1.336-9.984-2.988h-0.004v4.956c-0.008,0.042,0,0.083,0,0.126
		c0,1.66,4.462,3.006,9.969,3.006c5.504,0,9.988-1.346,9.988-3.006v-5.102C267.633,293.05,263.171,294.396,257.664,294.396"/>
</g>
<g>
	<path fill="none" stroke="#FFFFFF" stroke-width="2" stroke-miterlimit="10" d="M332.82,275.578
		c0-10.695-5.477-18.191-16.171-18.191"/>
	<path fill="none" stroke="#FAFAFA" stroke-width="1.8" stroke-miterlimit="10" d="M345.309,266.531
		c0-9.839-5.13-17.053-14.97-17.053"/>
	<path fill="none" stroke="#F5F5F6" stroke-width="1.6" stroke-miterlimit="10" d="M357.798,257.484
		c0-8.984-4.785-15.916-13.769-15.916"/>
	<path fill="none" stroke="#F0F1F1" stroke-width="1.4" stroke-miterlimit="10" d="M370.287,248.437
		c0-8.128-4.439-14.778-12.568-14.778"/>
	<path fill="none" stroke="#EBECED" stroke-width="1.2" stroke-miterlimit="10" d="M382.775,239.389
		c0-7.272-4.094-13.64-11.367-13.64"/>
	<path fill="none" stroke="#E6E7E8" stroke-miterlimit="10" d="M395.265,230.342c0-6.417-3.749-12.502-10.166-12.502"/>
</g>
<g>
	<g>
		<path fill="#E8BA80" d="M406.792,209.769v-13.264c-7.449,0.745-13.266,7.031-13.266,14.677c0,3.29,1.078,6.328,2.898,8.782
			L406.792,209.769z"/>
		<path fill="#FFFFFF" d="M409.763,208.884h13.086c-1.027-6.574-6.398-11.711-13.086-12.379V208.884z"/>
		<path fill="#E8BA80" d="M408.905,211.854l-10.478,10.307c2.612,2.345,6.063,3.771,9.85,3.771c7.922,0,14.382-6.243,14.734-14.078
			H408.905z"/>
	</g>
	<g>
		<path d="M439.608,215.502h-0.198v6.137c0,0.984-0.798,1.782-1.782,1.782"/>
		<path fill="#FFFFFF" d="M439.41,212.927c0-0.984-0.798-1.781-1.782-1.781h-3.959c-0.984,0-1.783,0.797-1.783,1.781v2.575h7.524
			V212.927z"/>
		<path fill="#94B5C4" d="M439.41,221.639v-6.137h-7.524v6.137c0,0.984,0.799,1.782,1.783,1.782h3.959
			C438.612,223.421,439.41,222.623,439.41,221.639z"/>
	</g>
	<g>
		<path fill="#FFFFFF" d="M449.31,203.226c0-0.984-0.797-1.782-1.781-1.782h-3.96c-0.984,0-1.782,0.798-1.782,1.782v6.732h7.523
			V203.226z"/>
		<path fill="#94B5C4" d="M443.568,223.421h3.96c0.984,0,1.781-0.798,1.781-1.782v-11.681h-7.523v11.681
			C441.786,222.623,442.584,223.421,443.568,223.421z"/>
	</g>
	<g>
		<path fill="#FFFFFF" d="M458.814,193.92c0-0.984-0.799-1.782-1.782-1.782h-3.961c-0.982,0-1.781,0.798-1.781,1.782v10.494h7.524
			V193.92z"/>
		<path fill="#94B5C4" d="M453.071,223.421h3.961c0.983,0,1.782-0.798,1.782-1.782v-17.225h-7.524v17.225
			C451.29,222.623,452.089,223.421,453.071,223.421z"/>
	</g>
	<g>
		<path fill="#E8BA80" d="M470.485,207.548c1.738,0,3.154-1.414,3.154-3.153c0-0.36-0.064-0.706-0.178-1.03l5.15-3.756
			c0.542,0.438,1.23,0.699,1.979,0.699c0.723,0,1.387-0.246,1.921-0.657l5.272,5.212c-0.295,0.479-0.467,1.041-0.467,1.645
			c0,1.739,1.414,3.152,3.152,3.152s3.153-1.413,3.153-3.152c0-0.238-0.028-0.47-0.079-0.691l5.159-3.335
			c0.479,0.295,1.042,0.468,1.646,0.468c1.738,0,3.154-1.416,3.154-3.154s-1.416-3.153-3.154-3.153s-3.152,1.415-3.152,3.153
			c0,0.48,0.109,0.934,0.303,1.342l-4.825,3.118c-0.569-0.556-1.347-0.901-2.204-0.901c-0.488,0-0.947,0.115-1.359,0.313
			l-5.544-5.478c0.113-0.323,0.178-0.669,0.178-1.032c0-1.74-1.415-3.154-3.153-3.154s-3.154,1.414-3.154,3.154
			c0,0.346,0.059,0.676,0.161,0.986l-5.171,3.772c-0.537-0.42-1.21-0.673-1.941-0.673c-1.739,0-3.153,1.415-3.153,3.153
			C467.332,206.134,468.746,207.548,470.485,207.548z M500.349,198.423c0.756,0,1.371,0.615,1.371,1.371s-0.615,1.373-1.371,1.373
			s-1.371-0.617-1.371-1.373S499.593,198.423,500.349,198.423z M491.841,206.507c0,0.756-0.615,1.371-1.371,1.371
			s-1.371-0.615-1.371-1.371c0-0.757,0.615-1.372,1.371-1.372S491.841,205.75,491.841,206.507z M480.591,195.783
			c0.756,0,1.371,0.615,1.371,1.372c0,0.756-0.615,1.371-1.371,1.371s-1.371-0.615-1.371-1.371
			C479.22,196.398,479.835,195.783,480.591,195.783z M470.485,203.023c0.756,0,1.371,0.615,1.371,1.371s-0.615,1.371-1.371,1.371
			s-1.371-0.615-1.371-1.371S469.729,203.023,470.485,203.023z"/>
		<path fill="#E8BA80" d="M500.349,213.081c-1.414,0-2.613,0.936-3.012,2.221l-3.805-0.205c-0.155-1.595-1.504-2.845-3.138-2.845
			c-0.95,0-1.802,0.424-2.38,1.092l-4.455-2.403c0.02-0.145,0.034-0.288,0.034-0.438c0-1.738-1.415-3.153-3.153-3.153
			c-1.65,0-3.006,1.274-3.141,2.89l-4.154,0.766c-0.559-0.881-1.542-1.469-2.66-1.469c-1.739,0-3.153,1.415-3.153,3.154
			s1.414,3.152,3.153,3.152c1.727,0,3.133-1.395,3.152-3.116l4.021-0.741c0.531,0.994,1.579,1.671,2.782,1.671
			c0.949,0,1.801-0.423,2.38-1.091l4.454,2.404c-0.02,0.143-0.033,0.286-0.033,0.436c0,1.738,1.415,3.154,3.153,3.154
			c1.213,0,2.267-0.689,2.794-1.697l4.127,0.224c0.373,1.325,1.59,2.303,3.033,2.303c1.738,0,3.154-1.415,3.154-3.153
			S502.087,213.081,500.349,213.081z M470.485,214.063c-0.756,0-1.371-0.615-1.371-1.372s0.615-1.372,1.371-1.372
			s1.371,0.615,1.371,1.372S471.241,214.063,470.485,214.063z M480.44,211.876c-0.756,0-1.371-0.615-1.371-1.373
			c0-0.756,0.615-1.371,1.371-1.371s1.371,0.615,1.371,1.371C481.812,211.261,481.196,211.876,480.44,211.876z M490.395,216.776
			c-0.756,0-1.371-0.615-1.371-1.371s0.615-1.371,1.371-1.371s1.371,0.615,1.371,1.371S491.15,216.776,490.395,216.776z
			 M500.349,217.606c-0.756,0-1.371-0.615-1.371-1.371c0-0.758,0.615-1.372,1.371-1.372s1.371,0.614,1.371,1.372
			C501.72,216.991,501.104,217.606,500.349,217.606z"/>
	</g>
</g>
<g>
	<g>
		<path fill="#FFFFFF" d="M542.911,213.274c0,1.1-0.698,2.567-1.552,3.261l-23.536,19.123c-0.854,0.694-1.552,0.361-1.552-0.739
			v-25.6c0-1.1,0.698-2.567,1.552-3.261l23.535-19.122c0.854-0.694,1.553-0.361,1.553,0.739V213.274z"/>
		<path fill="none" stroke="#FFFFFF" stroke-width="0.5" stroke-miterlimit="10" d="M542.911,213.274c0,1.1-0.698,2.567-1.552,3.261
			l-23.536,19.123c-0.854,0.694-1.552,0.361-1.552-0.739v-25.6c0-1.1,0.698-2.567,1.552-3.261l23.535-19.122
			c0.854-0.694,1.553-0.361,1.553,0.739V213.274z"/>
	</g>
	<g>
		<g>
			<path fill="#E8BA80" d="M522.963,217.964l0.248-8.426c-1.32,1.477-2.461,6.247-2.604,11.101c-0.063,2.09,0.07,3.872,0.344,5.186
				L522.963,217.964z"/>
			<path fill="#94B5C4" d="M523.5,217l2.295-1.757c-0.055-4.037-0.9-6.577-2.063-6.103L523.5,217z"/>
			<path fill="#E8BA80" d="M523.294,219.002l-2.033,7.948c0.413,1.14,0.993,1.58,1.657,1.074c1.391-1.061,2.641-5.896,2.853-10.916
				L523.294,219.002z"/>
		</g>
		<g>
			<path d="M528.612,217.194l-0.032,0.025l-0.117,3.896c-0.018,0.623-0.174,1.24-0.346,1.371"/>
			<path fill="#FFFFFF" d="M528.628,215.583c0.019-0.625-0.108-1.02-0.279-0.889l-0.696,0.53c-0.172,0.132-0.327,0.743-0.345,1.369
				l-0.05,1.638l1.322-1.012L528.628,215.583z"/>
			<path fill="#94B5C4" d="M528.463,221.116l0.117-3.896l-1.322,1.012l-0.115,3.896c-0.018,0.621,0.106,1.022,0.28,0.891
				l0.694-0.531C528.289,222.356,528.445,221.739,528.463,221.116z"/>
		</g>
		<g>
			<path fill="#FFFFFF" d="M530.549,208.099c0.018-0.627-0.107-1.027-0.281-0.895l-0.693,0.533
				c-0.173,0.131-0.328,0.746-0.349,1.369l-0.125,4.273l1.319-1.008L530.549,208.099z"/>
			<path fill="#94B5C4" d="M529.158,221.69l0.697-0.532c0.172-0.133,0.326-0.747,0.345-1.37l0.22-7.416l-1.319,1.008l-0.22,7.418
				C528.861,221.421,528.987,221.821,529.158,221.69z"/>
		</g>
		<g>
			<path fill="#FFFFFF" d="M532.391,200.914c0.019-0.627-0.108-1.024-0.279-0.894l-0.695,0.531
				c-0.172,0.133-0.328,0.748-0.346,1.372l-0.197,6.661l1.321-1.01L532.391,200.914z"/>
			<path fill="#94B5C4" d="M530.828,220.411l0.693-0.53c0.174-0.133,0.33-0.748,0.348-1.372l0.325-10.934l-1.321,1.01l-0.324,10.936
				C530.529,220.146,530.654,220.544,530.828,220.411z"/>
		</g>
		<g>
			<path fill="#E8BA80" d="M534.182,207.997c0.307-0.234,0.579-1.32,0.613-2.426c0.008-0.228,0.003-0.438-0.012-0.63l0.975-3.078
				c0.087,0.21,0.203,0.28,0.334,0.181c0.127-0.098,0.248-0.342,0.349-0.676l0.828,2.6c-0.06,0.344-0.101,0.726-0.113,1.109
				c-0.03,1.104,0.188,1.813,0.495,1.579c0.305-0.235,0.58-1.323,0.612-2.425c0.006-0.154,0.005-0.299,0.001-0.43l0.966-2.809
				c0.077,0.119,0.175,0.154,0.282,0.072c0.305-0.232,0.578-1.322,0.61-2.425c0.035-1.104-0.188-1.813-0.492-1.579
				c-0.306,0.232-0.581,1.323-0.613,2.427c-0.01,0.308,0.002,0.577,0.027,0.808l-0.905,2.631c-0.091-0.275-0.22-0.394-0.371-0.277
				c-0.084,0.066-0.167,0.2-0.243,0.379l-0.868-2.73c0.025-0.221,0.043-0.45,0.05-0.679c0.03-1.104-0.19-1.812-0.495-1.583
				c-0.305,0.236-0.58,1.326-0.614,2.431c-0.005,0.218,0,0.42,0.01,0.603l-0.978,3.089c-0.085-0.192-0.199-0.263-0.328-0.165
				c-0.304,0.232-0.58,1.32-0.612,2.425C533.654,207.526,533.877,208.229,534.182,207.997z M539.596,198.192
				c0.133-0.1,0.229,0.209,0.215,0.688c-0.014,0.479-0.134,0.954-0.267,1.052c-0.133,0.103-0.229-0.202-0.214-0.685
				C539.344,198.769,539.463,198.296,539.596,198.192z M537.949,204.468c-0.014,0.482-0.133,0.951-0.266,1.055
				c-0.133,0.102-0.229-0.207-0.215-0.686c0.016-0.48,0.134-0.952,0.268-1.056C537.867,203.679,537.965,203.987,537.949,204.468z
				 M536.178,199.171c0.133-0.102,0.229,0.207,0.215,0.689c-0.015,0.478-0.133,0.947-0.267,1.049
				c-0.134,0.105-0.229-0.203-0.214-0.684C535.926,199.745,536.045,199.271,536.178,199.171z M534.268,205.125
				c0.134-0.099,0.229,0.203,0.213,0.685c-0.012,0.478-0.131,0.953-0.266,1.054c-0.131,0.103-0.229-0.204-0.213-0.687
				C534.016,205.698,534.135,205.229,534.268,205.125z"/>
			<path fill="#E8BA80" d="M539.318,207.503c-0.247,0.186-0.475,0.938-0.57,1.813l-0.663,0.377c0.003-0.989-0.211-1.604-0.495-1.384
				c-0.168,0.129-0.326,0.513-0.439,1.013l-0.736-0.927c0.006-0.093,0.012-0.187,0.014-0.28c0.033-1.107-0.188-1.814-0.494-1.58
				c-0.289,0.223-0.553,1.211-0.606,2.255l-0.743,1.045c-0.082-0.482-0.242-0.724-0.439-0.575c-0.306,0.233-0.579,1.323-0.612,2.428
				c-0.032,1.102,0.19,1.811,0.493,1.578c0.305-0.232,0.576-1.307,0.612-2.402l0.72-1.012c0.075,0.559,0.247,0.85,0.457,0.688
				c0.168-0.127,0.324-0.511,0.438-1.012l0.738,0.928c-0.008,0.093-0.011,0.186-0.016,0.283c-0.032,1.104,0.189,1.811,0.495,1.576
				c0.213-0.162,0.411-0.744,0.522-1.451l0.719-0.412c0.043,0.79,0.236,1.248,0.49,1.051c0.306-0.231,0.58-1.321,0.613-2.424
				C539.848,207.976,539.625,207.267,539.318,207.503z M534.059,212.132c-0.132,0.103-0.228-0.205-0.213-0.688
				c0.014-0.478,0.133-0.949,0.265-1.052c0.136-0.102,0.229,0.205,0.216,0.688C534.313,211.558,534.193,212.03,534.059,212.132z
				 M535.848,209.409c-0.133,0.101-0.229-0.209-0.214-0.688c0.015-0.481,0.134-0.952,0.267-1.055s0.229,0.208,0.216,0.687
				C536.101,208.835,535.982,209.309,535.848,209.409z M537.503,211.183c-0.134,0.102-0.229-0.209-0.216-0.687
				c0.015-0.479,0.133-0.952,0.269-1.057c0.133-0.101,0.228,0.208,0.214,0.688C537.756,210.606,537.637,211.082,537.503,211.183z
				 M539.236,210.37c-0.135,0.105-0.23-0.205-0.217-0.686c0.014-0.479,0.135-0.951,0.268-1.054c0.131-0.101,0.229,0.206,0.215,0.688
				C539.486,209.798,539.365,210.269,539.236,210.37z"/>
		</g>
	</g>
</g>
<g>
	<path fill="#DDE8EE" d="M603.612,252.633c0,0,0,0,0.637,0.612c0.638,0.608,0.099,1.505,0.099,1.505s0,0,2.645-0.795
		c1.378-0.415,2.589-1.053,3.434-1.568c0.282-0.053,0.586-0.109,0.893-0.166c-0.348,0.258-0.647,0.488-0.804,0.643
		c-0.476,0.467-0.114,0.399-0.114,0.399l0.169-0.01l1.202-0.056c-4.192,3.459-11.028,9.057-12.231,9.95
		c-1.709,1.269-1.709,1.269-1.709,1.269l2.502,0.054c-1.168,1.005-2.131,1.851-2.592,2.319c-1.473,1.506-2.344,2.77-2.344,2.77
		c0.918,0.564,3.22,2.674,2.343,3.607c-0.521,0.555-12.616,11.965-11.674,11.84c0.941-0.126,1.513,2.672,2.133,1.618
		c3.678-6.252,21.32-15.757,21.257-15.961c1.515-0.116,2.369-0.657,2.369-0.657c0.166-0.184,0.475-0.54,0.861-0.992
		c0.143-0.012,0.248-0.018,0.313-0.021c1.189-0.035,2.738-0.179,2.967-0.381c0.197-0.176,3.266-3.803,4.322-4.871
		c0.865-0.877,3.363-3.572,4.833-5.082c0.868,0.16,1.769,0.236,2.614,0.144c0,0,2.269-0.706,3.797-1.874
		c0.598-0.395,1.215-0.851,1.756-1.334c1.226-1.09,1.611-1.816,2.488-2.503s4.614-3.253,5.085-3.863
		c0.472-0.611-1.147-1.177-1.147-1.177l-0.006,0.004c0.344-0.726,0.338-0.631-0.581-1.32c-0.313-0.234-0.617-0.565-0.888-0.904
		c0.817-0.907,3.41-2.563,3.924-3.395c0.488-0.79-0.432-1.625-1.035-2.06c0.336-0.253,0.676-0.579,0.949-1.052
		c0.461-0.793,0.057-1.006-0.331-1.363c-0.387-0.355-1.674-0.93-3.144-1.086c-1.471-0.154-3.982,0.361-5.074,0.634
		s-3.241,1.614-3.538,1.878c-0.297,0.266-0.668,0.596-0.668,0.596l-0.26,0.23l-1.052,0.854l-0.126,0.303c0,0-0.44,0.18-0.815,0.451
		c-0.316,0.229-0.219,0.292-0.447,0.623c-0.311,0.002-0.599,0.02-0.784,0.07c-0.616,0.166-1.371,0.393-2.356,1.143
		c-0.984,0.751-4.031,2.957-4.637,3.305s-1.313,0.724-2.1,1.49c-0.293,0.283-0.506,0.55-0.693,0.805l-2.93,0.957
		c0,0,0.029,0.006,0.068,0.02c-0.939,0.252-1.728,0.457-2.027,0.533l-0.722-1.097l-1.962,1.211l0.165-0.311
		c0,0-0.044-0.183-0.349-0.263c-0.305-0.078-0.719,0.194-0.914,0.305c-0.195,0.111-0.292,0.355-0.292,0.355l-0.454-0.072
		c0,0-0.285,0.03-0.621,0.074c-0.337,0.045-0.225,0.487-0.225,0.487s-0.359,0.099-0.648,0.163c-0.289,0.068-0.329,0.389-0.329,0.389
		s0,0-0.173,0.059c-0.172,0.059-0.479,0.269-0.479,0.269s0.003,0.042,0.021,0.105L603.612,252.633z M636.931,242.947l-0.066,0.277
		c-0.012-0.086-0.025-0.17-0.039-0.245c0.004-0.002,0.007-0.003,0.012-0.005C636.868,242.967,636.899,242.956,636.931,242.947z
		 M637.571,244.129c0.289-0.358,0.119-0.475-0.018-0.711c-0.189-0.328-0.39-0.459-0.506-0.509c1.271-0.416,2.119-0.927,2.675-1.374
		c-0.147,0.313-0.286,0.67-0.392,1.065C639.244,242.922,638.413,243.555,637.571,244.129z M607.155,251.43l-0.347,0.118l0.456-0.386
		C607.265,251.162,607.216,251.291,607.155,251.43z"/>
	<g>
		<path fill="#1A1918" d="M591.89,278.512c0,0,0.619,0.536,1.049,1.259c0.432,0.723,0.281,2.043-0.303,2.225
			c-0.879,0.273-1.189,0.41-2.438,0.117c-0.888-0.209-1.238-0.111-2.103-0.276c-0.865-0.165-1.637-0.157-2.748-0.136
			c-1.109,0.021-1.169,0.555-2.426,0.625c-1.255,0.07-3.766-0.32-3.766-0.32s-0.808-0.551-1.075-0.994
			c-0.131-0.215-0.214-0.516-0.118-0.77c0.248-0.65,0.756-0.588,1.58-0.818c0.826-0.23,2.453-0.592,3.534-1.07
			c0.829-0.369-0.227,1.74,0.817,2.002c2.709,0.684,5.117-0.107,6.496-0.459C592.136,279.452,592.22,279.343,591.89,278.512z"/>
		<path fill="#1A1918" d="M582.073,289.265l-1.152-1.613c0,0-0.941-0.77-1.114-0.883c-0.173-0.116-2.228,1.189-2.804,1.65
			c-0.414,0.332-1.572,1.482-1.859,1.654c-0.289,0.174-0.576,0.809,0.172,1.555c0.749,0.75,5.029-0.061,6.008-0.176
			c0.979-0.115,1.656-0.689,2.362-1.152c0.754-0.493,1.872-1.383,2.88-1.957c0.98-0.559,1.787-1.283,1.787-1.283
			s0.416-0.402,0.416-0.92c0-0.52-0.101-1.484-0.101-1.484s-0.144,1.383-1.411,2.248
			C586.341,287.526,583.052,289.437,582.073,289.265z"/>
		<path fill="#3B4142" d="M590.68,196.771c0,0,2.449-0.35,4.023,1.05s2.035,1.903,2.102,5.426c0.064,3.343,0.926,4.109,0.393,4.287
			c-0.787,0.263-3.412,0.656-3.412,0.656s-0.83-0.569-1.18-2.318c-0.352-1.751,0.086-3.566,0.26-4.966
			c0.258-2.058-1.252-2.456-2.1-2.625C589.893,198.105,590.68,196.771,590.68,196.771z"/>
		<path fill="#FFFFFF" d="M578.069,205.942c0,0,13.764-9.707,22.514,4.168c0,0,1.5,0.625,0.625,2.75s-7.875,0.75-7.875,0.75
			S574.819,209.692,578.069,205.942z"/>
		<path fill="#D3AA76" d="M592.884,259.589c0,0,1.584,5.473,0.576,8.354c-0.435,1.238-1.098,4.588-1.873,6.768
			c-0.768,2.159,0.808,4.435,0.808,4.795c0,0.359-0.851,1.541-2.722,1.613c-1.872,0.072-4.022-0.072-5.398-0.091
			c-3.547-0.052-2.597-1.491,0.14-3.507c7.188-5.297,2.968-16.736,2.839-15.959L592.884,259.589z"/>
		<path fill="#E8BA80" d="M582.116,290.05c0,0-3.889-2.281-2.736-3.072c1.152-0.793,4.847-3.576,5.199-5.212
			c0.529-2.448,0.816-17.231,0.287-21.997c-0.486-4.37,5.794-0.871,5.794-0.871l1.441,0.439c0,0,0,1.547,0.216,2.053
			c0.216,0.503,1.422,3.379-0.874,11.447c-0.604,2.124-2.896,5.357-2.823,10.684c0.027,2.018-0.072,2.018-0.072,2.018
			s-0.072,0.936-0.576,1.223c-0.504,0.289-0.215,0.434-1.367,1.08C585.452,288.489,582.116,290.05,582.116,290.05z"/>
		<path fill="#7498AB" d="M595.845,259.281c0,0-11.855,5.017-17.041,1.775c0,0-0.551-2.663-0.768-5.903
			c-0.216-3.24,0.432-14.977-0.096-19.633c-0.425-3.749,7.173,1.975,9.766,1.975c2.592,0,6.479,9.072,6.479,9.072
			S595.652,257.36,595.845,259.281z"/>
		<path fill="#FFFFFF" d="M577.208,206.485c0,0,3.875-4.875,11.5-2.75s-2.875,5.875-2.875,5.875l-6.75,0.375L577.208,206.485z"/>
		<path fill="#7498AB" d="M577.988,223.231c-0.216-5.399-1.3-9.498,0.644-11.875c0.852-1.041,1.658-1.512,2.295-1.713
			c0.019-0.071,0.039-0.142,0.061-0.211c0.361-1.08,0.721-3.885,0.721-3.885s3.515-2.254,3.875-1.75
			c0.36,0.505,4.91-2.718,4.91-2.718s0.359,0.024,1.223,0.984c0.55,0.61,0.912,0.769,0.864,2.496
			c1.317,0.123,0.958,4.419,0.958,4.419l-9.938,29.811c0,0-3.888-0.648-6.265-3.023
			C577.336,235.767,578.204,228.634,577.988,223.231z"/>
		<path fill="#FFFFFF" d="M581.458,205.36c0,0-0.567-0.932-1-0.5c-0.432,0.431-3.106,0.595-3.25,2.25
			c-0.297,3.425-0.589,6.025-0.324,5.059c0.216-0.793-0.504,1.655-0.432,3.311c0.072,1.658,0.576,2.953,0.576,4.321
			s-1.008,24.983-1.297,27.793c-0.287,2.808-0.287,2.808-0.287,2.808l2.668-0.307c0,0,0.068-10.71,0.068-12.222
			s0.096-11.063,0.24-13.585c0.144-2.52-0.352-4.561-0.137-6.145c0.217-1.584,4.936-11.664,4.864-12.311
			C583.076,205.185,581.458,205.36,581.458,205.36z"/>
		<path fill="#FFFFFF" d="M592.483,203.983c0,0,2.761,3.146,4.561,4.441c1.801,1.296,1.584,1.008,2.16,2.808
			s-0.72,5.399-1.008,7.488s-1.955,11.817-1.883,14.05s0.828,10.331,0.972,12.635c0.144,2.305,1.151,10.035,1.151,10.42
			c0,0.442-1.398,0.98-2.555,1.244c-0.604,0.138-4.506,1.955-9.905,2.1c-3.024,0.08-4.423-0.094-4.458-0.48
			c-0.109-1.188-0.098-2.383,0.189-5.408c0.289-3.023,0.032-32.4,0.896-34.707c0.864-2.303,2.266-6.584,4.359-8.205
			C593.013,205.688,592.483,203.983,592.483,203.983z"/>
		<path fill="#E8BA80" d="M598.823,234.022c0,0-1.793,7.102-1.634,7.557c0.159,0.457,0.157,0.303-0.037,1.018
			c-0.194,0.717-0.091,0.868-0.036,1.225c0.056,0.355,0.207,0.682,0.269,0.964c0.271,1.268-0.183,1.682-0.194,2.622
			c-0.007,0.369-0.631,0.494-0.631,0.494s0.104,0.303-0.041,0.764c-0.146,0.46-0.302,0.309-0.504,0.414
			c-0.202,0.104-0.605,0.416-0.866-0.04c-0.261-0.454-0.417-0.707-0.417-0.707l0.477,1.471c0,0,0.383,0.825-0.063,0.942
			c-0.405,0.107-0.777-1.268-1.245-1.922c-0.466-0.657-0.555-5.259-0.203-5.621c0.352-0.359,0.435-1.277,0.535-1.991
			c0.256-1.812-0.036-6.669-0.036-6.669S596.561,232.32,598.823,234.022z"/>
		<path fill="#FFFFFF" d="M599.122,210.956c0,0,2.268,0.863,2.483,2.16c0.216,1.295-0.648,7.019-0.756,8.53
			c-0.108,1.512,0.323,3.023,0.323,5.399c0,2.377-0.539,4.535-0.972,5.508c-0.432,0.973-1.776,2.355-3.829,1.6
			c-2.052-0.756-2.975-2.139-3.945-3.111c-0.973-0.973,2.482-2.051,2.807-4.86c0.324-2.806,0.756-7.665,0.756-7.665L599.122,210.956
			z"/>
		<path fill="#FFFFFF" d="M596.685,226.353l-3.816-2.232l-2.951,5.545l0.143,2.447c0,0,6.337,3.456,9.145,2.232
			c0,0,1.872-2.232,1.729-5.328C600.788,225.921,596.685,226.353,596.685,226.353z"/>
		<polyline fill="#7498AB" points="591.284,205.761 588.116,210.657 587.108,209.218 		"/>
		<g>
			<path fill="#E8BA80" d="M584.861,202.59c0.393,0.394,0.787,0.262,0.656,1.313c-0.133,1.05-1.391,4.258-1.391,4.258
				s6.136-2.104,6.771-5.046l0.307-8.531C591.205,194.583,584.467,202.195,584.861,202.59z"/>
		</g>
		<g>
			<path fill="#1A1918" d="M593.827,193.314c0,0,1.08,3.24-1.008,5.689c-2.088,2.447-0.072-4.609-0.072-4.609L593.827,193.314z"/>
			<path fill="#E8BA80" d="M581.923,193.818l-0.144,2.809c0,0-0.124,1.051-0.096,1.656c0.033,0.697,0.12,0.625,0.265,1.367
				c0.146,0.762,0.359,1.129,0.504,1.561c0.143,0.432,0.635,2.864,0.894,3.056c0.552,0.408,0.912,0.48,1.921,0.119
				c1.007-0.359,2.513-0.991,3.137-1.278c0.603-0.279,1.561-0.816,2.064-1.967c0.504-1.154,0.768-1.418,0.768-1.418h0.359
				c0,0,0.289,0.648,0.865-0.504c0.575-1.152,1.655-2.521,0.504-3.24c-1.152-0.721-3.672-2.881-3.672-2.881l-3.744-1.654
				L581.923,193.818z"/>
			<path fill="#1A1918" d="M593.468,196.051c0,0-1.608-0.24-1.896,0.336s-0.912,1.512-0.912,1.512s-0.072-0.768-0.359-1.127
				c-0.288-0.359-0.773-0.102-1.225-0.648c-0.336-0.408-0.312-0.145-0.527-1.297c-0.174-0.922-0.912-0.791-0.912-0.791l-1.801,0.576
				c0,0-1.008,0.359-2.16,0.504c-1.151,0.143-1.799-0.313-1.799-0.313v-0.553c0,0,0-0.721,0-1.295c0-0.576,0.647-3.6,1.439-4.32
				s2.543-1.754,4.201-1.749c2.226,0.007,3.791,0.669,4.582,1.317c0.793,0.648,1.441,1.008,1.873,2.664s0.215,2.52,0.072,3.24
				C593.899,194.826,593.468,196.051,593.468,196.051z"/>
		</g>
		<path fill="#E8BA80" d="M565.052,215.795c0,0-4.799,0.811-6.629,0.748c-0.719-0.022-1.641-0.007-2.036-0.316
			c-0.087-0.068-0.303-0.146-0.588-0.222l-0.997-0.633c0,0-1.369-0.188-1.702-0.188c-0.168,0-0.293,0.212-0.408,0.464
			c-0.218,0.015-0.407,0.042-0.543,0.09c-0.886,0.312-2.278,0.579-2.882,1.112c-0.602,0.535-1.482,0.775-1.333,1.167
			c0.163,0.431,1.75-0.333,1.75-0.333l0.833-0.25c0,0,0.236-0.085,0.393,0.05c-0.438,0.203-2.125,0.994-2.56,1.283
			c-0.5,0.333-0.416,0.583-0.166,0.833c0.229,0.229,1.858-0.586,2.702-0.787c-0.042,0.466,0.213,0.92,0.381,0.954
			c0.473,0.096,0.267,0.502,1.267,0.506c1.08,0.004,1.559,0.052,2.979-0.226c0.283-0.056,0.277-0.263,0.624-0.355
			c0.35-0.094,0.49-0.212,1.222-0.096c0.731,0.117,0.579,0.135,1.017-0.071c0.436-0.207,7.688,0.817,7.688,0.817
			C567.513,217.91,565.052,215.795,565.052,215.795z"/>
		<path fill="#FFFFFF" d="M563.721,215.215c0,0,3.675,2.666,2.462,4.052v3l4.983-0.818l6.118-3.305l2.54-9.336
			c0,0-1.077-3.952-2.616-2.322s-7.946,6.825-7.946,6.825L563.721,215.215z"/>
	</g>
</g>
<path fill="#DDE8EE" d="M617.62,291.804l0.279-1.013c0,0,0.205-4.179,0.137-4.583c-0.07-0.402-0.396-0.989-0.609-1.166
	c-0.211-0.178-0.133-0.86-0.555-1.027c-0.422-0.171-1.227-0.637-1.848-0.902c-0.619-0.266-1.096-0.57-1.096-0.57l1.947,0.243
	c0,0,0.18-0.355-0.039-0.667c-0.221-0.31-0.33-0.956-0.293-1.085c0.039-0.131,0.117-0.018-0.408-0.088
	c-0.525-0.072-1.313,0.101-1.471,0.059c-0.051-0.015-0.197-0.001-0.404,0.017c0.305-0.277,0.771-0.688,1.154-1.02
	c0.111-0.034,0.244-0.073,0.402-0.118c0.938-0.266,1.035-0.311,1.834-0.588c0.012-0.005,0.023-0.006,0.033-0.012
	c0.1,0.063,0.182,0.125,0.232,0.141c0.111,0.036,0.217,0.125,0.818-0.063c0.604-0.188,1.532-0.585,1.716-0.755
	c0.166-0.156,0.768-0.563,0.494-0.744c0.342-0.212,0.684-0.435,0.99-0.642c0.73-0.496,1.33-1.057,1.557-1.408
	c0.227-0.353,0.201-0.938,0.252-1.173c0.051-0.236-0.553-0.844-0.553-0.844l-0.254-0.421l-0.889-0.339l-0.941-0.109l-0.545-0.1
	l-0.934,0.028c0,0-0.872,0.108-1.448,0.273c-0.578,0.164-1.15,0.089-2.088,0.167c-0.939,0.079-2.373,0.62-2.988,0.913
	c-0.613,0.292-1.443,0.832-1.973,1.188c-0.201,0.133-0.436,0.299-0.656,0.473c-0.254,0.026-0.592,0.09-0.795,0.226
	c-0.354,0.235-1.051,0.838-1.082,0.917c-0.033,0.077-0.076,0.258,0.164,0.174c0.244-0.087,0.447-0.043,0.447-0.043l0.125,0.052
	c-0.178,0.217-0.35,0.411-0.387,0.618c-0.031,0.167-0.189,0.279-0.361,0.369c-0.641-0.008-1.344-0.007-1.732,0.035
	c-0.846,0.089-1.225,0.16-1.572,0.343c-0.348,0.184-0.715,0.337-1.021,0.391c-0.309,0.053-0.979,0.022-2.338-0.065
	c-1.361-0.09-3.389-0.449-6.316,0.55c-2.926,0.998-5.342,1.986-6.094,2.268c-0.754,0.28-0.713,0.337-1.754,0.699
	c-1.041,0.364-1.363,0.333-1.879,0.771c-0.516,0.433-0.572,0.534-1.049,1.025c-0.475,0.491-0.494,0.463-0.854,0.749
	c-0.357,0.287-0.002,0.426-0.086,0.737c-0.01,0.039-0.025,0.083-0.045,0.128c-0.211,0.09-0.434,0.195-0.633,0.317
	c-0.602,0.374-0.732,0.308-1.098,0.65c-0.365,0.341-0.918,0.903-0.918,0.903s-0.396,0.419-0.08,0.682
	c0.318,0.269,1.033,0.115,1.422,0.177c0.387,0.06,0.643,0.056,1.486,0.206c0.766,0.137,2.604,0.322,4.225,0.345
	c-0.178,0.178-0.344,0.345-0.434,0.431c-0.182,0.17-0.525,0.725-0.916,1.089s-0.9,0.745-1.082,1.103
	c-0.18,0.357-0.596,0.745-0.635,0.877c-0.037,0.129-1.109,0.753-1.5,1.12c-0.393,0.364-0.643,0.925-0.721,0.999
	s-1.346,1.584-1.346,1.584s0.186,0.569,0.945,1.28c-1.686,1.333-9.466,5.196-10.3,6.081s-6.421,2.64-6.534,3.169
	c-0.113,0.526-1.733,5.089-1.833,5.5c-0.1,0.408,1.258,1.584,2.617,1.581c1.359-0.005,6.005-2.798,7.05-3.248
	c1.045-0.447,8.25-4.746,9.732-5.814s2.213-1.962,3.553-2.686c0.58-0.312,1.482,0.304,1.188,0.581
	c-0.588,0.547-6.783,6.649-7.693,7.289c-0.91,0.639-1.703,1.168-2.275,1.596c-0.572,0.43-4.95,3.273-6.554,4.032
	c-1.605,0.761-8.392,5.066-8.919,5.561c-0.527,0.491-1.881,7.844-0.779,7.598s16.367-10.554,17.078-11.039
	c1.248-0.849,3.959-3.232,5.311-4.073c1.352-0.842,5.594-4.064,7.182-5.122c1.586-1.061,4.754-3.597,6.887-4.85
	c1.768-1.036,7.127-4.519,7.859-5.938c0.566-0.148,1.254-0.305,1.457-0.425c0.238-0.139,0.699-0.281,1.043-0.555
	c0.406,0.127,0.789,0.176,0.932,0.165c0.164-0.01,0.818-0.25,1.16-0.377c0.34-0.132,0.916-0.296,1.438-0.597
	c0.523-0.299,0.883-0.588,1.025-0.813c0.143-0.229,0.41-0.336,0.775-0.677c0.365-0.344,0.236-0.646,0.209-0.806
	c-0.025-0.143-0.09-0.391-0.105-0.447c0.914-0.207,2.789-0.651,2.789-0.651L617.62,291.804z M609.435,293.865
	c0.258-0.022,0.512-0.051,0.758-0.081c-1.869,0.29-2.973-0.055-2.973-0.055S608.05,293.987,609.435,293.865z"/>
<path fill="#FDD9BA" d="M580.726,259.326c0,0,0.937,1.871,1.086,3.808c0.051,0.67-0.049,1.775-0.049,1.775s-0.048,0.816-0.623,1.248
	c-0.576,0.434-1.104,0.048-1.536,0.098c-0.433,0.047-0.691-0.096-1.632,0.144c-1.637,0.416-3.217,0.192-4.849-0.097
	c-1.632-0.288-2.017-1.776-2.017-1.776l1.585-3.456L580.726,259.326z"/>
<path fill="#1A1918" d="M566.95,311.767c0,0,0.191,1.392,0.048,1.871c-0.144,0.48-1.104,1.824-2.304,1.344
	c-1.2-0.48-1.584-0.334-1.873-1.488c-0.287-1.151-0.575-2.592-0.911-3.359c-0.337-0.768-1.536-1.633-1.729-2.4
	c-0.191-0.768-0.479-1.486-0.384-2.496c0.097-1.008,0.289-2.256,0.336-2.641c0.048-0.383-0.047-1.392,1.152-1.198
	c1.2,0.191,2.4,0.432,3.12,1.823c0.72,1.393,2.544,8.353,2.544,8.353"/>
<path fill="#94B5C4" d="M568.89,280.709c0,0,0.865,8.747,0.756,9.827c-0.107,1.08,0.433,1.836,0.433,2.592s0.216,3.455,0.108,5.184
	c-0.108,1.729,0.432,2.809,0,3.779c-0.432,0.973-0.541,2.27-0.864,3.025s0.108,2.375-0.108,3.347
	c-0.215,0.972-0.756,1.08-1.08,2.161c-0.324,1.078-0.647,1.727-0.647,2.268c0,0.54-0.757,1.727-2.052,1.512
	c-1.296-0.217-2.16-0.432-2.701-1.404c-0.539-0.971-1.295-3.456-1.619-4.32c-0.323-0.863-0.539-2.159-0.432-2.916
	c0.108-0.755,0.973-2.051,1.188-4.211c0.217-2.16,0.648-3.779,0.324-5.939s-0.107-3.887-0.647-5.4
	c-0.54-1.512-1.188-4.968-1.188-4.968L568.89,280.709z"/>
<path fill="#1A1918" d="M561.875,327.497c0,0,0.216,1.078,0.216,1.201s-0.154,0.861-0.492,1.047c0,0-1.663,0.986-2.648,0.339
	c-0.984-0.647-1.602-1.294-1.816-1.509c-0.216-0.215-1.232-1.478-1.725-1.848c-0.492-0.369-0.369-0.4-1.17-1.016
	s-1.631-1.077-2.217-2.063c-0.584-0.986-1.016-2.279-1.016-3.049s0.308-2.37,1.262-2.679c0,0,0.646-0.246,1.386,0.246
	C554.394,318.661,561.875,327.497,561.875,327.497z"/>
<path fill="#908077" d="M554.854,323.064c0,0,0.186,1.57,0.37,2.063s0.4,1.108,0.585,1.386c0.186,0.277,0.092,0.184,0.092,0.184
	l-0.738-0.553c0,0-1.108-2.986-0.862-4.188L554.854,323.064z"/>
<path fill="#908077" d="M554.116,321.833c0,0-0.154,1.076-0.092,1.724c0.061,0.646,0.338,1.724,0.522,2.095l-0.585-0.432
	c0,0-0.77-1.726-0.246-3.727L554.116,321.833z"/>
<path fill="#908077" d="M553.162,321.771l-0.462-0.061c0,0-0.523,1.292,0.031,2.432c0,0,0.338,0.37,0.461,0.431
	c0.123,0.063,0.123,0.063,0.123,0.063S552.546,324.203,553.162,321.771z"/>
<path fill="#94B5C4" d="M561.438,285.137c0,0-1.62,4.859-1.62,5.94c0,1.078-0.647,2.268-0.756,3.455s-0.108,2.484-0.216,3.564
	c-0.107,1.079-0.107,2.159-0.107,3.023c0,0.863,0.756,3.023,0.971,4.319c0.217,1.296,0.433,2.375,0.541,3.239
	c0.107,0.864,0.539,1.512,0.432,2.916s-0.432,3.779,0.324,5.4c0.756,1.619,2.16,3.672,2.16,4.643c0,0.973-0.54,2.809-0.756,3.349
	c-0.217,0.54,0.432,2.052-0.108,2.808s-2.16,1.404-3.456,0.865c-1.296-0.541-2.484-1.837-2.916-2.81
	c-0.432-0.972-0.756-1.403-1.188-2.483c-0.433-1.08-1.951-1.75-1.797-4.213c0.048-0.762,0.501-1.942,0.176-3.67
	c-0.323-1.729-0.432-2.27-0.863-3.996c-0.432-1.729-0.216-2.16-0.756-3.348c-0.539-1.188-0.756-1.08-0.863-3.023
	c-0.108-1.944,0.432-1.837,0-3.996c-0.433-2.16-0.865-7.236-1.621-9.828s-2.867-12.404-0.647-12.959
	c0.433-0.107,11.987,6.911,11.987,6.911"/>
<g>
	<path fill="#FDD9BA" d="M567.335,245.646c0,0-0.961-1.127-1.896-1.127c-0.937,0-2.713-0.744-3.072-0.744s-6.12,4.822-6.12,4.822
		s2.736,2.737,3.024,2.81c0.287,0.071,5.688,0.144,6.408-1.655C566.398,247.95,567.335,245.646,567.335,245.646z"/>
	<path fill="#798494" d="M551.587,236.405c0,0-0.756,0.937-0.756,1.08c0,0.145,0.145,3.133,1.008,3.133l0.036-1.188l0.108-1.656
		L551.587,236.405z"/>
	<path fill="#FDD9BA" d="M553.771,233.55c0,0-1.391,0.719-1.535,1.199s-0.648,1.201-0.648,1.873s-0.048,0.924-0.143,1.26
		c-0.098,0.336-0.121,0.611-0.025,0.9c0.096,0.287,0.289,0.672,0.289,0.959c0,0.289,0.096,0.529,0.239,0.96
		c0.144,0.433,0.72,1.776,0.72,2.017s0.385,1.068,0.721,1.213c0.336,0.144,0.516,0.404,0.816,0.564
		c0.461,0.246,1.415,0.839,1.727,2.11c0.153,0.622,0.576,1.969,0.576,1.969s2.545-0.288,4.08-0.912
		c1.536-0.624,2.641-1.344,3.359-1.825l0.865-0.479c0,0-0.432-0.72-0.624-2.64S553.771,233.55,553.771,233.55z"/>
	<path fill="#D69872" d="M553.1,231.438c0,0-0.816,0.769-0.864,1.345c-0.049,0.576-0.096,0.959,0.287,1.486
		c0.385,0.529,0.769,0.961,1.105,1.201c0.335,0.239,1.391,0.287,1.104,0.912c-0.289,0.625-1.344,1.141-1.632,2.111
		c-0.165,0.557-0.204,0.674,0.036,1.585s0.588,1.728,1.02,1.871s0.516,0.661,0.564,0.901c0.047,0.239,0.455-0.505,0.791-0.217
		s0.828,0.469,1.236,1.188c0.212,0.374,0.396,1.415,0.492,1.655s1.428,0.937,1.957,0.984c0.527,0.047,1.727,0,2.591-0.24
		s1.345-0.287,1.729-0.769c0.384-0.479,0.768-1.008,0.768-1.008s0.097-0.192,0.239-1.343c0.145-1.153,1.009-5.184,0.097-7.297
		c-0.656-1.52-1.968-3.791-3.504-4.127c-1.536-0.337-2.544-0.674-3.696-0.625c-1.152,0.048-1.775,0-2.447,0.145
		c-0.672,0.144-1.681,0.047-1.681,0.047"/>
	<polyline fill="#798494" points="551.3,238.745 555.007,242.67 554.827,243.065 551.3,239.503 551.3,238.603 	"/>
	<path fill="#798494" d="M564.431,244.278c0,0,0.239-0.119,0.359-0.119c0.514,0,0.96-0.289,1.44-0.072
		c0.707,0.318,0.743,0.574,1.2,1.079c0.274,0.304,0.815,0.312,1.229,0.399c0.273,0.058,0.912,0.193,2.305,0.24
		c1.392,0.049,3.695-0.288,5.472,1.968c1.776,2.257,3.071,4.416,3.504,5.04c0.433,0.625,0.336,0.72,0.96,1.535
		c0.624,0.817,1.008,2.736,0.959,3.697c-0.047,0.959,0,0.912,0.049,1.488c0.049,0.574-1.008,2.832-2.064,3.264
		c-1.056,0.432-1.354,0.301-2.256,0.287c-1.037-0.015-1.637-0.447-1.973-0.734c-0.336-0.289-0.188-0.514-0.188-0.514
		s-0.412-0.255-0.604,0.225c-0.193,0.48-1.268,4.816-1.268,5.152s-0.145,3.6-0.336,4.271c-0.192,0.673,0,3.217,0,3.936
		c0,0.721,0.162,3.993,0.162,3.993s-1.973,4.16-5.184,4.968c-1.473,0.37-4.34,1.744-5.826,2.513
		c-1.488,0.768-3.408,1.583-5.857,0.958c-2.447-0.623-3.168-0.815-3.84-1.535c-0.672-0.721-2.016-2.16-2.399-2.975
		c-0.384-0.817-1.008-1.346-1.392-2.209c-0.385-0.864-0.624-1.008-0.96-1.439c-0.337-0.432-1.2-1.009-1.296-1.344
		c-0.097-0.336-0.48-0.721-0.432-1.44c0.048-0.721,1.152-0.721,1.487-1.056c0.336-0.336,0.913-0.673,1.151-1.201
		c0.24-0.527,0.576-1.248,0.576-1.872c0-0.623,0.336-1.104,0.336-1.104s-1.056,0.336-2.256-0.096
		c-1.199-0.432-2.111-1.104-2.688-1.535s-2.16-1.729-2.16-1.729l-0.863-1.729l0.768-1.871c0,0,4.08-7.584,4.56-8.304
		c0.479-0.721,0.618-1.769,1.003-2.057c0.384-0.287,1.368-1.271,1.943-1.512c0.576-0.241,1.779-1.389,2.592-1.872
		c0.769-0.455,0.03-0.416,0.03-0.416s0.522-0.352,1.05-0.879c0.529-0.527,1.32-2.232,1.896-2.28s1.998,0.712,3.054,0.759
		c1.056,0.048,4.177,0.527,6.048-0.623C566.597,246.382,564.431,244.278,564.431,244.278z"/>
</g>
<path fill="#FDD9BA" d="M544.171,269.653c0,0-0.335,0.742-0.527,1.03c-0.191,0.287-0.285,1.228-0.285,1.898s0.215,1.585,0.293,2.752
	c0.043,0.651,0.091,0.849,0.283,1.136c0.191,0.289,1.061,0.977,1.205,1.023c0.144,0.049,0.672,0,1.295-0.238
	c0.625-0.24,1.681-0.865,1.873-1.057c0.191-0.191,0.576-0.432,0.816-1.104c0.239-0.671,0.623-1.439,0.672-1.968
	c0.047-0.527-0.049-1.297-0.049-1.297s-1.488,0.481-3.023-0.432c-1.537-0.91-2.589-1.721-2.589-1.721"/>
<g>
	<g>
		<circle fill="#94B5C4" cx="682.216" cy="224.137" r="40.079"/>
		<g>
			<defs>
				<circle id="SVGID_1_" cx="682.216" cy="224.137" r="40.079"/>
			</defs>
			<clipPath id="SVGID_2_">
				<use xlink:href="#SVGID_1_"  overflow="visible"/>
			</clipPath>
			<path clip-path="url(#SVGID_2_)" fill="#798494" d="M687.331,180.931c0,0,0.246,4.237-0.874,5.358
				c-1.121,1.122-2.491,4.61-6.603,4.485c-4.113-0.122-3.989,0.125-5.484,1.247c-1.494,1.122-2.119,1.245-2.866,1.868
				c-1.152,0.961-2.74,1.62-2.989-0.249c-0.347-2.596,2.369-4.361,0.873-4.361c-1.499,0-4.861,0.498-5.235,0.624
				c-0.372,0.125-0.997,0.871,0,1.246c0.998,0.373,2.617,0.623,1.245,1.495c-1.369,0.874-2.74,0-2.615,1.992
				c0.124,1.996,0.624,2.491,0.872,4.113c0.188,1.213,0.249,3.239-1.745,3.364c-2.147,0.134-1.368-1.744-2.366-1.372
				c-0.996,0.375-1.246-0.123-0.872,0.748s-0.124,2.119-2.243,2.991c-2.119,0.871-2.99,1.494-3.613,2.119
				c-0.624,0.621-1.743,1.99-1.868,2.863c-0.127,0.874-0.624,1.62-1.994,2.743c-1.37,1.119-3.987,2.743-4.113,3.115
				c-0.123,0.375-0.872,1.12-0.249,3.115c0.624,1.994,1.621,4.859,2.493,4.983c0.87,0.125,1.744-0.996,3.489-0.25
				c1.745,0.749,2.616,1.495,3.364,2.494c0.747,0.994,1.868,1.121,3.364,1.992c1.494,0.872,2.368,1.371,2.49,2.617
				c0.128,1.244-1.494,0.746,1.247,1.743c2.742,0.998,4.734,2.491,6.602,3.115c0.956,0.319,1.622,0.622,1.124,2.492
				c-0.5,1.871-1.372,2.492-1.372,3.863c0,1.37,0.748,1.617-0.123,3.488c-0.874,1.869-0.623,2.243-2.118,2.865
				c-1.496,0.624-1.87,0.376-1.744,1.995c0.124,1.62,0.873,1.493,0.124,2.616c-0.748,1.121-1.496,1.121-1.247,2.614
				c0.249,1.497,0.623,0.999,0.751,2.245c0.121,1.246-1.497,6.354-1.497,6.728s-11.215-4.111-11.215-4.111s0.374-4.111,0.871-7.975
				c0.5-3.863-0.122-8.222-0.122-8.596s-0.623-1.123-2.742-4.237c-2.118-3.116-2.492-4.86-2.615-7.104
				c-0.126-2.243,0.247-3.611-0.623-4.984c-0.874-1.368-0.874-2.614-1.746-3.612c-0.872-0.996-2.865-3.986-3.238-4.361
				c-0.376-0.372-2.618-8.473-2.618-8.473s8.226-12.958,10.841-17.818c2.617-4.859,6.604-6.978,10.466-8.348
				s12.959-4.611,14.953-4.858C675.741,179.311,687.331,180.931,687.331,180.931z"/>
			<path clip-path="url(#SVGID_2_)" fill="#798494" d="M704.151,185.542c0,0-1.746,2.117-4.361,3.365
				c-2.617,1.246-1.994,1.867-3.363,2.117c-1.372,0.248-2.867,0.498-2.992,1.37c-0.124,0.871-0.498,1.619-0.249,2.368
				c0.249,0.747,0.249,1.246-0.125,1.62c-0.374,0.372-1.245,1.743-1.245,1.743s-1.618,0.996-2.617,0.498s-2.244-0.746-3.49,0.622
				c-1.246,1.373-1.494,3.243-1.494,3.243s-0.621,1.742,0.248,3.363c0.874,1.619,1.745-0.25,1.622,0.871
				c-0.126,1.122-0.376,1.996-1.495,2.866c-1.123,0.871-2.242,1.87-2.992,2.739c-0.745,0.875-1.869,2.621-1.869,4.736
				c0,2.12-0.997,4.734,0.127,6.48c2.401,3.738,3.257,5.006,4.607,5.606c0.981,0.435,1.499,1.868,3.616,1.246
				c2.119-0.624,3.114-1.869,4.608-1.495c1.495,0.375,2.991,0.249,3.114,1.495c0.126,1.244,0.873,3.736,1.497,5.108
				c0.621,1.372,1.246,0.873,1.246,2.992c0,2.116,0,2.49-0.625,3.488c-0.621,0.997,0,3.114,0.376,4.485
				c0.372,1.369,1.992,5.606,1.992,5.606s0.25,2.119,2.743,1.122c2.49-0.997,4.111-2.742,4.982-3.738
				c0.873-0.997,2.742-4.112,3.239-5.231c0.499-1.126,2.119-2.743,2.493-3.864c0.374-1.122,0.871-2.243,0.748-3.864
				c-0.126-1.618-0.126-1.744,0.374-3.113c0.498-1.372,0.872-1.994,1.619-2.742c0.747-0.746,1.494-1.495,1.992-2.742
				c0.498-1.246,1.371-1.246,0.498-2.615c-0.87-1.37-0.996-1.869-0.87-2.491c0.125-0.625,0.5-0.872,1.245-1.247
				c0.748-0.374,1.494-0.374,1.746-1.994c0.247-1.619,0.497-1.743,1.118-3.115c0.625-1.37,2.121-2.366,2.369-2.866
				c0.25-0.497,1.37-2.74,1.37-2.74S716.486,191.272,704.151,185.542z"/>
			<path clip-path="url(#SVGID_2_)" fill="#94B5C4" d="M691.066,205.726c0,0,1.621-2.491,2.866-2.367
				c1.247,0.127,2.12,0.251,3.116,1.123c0.996,0.871,2.865,1.371,2.865,1.371s-0.249,2.116,0.747,1.743
				c1-0.374,2.12-1.122,2.12-1.122s0.873,0.998,2.119,1.122c1.245,0.124,2.739,0,3.61,0.373c0.873,0.375,1.992,0.622,1.746,1.495
				c-0.25,0.874-1.119,1.371-1.119,1.371s-1.374,0.376-3.367,0.128c-1.994-0.255-1.868-0.376-2.865-0.376
				c-0.998,0-0.872,0.376-1.744-0.749c-0.873-1.118-0.375-1.992-1.746-2.739c-1.37-0.748-1.994-1.621-3.239-1.621
				c-1.246,0-2.243,0.125-3.364,0.623C691.69,206.601,689.945,206.351,691.066,205.726z"/>
		</g>
	</g>
	<path fill="#D69872" d="M728.05,230.294c-1.412-5.816-12.57-10.669-29.849-12.982c-6.413-0.859-13.155-1.295-20.04-1.295
		c-18.61,0-35.32,3.27-42.569,8.329c-4.048,2.827-4.373,5.581-3.934,7.394c0.923,3.798,6.249,7.294,14.472,9.831
		c-0.385-0.799-0.98-1.727-1.313-2.554c-7.282-2.499-10.651-5.431-11.215-7.75c-0.427-1.754,0.628-3.53,3.134-5.28
		c6.937-4.842,23.196-7.97,41.425-7.97c6.796,0,13.449,0.43,19.774,1.277c19.367,2.593,27.279,7.801,28.171,11.472
		c0.426,1.755-0.63,3.533-3.138,5.283c-0.979,0.684-1.77,1.134-3.1,1.745c-0.407,1.101-0.529,1.406-1.073,2.609
		c2.262-0.885,3.809-1.661,5.317-2.714C728.164,234.861,728.49,232.107,728.05,230.294z"/>
	<path fill="#D69872" d="M673.679,263.271c-3.906,2.732-7.311,4.254-9.81,4.254c-1.021,0-4.124,0-4.185-5.832
		c-0.125-12.032,12.875-36.398,28.979-54.315c9.457-10.522,18.564-17.059,23.768-17.059c1.02,0,4.122,0,4.184,5.828
		c0.02,1.906-0.219,3.666-0.817,6.116c0.436,0.685,0.89,1.433,1.399,2.373c0.986-3.395,1.444-5.984,1.418-8.511
		c-0.071-6.793-3.905-7.807-6.184-7.807c-5.928,0-15.133,6.459-25.256,17.723c-16.39,18.235-29.619,43.211-29.49,55.673
		c0.07,6.796,3.905,7.811,6.185,7.811c3.312,0,7.646-2.02,12.591-5.762C675.521,263.635,674.596,263.464,673.679,263.271z"/>
	<circle fill="#E8BA80" stroke="#FFFFFF" stroke-miterlimit="10" cx="648.969" cy="222.685" r="13.2"/>
	<path fill="#FFFFFF" d="M671.855,245.638h-0.713c0.069-0.237,0.108-0.487,0.108-0.747c0-1.458-1.182-2.641-2.641-2.641
		c-0.046,0-0.09,0.005-0.135,0.007c-0.467-2.025-2.142-3.525-4.137-3.525c-1.911,0-3.529,1.377-4.071,3.276
		c-0.131-0.017-0.263-0.026-0.397-0.026c-1.907,0-3.453,1.637-3.453,3.656h-0.813c-1.346,0-2.438,1.092-2.438,2.438
		s1.092,2.438,2.438,2.438h16.251c1.345,0,2.437-1.092,2.437-2.438S673.2,245.638,671.855,245.638z"/>
	<path fill="#E8BA80" d="M695.847,235.901c-12.044-21.355-31.487-41.868-43.342-45.728c-4.148-1.35-7.238-0.59-8.788,2.065
		c-1.868,3.199-1.335,8.992,1.339,16.423c0.378-0.9,0.787-1.785,1.229-2.65c-1.867-5.828-2.234-10.377-0.841-12.764
		c0.684-1.171,1.778-1.739,3.347-1.739c0.896,0,1.938,0.19,3.096,0.567c11.446,3.726,30.386,23.826,42.219,44.808
		c7.474,13.247,10.677,24.592,8.16,28.902c-1.074,1.841-3.262,2.209-6.447,1.171c-2.035-0.662-4.312-1.852-6.739-3.464
		c-0.941,0.17-1.894,0.309-2.857,0.41c3.262,2.373,6.313,4.089,8.978,4.956c1.359,0.442,2.61,0.666,3.719,0.666
		c2.276,0,4.031-0.944,5.074-2.731C706.948,261.731,703.903,250.183,695.847,235.901z"/>
	<path fill="#FFFFFF" d="M672.355,198.888h-0.713c0.069-0.237,0.108-0.487,0.108-0.747c0-1.458-1.182-2.641-2.641-2.641
		c-0.046,0-0.09,0.005-0.135,0.007c-0.467-2.025-2.142-3.525-4.137-3.525c-1.911,0-3.529,1.377-4.071,3.276
		c-0.131-0.017-0.263-0.026-0.397-0.026c-1.907,0-3.453,1.637-3.453,3.656h-0.813c-1.346,0-2.438,1.092-2.438,2.438
		s1.092,2.438,2.438,2.438h16.251c1.345,0,2.437-1.092,2.437-2.438S673.7,198.888,672.355,198.888z"/>
	<path fill="#FFFFFF" d="M722.021,220.805h-0.713c0.069-0.237,0.108-0.487,0.108-0.747c0-1.458-1.182-2.641-2.641-2.641
		c-0.046,0-0.09,0.005-0.135,0.007c-0.467-2.025-2.142-3.525-4.137-3.525c-1.911,0-3.529,1.377-4.071,3.276
		c-0.131-0.017-0.263-0.026-0.397-0.026c-1.907,0-3.453,1.637-3.453,3.656h-0.813c-1.346,0-2.438,1.092-2.438,2.438
		s1.092,2.438,2.438,2.438h16.251c1.345,0,2.437-1.092,2.437-2.438S723.366,220.805,722.021,220.805z"/>
	<path fill="#FFFFFF" d="M688.521,219.138h-0.713c0.069-0.237,0.108-0.487,0.108-0.747c0-1.458-1.182-2.641-2.641-2.641
		c-0.046,0-0.09,0.005-0.135,0.007c-0.467-2.025-2.142-3.525-4.137-3.525c-1.911,0-3.529,1.377-4.071,3.276
		c-0.131-0.017-0.263-0.026-0.397-0.026c-1.907,0-3.453,1.637-3.453,3.656h-0.813c-1.346,0-2.438,1.092-2.438,2.438
		s1.092,2.438,2.438,2.438h16.251c1.345,0,2.437-1.092,2.437-2.438S689.866,219.138,688.521,219.138z"/>
	<path fill="#FFFFFF" d="M706.354,198.888h-0.713c0.069-0.237,0.108-0.487,0.108-0.747c0-1.458-1.182-2.641-2.641-2.641
		c-0.046,0-0.09,0.005-0.135,0.007c-0.467-2.025-2.142-3.525-4.137-3.525c-1.911,0-3.529,1.377-4.071,3.276
		c-0.131-0.017-0.263-0.026-0.397-0.026c-1.907,0-3.453,1.637-3.453,3.656h-0.813c-1.346,0-2.438,1.092-2.438,2.438
		s1.092,2.438,2.438,2.438h16.251c1.345,0,2.437-1.092,2.437-2.438S707.699,198.888,706.354,198.888z"/>
	<path fill="#FFFFFF" d="M705.854,245.638h-0.713c0.069-0.237,0.108-0.487,0.108-0.747c0-1.458-1.182-2.641-2.641-2.641
		c-0.046,0-0.09,0.005-0.135,0.007c-0.467-2.025-2.142-3.525-4.137-3.525c-1.911,0-3.529,1.377-4.071,3.276
		c-0.131-0.017-0.263-0.026-0.397-0.026c-1.907,0-3.453,1.637-3.453,3.656h-0.813c-1.346,0-2.438,1.092-2.438,2.438
		s1.092,2.438,2.438,2.438h16.251c1.345,0,2.437-1.092,2.437-2.438S707.199,245.638,705.854,245.638z"/>
	<path fill="#FFFFFF" stroke="#798494" stroke-miterlimit="10" d="M657.022,220.638h-0.713c0.069-0.237,0.108-0.487,0.108-0.747
		c0-1.458-1.182-2.641-2.641-2.641c-0.046,0-0.09,0.005-0.135,0.007c-0.467-2.025-2.142-3.525-4.137-3.525
		c-1.911,0-3.529,1.377-4.071,3.276c-0.131-0.017-0.263-0.026-0.397-0.026c-1.907,0-3.453,1.637-3.453,3.656h-0.813
		c-1.346,0-2.438,1.092-2.438,2.438s1.092,2.438,2.438,2.438h16.251c1.345,0,2.437-1.092,2.437-2.438
		S658.367,220.638,657.022,220.638z"/>
</g>
<polyline fill="none" stroke="#FFFFFF" stroke-width="2" stroke-miterlimit="10" points="364.433,176.481 383.673,281.397 
	364.433,383.73 "/>
<g>
	<path fill="#798494" d="M315.102,296.621c0,0.613-0.541,1.111-1.207,1.111h-23.426c-0.666,0-1.205-0.498-1.205-1.111v-16.575
		c0-0.614,0.539-1.112,1.205-1.112h23.426c0.666,0,1.207,0.499,1.207,1.112V296.621z"/>
	<path fill="#94B5C4" d="M315.102,281.074v-1.028c0-0.614-0.541-1.112-1.207-1.112h-23.426c-0.666,0-1.205,0.499-1.205,1.112v1.028
		H315.102z"/>
	<polygon fill="#FFFFFF" points="299.667,292.714 293.374,289.832 293.396,288.243 299.667,285.557 299.667,287.153 295.355,289.07 
		299.667,291.137 	"/>
	<polygon fill="#FFFFFF" points="304.863,285.557 311.157,288.438 311.137,290.027 304.863,292.714 304.863,291.117 
		309.176,289.199 304.863,287.135 	"/>
	<polygon fill="#FFFFFF" points="301.859,293.717 300.188,293.717 302.908,284.092 304.58,284.092 	"/>
	<circle fill="#0B8743" cx="310.371" cy="279.828" r="0.551"/>
	<circle fill="#FDD9BA" cx="312.05" cy="279.828" r="0.55"/>
	<circle fill="#E72E2E" cx="313.788" cy="279.828" r="0.55"/>
</g>
<polygon fill="#94B5C4" points="271.178,293.383 274.309,291.316 274.309,292.345 286.17,292.345 286.17,294.345 274.309,294.345 
	274.309,295.449 "/>
<polygon fill="#94B5C4" points="286.17,286.758 283.039,288.824 283.039,287.796 271.178,287.796 271.178,285.796 283.039,285.796 
	283.039,284.691 "/>
<polygon fill="none" points="364.515,263.355 212.681,264.022 212.681,187.853 359.686,188.187 "/>
<text transform="matrix(1 0 0 1 212.6802 194.5981)"><tspan x="0" y="0" fill="#231F20" font-family="'MyriadPro-Bold'" font-size="9.5">WHAT HAPPENS TO THE DATA</tspan><tspan x="0" y="11" fill="#231F20" font-family="'MyriadPro-Regular'" font-size="9.5">Clinical data stored in a secure </tspan><tspan x="113.751" y="11" fill="#231F20" font-family="'MyriadPro-Bold'" font-size="9.5">HIPAA* </tspan><tspan x="0" y="22" fill="#231F20" font-family="'MyriadPro-Bold'" font-size="9.5">compliant cloud</tspan><tspan x="68.397" y="22" fill="#231F20" font-family="'MyriadPro-Regular'" font-size="9.5"> is accessible via </tspan><tspan x="0" y="33" fill="#231F20" font-family="'MyriadPro-Regular'" font-size="9.5">patient’s electronic medical record </tspan><tspan x="0" y="44" fill="#231F20" font-family="'MyriadPro-Regular'" font-size="9.5">or secure mobile app.</tspan></text>
<text transform="matrix(1 0 0 1 228.7026 316.0127)"><tspan x="0" y="0" fill="#231F20" font-family="'MyriadPro-Bold'" font-size="9.5">Database</tspan><tspan x="-1.928" y="11" fill="#231F20" font-family="'MyriadPro-Regular'" font-size="9.5">Stores and</tspan><tspan x="0.988" y="22" fill="#231F20" font-family="'MyriadPro-Regular'" font-size="9.5">maintains</tspan><tspan x="16.312" y="33" fill="#231F20" font-family="'MyriadPro-Regular'" font-size="9.5">data.  </tspan></text>
<text transform="matrix(1 0 0 1 289.6704 316.0127)"><tspan x="0" y="0" fill="#231F20" font-family="'MyriadPro-Bold'" font-size="9.5">Back end</tspan><tspan x="38.351" y="0" fill="#231F20" font-family="'MyriadPro-Regular'" font-size="9.5"> </tspan><tspan x="0" y="11" fill="#231F20" font-family="'MyriadPro-Regular'" font-size="9.5">Manages data</tspan><tspan x="0" y="22" fill="#231F20" font-family="'MyriadPro-Regular'" font-size="9.5">and provides </tspan><tspan x="0" y="33" fill="#231F20" font-family="'MyriadPro-Regular'" font-size="9.5">access to client.</tspan><tspan x="61.625" y="33" fill="#231F20" font-family="'MyriadPro-Regular'" font-size="10">   </tspan></text>
<text transform="matrix(1 0 0 1 198.7017 377.5586)" fill="#231F20" font-family="'MyriadPro-Regular'" font-size="7.5">*Health Insurance Portability and Accountability Act </text>
<polygon fill="none" points="744.882,369.452 652.892,369.452 652.892,275.286 759.903,275.286 "/>
<text transform="matrix(1 0 0 1 652.8916 282.0303)"><tspan x="0" y="0" fill="#231F20" font-family="'MyriadPro-Bold'" font-size="9.5">HIPAA-compliant</tspan><tspan x="0" y="11" fill="#231F20" font-family="'MyriadPro-Bold'" font-size="9.5">cloud network</tspan><tspan x="0" y="22" fill="#231F20" font-family="'MyriadPro-Regular'" font-size="9.5">Collecting aggregated, </tspan><tspan x="0" y="33" fill="#231F20" font-family="'MyriadPro-Regular'" font-size="9.5">anonymous clinical data </tspan><tspan x="0" y="44" fill="#231F20" font-family="'MyriadPro-Regular'" font-size="9.5">o</tspan><tspan x="5.216" y="44" fill="#231F20" font-family="'MyriadPro-Regular'" font-size="9.5">f each case study allows </tspan><tspan x="0" y="55" fill="#231F20" font-family="'MyriadPro-Regular'" font-size="9.5">continuous building of </tspan><tspan x="0" y="66" fill="#231F20" font-family="'MyriadPro-Regular'" font-size="9.5">a data archive for big </tspan><tspan x="0" y="77" fill="#231F20" font-family="'MyriadPro-Regular'" font-size="9.5">data </tspan><tspan x="19.437" y="77" fill="#231F20" font-family="'MyriadPro-Regular'" font-size="9.5">analytics. </tspan></text>
<polygon fill="none" points="556.194,358.502 400.51,358.502 400.51,238.337 532.188,238.337 "/>
<text transform="matrix(1 0 0 1 400.5098 245.082)"><tspan x="0" y="0" fill="#231F20" font-family="'MyriadPro-Bold'" font-size="9.5">Data visualization</tspan><tspan x="0" y="12" fill="#231F20" font-family="'MyriadPro-Regular'" font-size="9.5">Physician can review and share </tspan><tspan x="0" y="23" fill="#231F20" font-family="'MyriadPro-Regular'" font-size="9.5">monitored data with patient:</tspan><tspan x="0" y="35" fill="#231F20" font-family="'MyriadPro-Bold'" font-size="9.5">•</tspan><tspan x="3.211" y="35" fill="#231F20" font-family="'MyriadPro-Regular'" font-size="9.5"> Number of opioids dispensed</tspan><tspan x="0" y="47" fill="#231F20" font-family="'MyriadPro-Bold'" font-size="9.5">• </tspan><tspan x="5.13" y="47" fill="#231F20" font-family="'MyriadPro-Regular'" font-size="9.5">How eﬀective drug has been</tspan><tspan x="0" y="58" fill="#231F20" font-family="'MyriadPro-Regular'" font-size="9.5">at reducing pain level</tspan><tspan x="0" y="70" fill="#231F20" font-family="'MyriadPro-Bold'" font-size="9.5">•</tspan><tspan x="3.211" y="70" fill="#231F20" font-family="'MyriadPro-Regular'" font-size="9.5"> Whether drug use was same, less, </tspan><tspan x="0" y="81" fill="#231F20" font-family="'MyriadPro-Regular'" font-size="9.5">or greater than the previous month</tspan><tspan x="0" y="93" fill="#231F20" font-family="'MyriadPro-Bold'" font-size="9.5">•</tspan><tspan x="3.211" y="93" fill="#231F20" font-family="'MyriadPro-Regular'" font-size="9.5"> To what degree pain and/or opioid </tspan><tspan x="0" y="104" fill="#231F20" font-family="'MyriadPro-Regular'" font-size="9.5">use have affected daily activity</tspan></text>
<g>
	<g>
		
			<polyline fill="none" stroke="#231F20" stroke-width="0.75" stroke-linecap="round" stroke-miterlimit="10" stroke-dasharray="3,3" points="
			279.672,315.308 279.672,360.013 646.001,360.013 646.001,232.446 		"/>
		<g>
			<path fill="#231F20" d="M279.672,311.687c-0.632,1.704-1.711,3.817-2.854,5.128l2.854-1.031l2.853,1.031
				C281.382,315.504,280.304,313.391,279.672,311.687z"/>
		</g>
		<g>
			<path fill="#231F20" d="M646.001,228.825c0.632,1.704,1.711,3.818,2.854,5.128l-2.854-1.032l-2.853,1.032
				C644.291,232.643,645.369,230.529,646.001,228.825z"/>
		</g>
	</g>
</g>
</svg>
