<?xml version="1.0" encoding="utf-8"?>
<!-- Generator: Adobe Illustrator 16.0.0, SVG Export Plug-In . SVG Version: 6.00 Build 0)  -->
<!DOCTYPE svg PUBLIC "-//W3C//DTD SVG 1.1//EN" "http://www.w3.org/Graphics/SVG/1.1/DTD/svg11.dtd">
<svg version="1.1" id="Layer_1" xmlns="http://www.w3.org/2000/svg" xmlns:xlink="http://www.w3.org/1999/xlink" x="0px" y="0px"
	 width="960px" height="560px" viewBox="0 0 960 560" enable-background="new 0 0 960 560" xml:space="preserve">
<g>
	<polygon fill="#D1D1CA" points="336.969,382.701 199.206,382.701 199.206,175.452 336.969,175.452 356.21,280.368 	"/>
	<polygon fill="#D1D1CA" points="743.037,382.678 508.741,382.678 508.741,175.428 743.037,175.428 762.277,280.344 	"/>
	<g>
		<g>
			
				<line fill="none" stroke="#231F20" stroke-width="0.5" stroke-miterlimit="10" stroke-dasharray="3,3" x1="271.57" y1="222.254" x2="271.57" y2="268.911"/>
			<g>
				<circle fill="#231F20" cx="271.57" cy="222.329" r="1.504"/>
			</g>
			<g>
				<circle fill="#231F20" cx="271.57" cy="268.836" r="1.504"/>
			</g>
		</g>
	</g>
	<g>
		<g>
			<path fill="#DDE8EE" d="M289.262,324.001l0.279-1.013c0,0,0.205-4.179,0.136-4.583c-0.069-0.402-0.396-0.989-0.608-1.166
				c-0.212-0.178-0.133-0.86-0.555-1.027c-0.422-0.171-1.228-0.637-1.848-0.902s-1.096-0.57-1.096-0.57l1.946,0.243
				c0,0,0.181-0.355-0.039-0.667c-0.22-0.31-0.33-0.956-0.292-1.085c0.038-0.131,0.117-0.018-0.408-0.088
				c-0.525-0.072-1.313,0.101-1.471,0.059c-0.052-0.015-0.197-0.001-0.405,0.017c0.306-0.277,0.771-0.688,1.155-1.02
				c0.111-0.034,0.243-0.073,0.402-0.118c0.937-0.266,1.035-0.311,1.834-0.588c0.012-0.005,0.022-0.006,0.033-0.012
				c0.099,0.063,0.182,0.125,0.231,0.141c0.111,0.036,0.217,0.125,0.819-0.063c0.604-0.188,1.532-0.585,1.715-0.755
				c0.166-0.156,0.769-0.563,0.495-0.744c0.342-0.212,0.684-0.435,0.989-0.642c0.731-0.496,1.331-1.057,1.558-1.408
				c0.226-0.353,0.201-0.938,0.251-1.173c0.052-0.236-0.552-0.844-0.552-0.844l-0.254-0.421l-0.89-0.339l-0.941-0.109l-0.545-0.1
				l-0.934,0.028c0,0-0.872,0.108-1.448,0.273c-0.577,0.164-1.149,0.089-2.088,0.167c-0.938,0.079-2.373,0.62-2.987,0.913
				c-0.614,0.292-1.443,0.832-1.973,1.188c-0.202,0.133-0.436,0.299-0.657,0.473c-0.253,0.026-0.592,0.09-0.795,0.226
				c-0.353,0.235-1.05,0.838-1.082,0.917c-0.032,0.077-0.076,0.258,0.165,0.174c0.243-0.087,0.446-0.043,0.446-0.043l0.125,0.052
				c-0.178,0.217-0.35,0.411-0.387,0.618c-0.031,0.167-0.188,0.279-0.36,0.369c-0.642-0.008-1.344-0.007-1.732,0.035
				c-0.847,0.089-1.226,0.16-1.573,0.343c-0.347,0.184-0.714,0.337-1.021,0.391c-0.309,0.053-0.979,0.022-2.339-0.065
				c-1.361-0.09-3.388-0.449-6.316,0.55c-2.926,0.998-5.341,1.986-6.094,2.268c-0.753,0.28-0.713,0.337-1.754,0.699
				c-1.041,0.364-1.363,0.333-1.878,0.771c-0.516,0.433-0.573,0.534-1.049,1.025c-0.475,0.491-0.495,0.463-0.854,0.749
				c-0.358,0.287-0.002,0.426-0.086,0.737c-0.011,0.039-0.026,0.083-0.045,0.128c-0.211,0.09-0.435,0.195-0.633,0.317
				c-0.602,0.374-0.733,0.308-1.098,0.65c-0.365,0.341-0.919,0.903-0.919,0.903s-0.396,0.419-0.079,0.682
				c0.318,0.269,1.033,0.115,1.421,0.177c0.388,0.06,0.644,0.056,1.486,0.206c0.767,0.137,2.604,0.322,4.226,0.345
				c-0.179,0.178-0.344,0.345-0.435,0.431c-0.182,0.17-0.525,0.725-0.916,1.089s-0.9,0.745-1.081,1.103
				c-0.18,0.357-0.597,0.745-0.636,0.877c-0.037,0.129-1.109,0.753-1.5,1.12c-0.392,0.364-0.642,0.925-0.72,0.999
				s-1.346,1.584-1.346,1.584s0.186,0.569,0.944,1.28c-1.685,1.333-16.45,9.633-16.833,9.25c-0.893-0.892-2.437,5.119-2.536,5.53
				c-0.1,0.408,18.619-6.443,20.102-7.512c1.483-1.068,2.214-1.962,3.553-2.686c0.581-0.312,1.483,0.304,1.188,0.581
				c-0.587,0.547-6.782,6.649-7.692,7.289c-0.911,0.639-1.704,1.168-2.276,1.596c-0.572,0.43-1.338,0.723-1.997,1.443
				c-0.658,0.722-1.638,1.951-3.241,2.71c-1.604,0.761-0.59,5.535,0.083,5.391c0.673-0.146,0.572-0.173,1.673-0.419
				c1.103-0.246,5.912-4.608,6.623-5.094c1.249-0.849,1.645-1.112,2.997-1.953c1.352-0.842,5.594-4.064,7.181-5.122
				c1.586-1.061,4.755-3.597,6.887-4.85c1.769-1.036,7.128-4.519,7.86-5.938c0.566-0.148,1.253-0.305,1.457-0.425
				c0.237-0.139,0.699-0.281,1.043-0.555c0.405,0.127,0.788,0.176,0.931,0.165c0.165-0.01,0.819-0.25,1.16-0.377
				c0.34-0.132,0.916-0.296,1.438-0.597c0.523-0.299,0.883-0.588,1.024-0.813c0.143-0.229,0.411-0.336,0.775-0.677
				c0.365-0.344,0.237-0.646,0.21-0.806c-0.025-0.143-0.091-0.391-0.106-0.447c0.915-0.207,2.789-0.651,2.789-0.651L289.262,324.001
				z M281.076,326.063c0.258-0.022,0.512-0.051,0.758-0.081c-1.87,0.29-2.974-0.055-2.974-0.055S279.691,326.185,281.076,326.063z"
				/>
			<g>
				<path fill="#FDD9BA" d="M216.404,289.549c0,0-0.936,1.871-1.085,3.808c-0.052,0.67,0.048,1.775,0.048,1.775
					s0.049,0.816,0.625,1.248c0.575,0.434,1.104,0.048,1.535,0.098c0.432,0.047,0.691-0.096,1.633,0.144
					c1.637,0.416,3.215,0.192,4.848-0.097c1.631-0.288,2.016-1.776,2.016-1.776l-1.584-3.456L216.404,289.549z"/>
				<path fill="#1A1918" d="M230.181,341.989c0,0-0.192,1.392-0.048,1.871c0.144,0.48,1.104,1.824,2.305,1.344
					c1.199-0.48,1.583-0.334,1.871-1.488c0.288-1.151,0.576-2.592,0.912-3.359s1.536-1.633,1.729-2.4
					c0.191-0.768,0.479-1.486,0.384-2.496c-0.097-1.008-0.288-2.256-0.337-2.641c-0.047-0.383,0.049-1.392-1.151-1.198
					c-1.2,0.191-2.4,0.432-3.12,1.823c-0.721,1.393-2.544,8.353-2.544,8.353"/>
				<path fill="#94B5C4" d="M228.24,310.932c0,0-0.863,8.747-0.756,9.827s-0.432,1.836-0.432,2.592s-0.217,3.455-0.107,5.184
					c0.107,1.729-0.432,2.809,0,3.779c0.432,0.973,0.539,2.27,0.863,3.025s-0.107,2.375,0.107,3.347
					c0.217,0.972,0.756,1.08,1.08,2.161c0.324,1.078,0.648,1.727,0.648,2.268c0,0.54,0.756,1.727,2.053,1.512
					c1.295-0.217,2.16-0.432,2.699-1.404c0.54-0.971,1.296-3.456,1.619-4.32c0.324-0.863,0.541-2.159,0.433-2.916
					c-0.108-0.755-0.972-2.051-1.188-4.211c-0.216-2.16-0.646-3.779-0.323-5.939s0.107-3.887,0.647-5.4
					c0.541-1.512,1.188-4.968,1.188-4.968L228.24,310.932z"/>
				<path fill="#1A1918" d="M235.256,357.72c0,0-0.216,1.078-0.216,1.201s0.153,0.861,0.493,1.047c0,0,1.662,0.986,2.648,0.339
					c0.984-0.647,1.6-1.294,1.815-1.509s1.231-1.478,1.725-1.848c0.492-0.369,0.369-0.4,1.17-1.016
					c0.8-0.615,1.632-1.077,2.216-2.063c0.586-0.986,1.018-2.279,1.018-3.049s-0.309-2.37-1.264-2.679c0,0-0.646-0.246-1.385,0.246
					C242.738,348.884,235.256,357.72,235.256,357.72z"/>
				<path fill="#908077" d="M242.275,353.287c0,0-0.185,1.57-0.369,2.063s-0.4,1.108-0.586,1.386
					c-0.184,0.277-0.092,0.184-0.092,0.184l0.739-0.553c0,0,1.108-2.986,0.862-4.188L242.275,353.287z"/>
				<path fill="#908077" d="M243.016,352.056c0,0,0.153,1.076,0.092,1.724c-0.063,0.646-0.339,1.724-0.523,2.095l0.584-0.432
					c0,0,0.77-1.726,0.247-3.727L243.016,352.056z"/>
				<path fill="#908077" d="M243.969,351.993l0.462-0.061c0,0,0.523,1.292-0.03,2.432c0,0-0.34,0.37-0.463,0.431
					c-0.123,0.063-0.123,0.063-0.123,0.063S244.585,354.426,243.969,351.993z"/>
				<path fill="#94B5C4" d="M235.692,315.359c0,0,1.62,4.859,1.62,5.94c0,1.078,0.647,2.268,0.756,3.455
					c0.107,1.188,0.107,2.484,0.216,3.564c0.108,1.079,0.108,2.159,0.108,3.023c0,0.863-0.756,3.023-0.973,4.319
					c-0.216,1.296-0.432,2.375-0.539,3.239c-0.108,0.864-0.541,1.512-0.433,2.916s0.433,3.779-0.323,5.4
					c-0.756,1.619-2.16,3.672-2.16,4.643c0,0.973,0.539,2.809,0.756,3.349c0.216,0.54-0.433,2.052,0.107,2.808
					c0.541,0.756,2.16,1.404,3.456,0.865c1.296-0.541,2.483-1.837,2.916-2.81c0.432-0.972,0.756-1.403,1.188-2.483
					c0.433-1.08,1.951-1.75,1.797-4.213c-0.048-0.762-0.501-1.942-0.177-3.67c0.324-1.729,0.432-2.27,0.863-3.996
					c0.434-1.729,0.217-2.16,0.756-3.348c0.541-1.188,0.757-1.08,0.865-3.023c0.107-1.944-0.432-1.837,0-3.996
					c0.432-2.16,0.863-7.236,1.619-9.828s2.869-12.404,0.648-12.959c-0.432-0.107-11.987,6.911-11.987,6.911"/>
				<path fill="#FDD9BA" d="M229.797,275.868c0,0,0.959-1.127,1.896-1.127c0.936,0,2.711-0.744,3.071-0.744s6.12,4.822,6.12,4.822
					s-2.736,2.737-3.023,2.81c-0.289,0.071-5.688,0.144-6.408-1.655C230.732,278.173,229.797,275.868,229.797,275.868z"/>
				<g>
					<path fill="none" d="M245.543,266.628c0,0,0.757,0.937,0.757,1.08c0,0.145-0.144,3.133-1.009,3.133l-0.035-1.188l-0.108-1.656
						L245.543,266.628z"/>
					<path fill="#798494" d="M245.475,266.335c0,0,0.756,0.937,0.756,1.08c0,0.145-0.145,3.133-1.008,3.133l-0.036-1.188
						l-0.108-1.656L245.475,266.335z"/>
					<path fill="#FDD9BA" d="M243.359,263.772c0,0,1.393,0.719,1.537,1.199c0.144,0.48,0.646,1.201,0.646,1.873
						s0.049,0.924,0.145,1.26s0.12,0.611,0.024,0.9c-0.097,0.287-0.288,0.672-0.288,0.959c0,0.289-0.096,0.529-0.24,0.96
						c-0.144,0.433-0.72,1.776-0.72,2.017s-0.384,1.068-0.72,1.213c-0.337,0.144-0.518,0.404-0.816,0.564
						c-0.462,0.246-1.416,0.839-1.729,2.11c-0.152,0.622-0.576,1.969-0.576,1.969s-2.543-0.288-4.08-0.912
						c-1.535-0.624-2.639-1.344-3.359-1.825l-0.864-0.479c0,0,0.433-0.72,0.624-2.64
						C233.137,271.021,243.359,263.772,243.359,263.772z"/>
					<path fill="#D69872" d="M244.031,261.66c0,0,0.816,0.769,0.865,1.345c0.047,0.576,0.096,0.959-0.289,1.486
						c-0.384,0.529-0.768,0.961-1.104,1.201c-0.336,0.239-1.393,0.287-1.104,0.912c0.287,0.625,1.344,1.141,1.631,2.111
						c0.166,0.557,0.204,0.674-0.035,1.585c-0.24,0.911-0.588,1.728-1.021,1.871c-0.432,0.144-0.516,0.661-0.563,0.901
						c-0.049,0.239-0.457-0.505-0.793-0.217s-0.828,0.469-1.235,1.188c-0.212,0.374-0.396,1.415-0.492,1.655
						c-0.097,0.24-1.429,0.937-1.956,0.984c-0.527,0.047-1.728,0-2.592-0.24s-1.344-0.287-1.729-0.769
						c-0.384-0.479-0.768-1.008-0.768-1.008s-0.096-0.192-0.24-1.343c-0.144-1.153-1.008-5.184-0.096-7.297
						c0.656-1.52,1.968-3.791,3.504-4.127c1.536-0.337,2.544-0.674,3.695-0.625c1.152,0.048,1.777,0,2.449,0.145
						c0.672,0.144,1.68,0.047,1.68,0.047"/>
					<polyline fill="none" points="245.832,268.968 242.123,272.893 242.303,273.288 245.832,269.726 245.832,268.825 					"/>
				</g>
				<path fill="#FDD9BA" d="M258.016,287.715c0,0-1.933,0.966-2.085,1.017c-0.12,0.04-0.741,2.275-1.003,3.232
					c-0.993,1.146-1.864,2.336-2.354,3.024l-0.713-0.202c-2.413,3.716-5.642,0.969-5.313,5.938c0.221,3.34,3.067,8.104,6.84,5.761
					c2.134-1.327,2.37-7.142,3.075-9.124c0.363-1.024,1.112-2.408,1.765-3.839l1.062-0.568l0.914-2.797l0.255-1.983L258.016,287.715
					z"/>
				<path fill="#798494" d="M232.701,274.501c0,0-0.24-0.119-0.36-0.119c-0.514,0-0.96-0.289-1.44-0.072
					c-0.707,0.318-0.744,0.574-1.199,1.079c-0.275,0.304-0.816,0.312-1.23,0.399c-0.273,0.058-0.911,0.193-2.304,0.24
					c-1.392,0.049-3.695-0.288-5.472,1.968c-1.775,2.257-3.072,4.416-3.504,5.04c-0.432,0.625-0.336,0.72-0.96,1.535
					c-0.624,0.817-1.008,2.736-0.96,3.697c0.048,0.959,0,0.912-0.048,1.488c-0.048,0.574,1.008,2.832,2.063,3.264
					c1.057,0.432,1.354,0.301,2.256,0.287c1.038-0.015,1.638-0.447,1.975-0.734c0.336-0.289,0.186-0.514,0.186-0.514
					s0.414-0.255,0.605,0.225c0.192,0.48,1.268,4.816,1.268,5.152s0.143,3.6,0.336,4.271c0.191,0.673,0,3.217,0,3.936
					c0,0.721-0.164,3.993-0.164,3.993s1.975,4.16,5.185,4.968c1.472,0.37,4.339,1.744,5.827,2.513
					c1.488,0.768,3.408,1.583,5.855,0.958c2.448-0.623,3.168-0.815,3.84-1.535c0.672-0.721,2.016-2.16,2.4-2.975
					c0.384-0.817,1.008-1.346,1.393-2.209c0.383-0.864,0.623-1.008,0.959-1.439s1.2-1.009,1.297-1.344
					c0.096-0.336,0.479-0.721,0.432-1.44c-0.049-0.721-1.152-0.721-1.488-1.056c-0.336-0.336-0.912-0.673-1.152-1.201
					c-0.24-0.527-0.576-1.248-0.576-1.872c0-0.623-0.336-1.104-0.336-1.104s1.057,0.336,2.256-0.096
					c1.201-0.432,2.113-1.104,2.688-1.535s2.159-1.729,2.159-1.729l0.865-1.729l-0.768-1.871c0,0-4.08-7.584-4.561-8.304
					c-0.48-0.721-0.619-1.769-1.002-2.057c-0.385-0.287-1.369-1.271-1.945-1.512c-0.575-0.241-1.778-1.389-2.592-1.872
					c-0.768-0.455-0.029-0.416-0.029-0.416s-0.521-0.352-1.051-0.879c-0.527-0.527-1.32-2.232-1.896-2.28
					c-0.576-0.048-1.997,0.712-3.054,0.759c-1.057,0.048-4.176,0.527-6.049-0.623C230.535,276.604,232.701,274.501,232.701,274.501z
					"/>
				<path fill="#FDD9BA" d="M252.96,299.876c0,0,0.335,0.742,0.527,1.03c0.192,0.287,0.286,1.228,0.286,1.898
					s-0.217,1.585-0.294,2.752c-0.043,0.651-0.091,0.849-0.282,1.136c-0.192,0.289-1.062,0.977-1.205,1.023
					c-0.145,0.049-0.673,0-1.297-0.238c-0.624-0.24-1.68-0.865-1.872-1.057s-0.575-0.432-0.815-1.104
					c-0.24-0.671-0.625-1.439-0.672-1.968c-0.049-0.527,0.047-1.297,0.047-1.297s1.488,0.481,3.024-0.432
					c1.536-0.91,2.589-1.721,2.589-1.721"/>
			</g>
		</g>
		<polyline fill="#798494" points="245.762,268.675 242.055,272.6 242.235,272.995 245.762,269.433 245.762,268.532 		"/>
	</g>
	<g>
		<path fill="#DDE8EE" d="M306.865,309.511c0,0,0,0,0.637,0.612c0.638,0.608,0.099,1.505,0.099,1.505s0,0,2.645-0.795
			c1.378-0.415,2.589-1.053,3.434-1.568c0.282-0.053,0.586-0.109,0.893-0.166c-0.348,0.258-0.647,0.488-0.804,0.643
			c-0.476,0.467-0.114,0.399-0.114,0.399l0.169-0.01l1.202-0.056c-4.192,3.459-11.028,9.057-12.231,9.95
			c-1.709,1.269-1.709,1.269-1.709,1.269l2.502,0.054c-1.168,1.005-2.131,1.851-2.592,2.319c-1.473,1.506-2.344,2.77-2.344,2.77
			c0.918,0.564,3.22,2.674,2.343,3.607c-0.521,0.555-2.186,1.922-3.894,3.25c-1.206-0.059-10.019,7.063-9.076,6.938
			c0.941-0.126,2.419-0.525,3.631-0.688c1.211-0.16,2.39-0.498,2.39-0.498s0.483-0.111,0.751-0.35s0.673-0.689,0.673-0.689
			s-0.065,0.049-0.192,0.124c0.164-0.136,0.397-0.341,0.733-0.648c0.644-0.589,1.595,0.55,2.255,0.145
			c2.75-1.625,14.365-10.315,14.302-10.52c1.515-0.116,2.513-0.224,2.513-0.224c0.166-0.184,0.475-0.54,0.861-0.992
			c0.143-0.012,0.248-0.018,0.313-0.021c1.189-0.035,2.738-0.179,2.967-0.381c0.197-0.176,3.266-3.803,4.322-4.871
			c0.865-0.877,3.363-3.572,4.833-5.082c0.868,0.16,1.769,0.236,2.614,0.144c0,0,2.269-0.706,3.797-1.874
			c0.598-0.395,1.215-0.851,1.756-1.334c1.226-1.09,1.611-1.816,2.488-2.503s4.614-3.253,5.085-3.863
			c0.472-0.611-1.147-1.177-1.147-1.177l-0.006,0.004c0.344-0.726,0.338-0.631-0.581-1.32c-0.313-0.234-0.617-0.565-0.888-0.904
			c0.817-0.907,3.41-2.563,3.924-3.395c0.488-0.79-0.432-1.625-1.035-2.06c0.336-0.253,0.676-0.579,0.949-1.052
			c0.461-0.793,0.057-1.006-0.331-1.363c-0.387-0.355-1.674-0.93-3.144-1.086c-1.471-0.154-3.982,0.361-5.074,0.634
			s-3.241,1.614-3.538,1.878c-0.297,0.266-0.668,0.596-0.668,0.596l-0.26,0.23l-1.052,0.854l-0.126,0.303c0,0-0.44,0.18-0.815,0.451
			c-0.316,0.229-0.219,0.292-0.447,0.623c-0.311,0.002-0.599,0.02-0.784,0.07c-0.616,0.166-1.371,0.393-2.356,1.143
			c-0.984,0.751-4.031,2.957-4.637,3.305s-1.313,0.724-2.1,1.49c-0.293,0.283-0.506,0.55-0.693,0.805l-2.93,0.957
			c0,0,0.029,0.006,0.068,0.02c-0.939,0.252-1.728,0.457-2.027,0.533l-0.722-1.097l-1.962,1.211l0.165-0.311
			c0,0-0.044-0.183-0.349-0.263c-0.305-0.078-0.719,0.194-0.914,0.305c-0.195,0.111-0.292,0.355-0.292,0.355l-0.454-0.072
			c0,0-0.285,0.03-0.621,0.074c-0.337,0.045-0.225,0.487-0.225,0.487s-0.359,0.099-0.648,0.163
			c-0.289,0.068-0.329,0.389-0.329,0.389s0,0-0.173,0.059c-0.172,0.059-0.479,0.269-0.479,0.269s0.003,0.042,0.021,0.105
			L306.865,309.511z M340.184,299.825l-0.066,0.277c-0.012-0.086-0.025-0.17-0.039-0.245c0.004-0.002,0.007-0.003,0.012-0.005
			C340.121,299.845,340.152,299.834,340.184,299.825z M340.824,301.007c0.289-0.358,0.119-0.475-0.018-0.711
			c-0.189-0.328-0.39-0.459-0.506-0.509c1.271-0.416,2.119-0.927,2.675-1.374c-0.147,0.313-0.286,0.67-0.392,1.065
			C342.497,299.8,341.666,300.433,340.824,301.007z M310.408,308.308l-0.347,0.118l0.456-0.386
			C310.518,308.04,310.469,308.169,310.408,308.308z"/>
		<g>
			<path fill="#1A1918" d="M297.5,331.78c0,0,0.619,0.536,1.049,1.259c0.432,0.723,0.281,2.043-0.303,2.225
				c-0.879,0.273-1.189,0.41-2.438,0.117c-0.888-0.209-1.238-0.111-2.103-0.276c-0.865-0.165-1.637-0.157-2.748-0.136
				c-1.109,0.021-1.169,0.555-2.426,0.625c-1.255,0.07-3.766-0.32-3.766-0.32s-0.808-0.551-1.075-0.994
				c-0.131-0.215-0.214-0.516-0.118-0.77c0.248-0.65,0.756-0.588,1.58-0.818c0.826-0.23,2.453-0.592,3.534-1.07
				c0.829-0.369-0.227,1.74,0.817,2.002c2.709,0.684,5.117-0.107,6.496-0.459C297.746,332.721,297.83,332.611,297.5,331.78z"/>
			<path fill="#1A1918" d="M287.684,342.533l-1.152-1.613c0,0-0.941-0.77-1.114-0.883c-0.173-0.116-2.228,1.189-2.804,1.65
				c-0.414,0.332-1.572,1.482-1.859,1.654c-0.289,0.174-0.576,0.809,0.172,1.555c0.749,0.75,5.029-0.061,6.008-0.176
				c0.979-0.115,1.656-0.689,2.362-1.152c0.754-0.493,1.872-1.383,2.88-1.957c0.98-0.559,1.787-1.283,1.787-1.283
				s0.416-0.402,0.416-0.92c0-0.52-0.101-1.484-0.101-1.484s-0.144,1.383-1.411,2.248
				C291.951,340.795,288.662,342.705,287.684,342.533z"/>
			<path fill="#3B4142" d="M296.29,250.04c0,0,2.449-0.35,4.023,1.05s2.035,1.903,2.102,5.426c0.064,3.343,0.926,4.109,0.393,4.287
				c-0.787,0.263-3.412,0.656-3.412,0.656s-0.83-0.569-1.18-2.318c-0.352-1.751,0.086-3.566,0.26-4.966
				c0.258-2.058-1.252-2.456-2.1-2.625C295.503,251.374,296.29,250.04,296.29,250.04z"/>
			<path fill="#FFFFFF" d="M283.68,259.211c0,0,13.764-9.707,22.514,4.168c0,0,1.5,0.625,0.625,2.75s-7.875,0.75-7.875,0.75
				S280.43,262.961,283.68,259.211z"/>
			<path fill="#D3AA76" d="M298.494,312.857c0,0,1.584,5.473,0.576,8.354c-0.435,1.238-1.098,4.588-1.873,6.768
				c-0.768,2.159,0.808,4.435,0.808,4.795c0,0.359-0.851,1.541-2.722,1.613c-1.872,0.072-4.022-0.072-5.398-0.091
				c-3.547-0.052-2.597-1.491,0.14-3.507c7.188-5.297,2.968-16.736,2.839-15.959L298.494,312.857z"/>
			<path fill="#E8BA80" d="M287.727,343.318c0,0-3.889-2.281-2.736-3.072c1.152-0.793,4.847-3.576,5.199-5.212
				c0.529-2.448,0.816-17.231,0.287-21.997c-0.486-4.37,5.794-0.871,5.794-0.871l1.441,0.439c0,0,0,1.547,0.216,2.053
				c0.216,0.503,1.422,3.379-0.874,11.447c-0.604,2.124-2.896,5.357-2.823,10.684c0.027,2.018-0.072,2.018-0.072,2.018
				s-0.072,0.936-0.576,1.223c-0.504,0.289-0.215,0.434-1.367,1.08C291.063,341.758,287.727,343.318,287.727,343.318z"/>
			<path fill="#7498AB" d="M301.455,312.55c0,0-11.855,5.017-17.041,1.775c0,0-0.551-2.663-0.768-5.903
				c-0.216-3.24,0.432-14.977-0.096-19.633c-0.425-3.749,7.173,1.975,9.766,1.975c2.592,0,6.479,9.072,6.479,9.072
				S301.263,310.629,301.455,312.55z"/>
			<path fill="#FFFFFF" d="M282.818,259.754c0,0,3.875-4.875,11.5-2.75s-2.875,5.875-2.875,5.875l-6.75,0.375L282.818,259.754z"/>
			<path fill="#7498AB" d="M283.599,276.5c-0.216-5.399-1.3-9.498,0.644-11.875c0.852-1.041,1.658-1.512,2.295-1.713
				c0.019-0.071,0.039-0.142,0.061-0.211c0.361-1.08,0.721-3.885,0.721-3.885s3.515-2.254,3.875-1.75
				c0.36,0.505,4.91-2.718,4.91-2.718s0.359,0.024,1.223,0.984c0.55,0.61,0.912,0.769,0.864,2.496
				c1.317,0.123,0.958,4.419,0.958,4.419l-9.938,29.811c0,0-3.888-0.648-6.265-3.023C282.946,289.035,283.814,281.902,283.599,276.5
				z"/>
			<path fill="#E8BA80" d="M282.014,279.211c-0.215,0-7.333,0-7.333,0l-0.833-3.667c0,0,3.666-0.999,5.833-1.833L282.014,279.211z"
				/>
			<path fill="#FFFFFF" d="M287.068,258.629c0,0-0.567-0.932-1-0.5c-0.432,0.431-3.106,0.595-3.25,2.25
				c-0.297,3.425-0.589,6.025-0.324,5.059c0.216-0.793-0.504,1.655-0.432,3.311c0.072,1.658,0.576,2.953,0.576,4.321
				s-1.008,24.983-1.297,27.793c-0.287,2.808-0.287,2.808-0.287,2.808l2.668-0.307c0,0,0.068-10.71,0.068-12.222
				s0.096-11.063,0.24-13.585c0.144-2.52-0.352-4.561-0.137-6.145c0.217-1.584,4.936-11.664,4.864-12.311
				C288.687,258.453,287.068,258.629,287.068,258.629z"/>
			<path fill="#FFFFFF" d="M298.094,257.252c0,0,2.761,3.146,4.561,4.441c1.801,1.296,1.584,1.008,2.16,2.808
				s-0.72,5.399-1.008,7.488s-1.955,11.817-1.883,14.05s0.828,10.331,0.972,12.635c0.144,2.305,1.151,10.035,1.151,10.42
				c0,0.442-1.398,0.98-2.555,1.244c-0.604,0.138-4.506,1.955-9.905,2.1c-3.024,0.08-4.423-0.094-4.458-0.48
				c-0.109-1.188-0.098-2.383,0.189-5.408c0.289-3.023,0.032-32.4,0.896-34.707c0.864-2.303,2.266-6.584,4.359-8.205
				C298.623,258.957,298.094,257.252,298.094,257.252z"/>
			<path fill="#E8BA80" d="M298.398,284.295c0,0-4.321-5.914-4.773-6.082c-0.453-0.169-0.334-0.072-0.76-0.679
				c-0.427-0.606-0.609-0.624-0.919-0.809s-0.657-0.276-0.913-0.409c-1.148-0.602-1.178-1.215-1.895-1.824
				c-0.279-0.24,0.023-0.801,0.023-0.801s-0.301-0.113-0.563-0.52c-0.26-0.406-0.045-0.43,0.004-0.652
				c0.048-0.222,0.066-0.73,0.583-0.641s0.811,0.131,0.811,0.131l-1.437-0.572c0,0-0.879-0.232-0.684-0.65
				c0.176-0.381,0.664-0.215,1.467-0.156c0.803,0.061,1.816,0.061,2.657,0.479c0.841,0.416,1.024,0.434,1.556,0.666
				c0.531,0.234,0.88,0.45,0.861,0.959c-0.018,0.51,0.134,1.252,0.188,1.754c0.053,0.5,0.707,1.15,1.191,1.684
				c1.23,1.354,5.156,4.23,5.156,4.23S301.152,283.641,298.398,284.295z"/>
			<path fill="#FFFFFF" d="M304.732,264.225c0,0,2.268,0.863,2.483,2.16c0.216,1.295-0.648,7.019-0.756,8.53
				c-0.108,1.512,0.323,3.023,0.323,5.399c0,2.377-0.539,4.535-0.972,5.508c-0.432,0.973-1.776,2.355-3.829,1.6
				c-2.052-0.756-2.975-2.139-3.945-3.111c-0.973-0.973,2.482-2.051,2.807-4.86c0.324-2.806,0.756-7.665,0.756-7.665
				L304.732,264.225z"/>
			<path fill="#FFFFFF" d="M271.181,277.044l-1.5-4.166l4.667,0.833c0,0,1.733,3.668,2,6.333c0.166,1.667,0.666,2.834,0.666,2.834
				s-1.834,1.281-3.166,0.166c-0.461-0.387,2.377,1.369-1.167-0.333L271.181,277.044z"/>
			<path fill="#FFFFFF" d="M302.295,279.621l-3.816-2.232l-2.951,5.545l0.143,2.447c0,0,6.337,3.456,9.145,2.232
				c0,0,1.872-2.232,1.729-5.328C306.398,279.189,302.295,279.621,302.295,279.621z"/>
			<polyline fill="#7498AB" points="296.895,259.029 293.727,263.926 292.719,262.486 			"/>
			<g>
				<path fill="#E8BA80" d="M290.472,255.858c0.393,0.394,0.787,0.262,0.656,1.313c-0.133,1.05-1.391,4.258-1.391,4.258
					s6.136-2.104,6.771-5.046l0.307-8.531C296.815,247.852,290.077,255.464,290.472,255.858z"/>
			</g>
			<path fill="#E8BA80" d="M271.547,275.629l0.536,0.9l0.875,1.332c0,0,0.087,0.611-0.305,0.676
				c-0.392,0.068-0.656-0.086-0.809-0.379c-0.152-0.296-0.635-0.988-0.635-0.988l0.308,1.297c0,0,1.164,0.177,1.402,0.373
				c0.238,0.197,0.354,0.354,0.324,0.658c-0.032,0.308-0.432,0.34-0.432,0.34s0.533,0.044,0.537,0.341
				c0.004,0.298-0.212,0.466-0.212,0.466s0.308,0.179,0.162,0.33c-0.146,0.15-0.782,0.281-0.782,0.281s-0.865-0.029-1.365-0.232
				c-0.5-0.204-0.952-0.643-0.952-0.643s-0.051-0.471,0.017-0.637c0.067-0.168,0.067-0.168,0.067-0.168s-0.479-0.544-0.316-0.773
				c0.162-0.229,0.342-0.537,0.342-0.537s-0.813-0.68-0.571-0.891c0.241-0.213,0.457-0.382,0.457-0.382l0.54-0.069
				c0,0-0.303-0.439-0.299-0.703c0.006-0.262-0.046-0.88,0.363-0.878C271.211,275.346,271.547,275.629,271.547,275.629z"/>
			<g>
				<path fill="#1A1918" d="M299.438,246.583c0,0,1.08,3.24-1.008,5.689c-2.088,2.447-0.072-4.609-0.072-4.609L299.438,246.583z"/>
				<path fill="#E8BA80" d="M287.533,247.087l-0.144,2.809c0,0-0.124,1.051-0.096,1.656c0.033,0.697,0.12,0.625,0.265,1.367
					c0.146,0.762,0.359,1.129,0.504,1.561c0.143,0.432,0.635,2.864,0.894,3.056c0.552,0.408,0.912,0.48,1.921,0.119
					c1.007-0.359,2.513-0.991,3.137-1.278c0.603-0.279,1.561-0.816,2.064-1.967c0.504-1.154,0.768-1.418,0.768-1.418h0.359
					c0,0,0.289,0.648,0.865-0.504c0.575-1.152,1.655-2.521,0.504-3.24c-1.152-0.721-3.672-2.881-3.672-2.881l-3.744-1.654
					L287.533,247.087z"/>
				<path fill="#1A1918" d="M299.078,249.319c0,0-1.608-0.24-1.896,0.336s-0.912,1.512-0.912,1.512s-0.072-0.768-0.359-1.127
					c-0.288-0.359-0.773-0.102-1.225-0.648c-0.336-0.408-0.312-0.145-0.527-1.297c-0.174-0.922-0.912-0.791-0.912-0.791
					l-1.801,0.576c0,0-1.008,0.359-2.16,0.504c-1.151,0.143-1.799-0.313-1.799-0.313v-0.553c0,0,0-0.721,0-1.295
					c0-0.576,0.647-3.6,1.439-4.32s2.543-1.754,4.201-1.749c2.226,0.007,3.791,0.669,4.582,1.317
					c0.793,0.648,1.441,1.008,1.873,2.664s0.215,2.52,0.072,3.24C299.51,248.095,299.078,249.319,299.078,249.319z"/>
			</g>
			<path fill="#FFFFFF" d="M283.514,282.545l0.667-2.5l-0.833-10l-7.167,4.167c0,0,1.237,1.704,1.333,2.666
				c0.096,0.959,0.617,2.658,0.666,3.667c0.048,1.009,4.834-0.501,4.834-0.501"/>
			<path fill="#FFFFFF" d="M284.514,260.711c0,0-3.606,7.948-4.303,13.058c-0.697,5.109,1.137,1.942,1.137,1.942l2.166-5.833
				L284.514,260.711z"/>
		</g>
	</g>
	<g>
		<path fill="#94B5C4" d="M600.824,245.758c0,7.11-5.765,12.874-12.875,12.874s-12.875-5.764-12.875-12.874
			s5.765-12.874,12.875-12.874S600.824,238.648,600.824,245.758"/>
		<polygon fill="#FFFFFF" points="593.227,236.81 593.227,239.988 596.75,239.988 		"/>
		<g>
			<polygon fill="#FFFFFF" points="586.343,247.366 588.586,247.366 589.023,245.137 586.781,245.137 			"/>
			<path fill="#FFFFFF" d="M592.342,240.923v-4.151h-13.039v17.798h17.798v-13.646H592.342z M592.25,245.568h-0.232
				c-0.014-0.159-0.052-0.271-0.113-0.335s-0.16-0.096-0.297-0.096h-1.142l-0.431,2.229h1.135c0.141,0,0.255-0.031,0.342-0.096
				c0.086-0.064,0.166-0.176,0.239-0.335h0.219l-0.438,2.324H591.3c-0.014-0.165-0.05-0.279-0.11-0.345
				c-0.059-0.066-0.158-0.1-0.3-0.1h-1.135l-0.267,1.374c-0.004,0.022-0.006,0.06-0.006,0.109c0,0.114,0.021,0.196,0.067,0.246
				c0.045,0.05,0.14,0.099,0.28,0.144l-0.049,0.232h-2.323l0.048-0.232c0.173-0.051,0.298-0.11,0.376-0.182
				c0.078-0.07,0.13-0.176,0.157-0.317l0.267-1.374h-2.241l-0.268,1.374c-0.004,0.022-0.007,0.06-0.007,0.109
				c0,0.114,0.022,0.196,0.067,0.246c0.047,0.05,0.141,0.099,0.281,0.144l-0.041,0.232h-2.324l0.041-0.232
				c0.178-0.051,0.306-0.11,0.383-0.182c0.078-0.07,0.13-0.176,0.158-0.317l0.268-1.374h-1.143c-0.138,0-0.25,0.033-0.336,0.1
				c-0.086,0.065-0.168,0.18-0.246,0.345h-0.232l0.451-2.324h0.232c0.014,0.164,0.051,0.276,0.109,0.339
				c0.059,0.061,0.16,0.092,0.301,0.092h1.145l0.434-2.229h-1.135c-0.141,0-0.254,0.031-0.338,0.092
				c-0.086,0.063-0.166,0.175-0.243,0.339h-0.232l0.451-2.331h0.231c0.015,0.168,0.051,0.286,0.111,0.352
				c0.059,0.066,0.158,0.1,0.299,0.1h1.145l0.261-1.379c0.009-0.027,0.015-0.066,0.015-0.117c0-0.109-0.024-0.19-0.072-0.243
				c-0.049-0.053-0.141-0.097-0.277-0.134l0.041-0.219h2.314l-0.049,0.219c-0.168,0.041-0.291,0.1-0.371,0.175
				s-0.133,0.183-0.161,0.319l-0.267,1.379h2.243l0.267-1.379c0.004-0.027,0.007-0.066,0.007-0.117c0-0.109-0.024-0.19-0.072-0.243
				c-0.047-0.053-0.14-0.097-0.276-0.134l0.041-0.219h2.324l-0.041,0.219c-0.174,0.041-0.3,0.1-0.38,0.175
				c-0.079,0.075-0.133,0.183-0.16,0.319l-0.26,1.379h1.135c0.142,0,0.255-0.034,0.343-0.103c0.086-0.068,0.166-0.185,0.238-0.349
				h0.219L592.25,245.568z"/>
		</g>
	</g>
	<g>
		<path fill="#94B5C4" d="M600.824,214.089c0,7.11-5.765,12.874-12.875,12.874s-12.875-5.764-12.875-12.874
			s5.765-12.874,12.875-12.874S600.824,206.979,600.824,214.089"/>
		<path fill="#FFFFFF" d="M587.945,205.08c-5.092,0-9.218,4.126-9.218,9.219c0,5.091,4.126,9.22,9.218,9.22
			c5.093,0,9.22-4.129,9.22-9.22C597.165,209.206,593.038,205.08,587.945,205.08z M592.917,211.546l-3.687,3.688
			c-0.195,0.195-0.451,0.293-0.707,0.293s-0.512-0.098-0.707-0.293l-4.841-4.839c-0.391-0.391-0.391-1.023,0-1.414
			c0.39-0.391,1.023-0.391,1.414,0l4.134,4.132l2.979-2.98c0.391-0.391,1.023-0.391,1.414,0S593.308,211.155,592.917,211.546z"/>
	</g>
	<g>
		<path fill="#94B5C4" d="M598.604,331.847c0,1.607-1.305,2.912-2.911,2.912h-13.218c-1.607,0-2.911-1.305-2.911-2.912v-28.286
			c0-1.608,1.304-2.91,2.911-2.91h13.218c1.606,0,2.911,1.302,2.911,2.91V331.847z"/>
		<path fill="#FFFFFF" d="M590.453,331.671c0,0.69-0.56,1.25-1.25,1.25c-0.689,0-1.25-0.56-1.25-1.25s0.561-1.25,1.25-1.25
			C589.894,330.421,590.453,330.98,590.453,331.671"/>
		<rect x="586.449" y="304.046" fill="#FFFFFF" width="5" height="0.375"/>
		<path fill="#FFFFFF" d="M581.698,305.419v23.002h15.25v-23.002H581.698z M594.441,313.544l-4.797,7.901
			c-0.188,0.307-0.281,0.505-0.281,0.593c0,0.156,0.146,0.284,0.438,0.383v0.25h-3.82v-0.25c0.224-0.063,0.41-0.161,0.559-0.297
			s0.321-0.362,0.52-0.68l4.77-7.68h-6.652c-0.16,0-0.283,0.036-0.367,0.107s-0.151,0.202-0.203,0.393h-0.25v-2.758h0.25
			c0.053,0.189,0.119,0.32,0.203,0.393c0.084,0.071,0.207,0.107,0.367,0.107h8.444c0.162,0,0.285-0.036,0.368-0.107
			c0.083-0.072,0.15-0.203,0.203-0.393h0.25V313.544z"/>
	</g>
	<g>
		<path fill="#94B5C4" d="M600.824,277.427c0,7.11-5.765,12.874-12.875,12.874s-12.875-5.764-12.875-12.874
			s5.765-12.874,12.875-12.874S600.824,270.316,600.824,277.427"/>
		<g>
			<path fill="#FFFFFF" d="M588.303,277.045c0,1.076,0.873,1.949,1.951,1.949h0.018v-3.896h-0.018
				C589.176,275.098,588.303,275.968,588.303,277.045z"/>
			<path fill="#FFFFFF" d="M587.945,268.085c-5.092,0-9.218,4.126-9.218,9.219c0,5.091,4.126,9.22,9.218,9.22
				s9.219-4.129,9.219-9.22C597.164,272.211,593.037,268.085,587.945,268.085z M590.479,270.951
				c0.094-0.189,0.322-0.268,0.513-0.175c0.19,0.095,0.267,0.324,0.173,0.514l-0.445,0.905l-0.688-0.34L590.479,270.951z
				 M587.421,270.327c0.002-0.211,0.175-0.381,0.388-0.379c0.211,0.001,0.381,0.174,0.379,0.386l-0.008,1.009l-0.766-0.006
				L587.421,270.327z M584.706,270.76c0.188-0.095,0.419-0.017,0.513,0.173l0.447,0.906l-0.688,0.339l-0.447-0.905
				C584.438,271.082,584.516,270.853,584.706,270.76z M584.064,275.938c0,0,0.418-3.285,3.702-3.285
				c3.286,0,3.702,3.285,3.702,3.285v4.339h-7.404V275.938z M582.21,273.232c0.097-0.189,0.327-0.265,0.515-0.169l0.901,0.456
				l-0.345,0.683l-0.902-0.455C582.189,273.652,582.115,273.421,582.21,273.232z M592.977,282.451c0,0.165-0.135,0.3-0.301,0.3
				h-9.672c-0.166,0-0.301-0.135-0.301-0.3v-0.479c0-0.167,0.135-0.302,0.301-0.302h0.57v-0.043
				c-0.131-0.032-0.236-0.133-0.236-0.273v-0.379c0-0.166,0.135-0.301,0.301-0.301h8.328c0.166,0,0.301,0.135,0.301,0.301v0.379
				c0,0.148-0.114,0.258-0.256,0.282v0.034h0.664c0.166,0,0.301,0.135,0.301,0.302V282.451z M593.205,273.747l-0.9,0.455
				l-0.346-0.683l0.9-0.456c0.188-0.096,0.42-0.021,0.515,0.169C593.469,273.421,593.395,273.652,593.205,273.747z"/>
			<path fill="#FFFFFF" d="M585.334,275.098h-0.018v3.896h0.018c1.078,0,1.949-0.873,1.949-1.949
				C587.283,275.968,586.412,275.098,585.334,275.098z"/>
		</g>
	</g>
	<g>
		<path fill="#94B5C4" d="M542.031,365.908c0,7.11-5.764,12.874-12.875,12.874c-7.109,0-12.873-5.764-12.873-12.874
			s5.764-12.874,12.873-12.874C536.268,353.034,542.031,358.798,542.031,365.908"/>
		<g>
			<path fill="#FFFFFF" d="M526.447,353.768c1.912,0,3.825,0,5.737,0c1.29-0.057,0.776,2.219,1.048,3.145
				c0.129,0.44,0.426,1.114,0.748,1.446c0.221,0.228,0.553,0.288,0.749,0.448c0.673,0.559,1.017,1.407,0.947,2.795
				c0.935,0.112,0.869,2.867,0,2.992c0,0.532,0,1.064,0,1.598c0.757,0.045,0.599,1.021,0.599,2.096c0,1.086,0.144,1.807-0.599,1.996
				c0.088,1.666-0.563,2.598-1.647,3.094c-0.484,0.727-0.895,1.557-0.947,2.793c-0.031,0.752,0.111,1.525-0.498,1.745
				c-0.82,0.299-2.073,0.051-3.094,0.051c-1.07,0-2.106-0.042-3.093,0.048c-0.017,0-0.034,0-0.052,0
				c-1.184-0.053-0.622-1.822-0.947-3.041c-0.195-0.738-0.553-1.023-0.748-1.498c-0.826-0.395-1.695-1.021-1.846-2.244
				c-0.168-1.359,0-3.363,0-5.389c0-2.484-0.371-5.467,0.548-6.637c0.315-0.398,0.889-0.674,1.298-0.898
				c0.215-0.455,0.506-0.732,0.699-1.395C525.738,355.577,525.078,353.816,526.447,353.768z M523.902,363.047
				c0,1.799,0,3.961,0,5.789c0,0.791-0.124,2.221,0.15,2.793c0.604,1.262,3.318,0.85,5.188,0.85c0.664,0,1.488,0,2.246,0
				c0.699,0,1.67,0.105,2.195-0.102c1.157-0.453,0.996-1.918,0.996-3.643c0-2.371,0-3.85,0-6.137c0-0.963,0.069-2.236-0.348-2.742
				c-0.646-0.789-2.586-0.549-4.289-0.549c-1.567,0-3.516-0.223-4.892,0.049C523.575,359.668,523.902,361.506,523.902,363.047z"/>
		</g>
	</g>
	<path fill="#798494" d="M477.202,329.844c-4.141,1.513-1.809,3.897-0.205,5.502c2.199,2.2,6.616,7.581,9.704,6.739
		c2.372-0.646,5.093-1.834,7.493-3.234s12.809-6.407,12.809-6.407s11.801,0.6,20.2-1c0,0-0.8,5.399,6.199,4.199
		c7-1.199,21.401-4,33.001-18.399c0,0,3-5.4-3.4-4.4C555.869,313.957,553.144,302.101,477.202,329.844z"/>
	<path fill="#798494" d="M507.853,317.992c0.099,0.663-17.897,16.291,4.6,11.1c3.25-0.75,7.85,0.45,13.25-1.25
		c1.474-0.464,2.701,7.4,5.551,6.8c2.85-0.6,8.699-5.699,9.6-8.699s-1.5-22.051-1.35-27.75c0.15-5.7-3.75-20.101-9.6-20.551
		c-5.851-0.449-5.4,1.5-9.75,5.4C515.803,286.942,506.053,305.842,507.853,317.992z"/>
	<path fill="#7D7F7D" d="M519.974,301.246c-0.197-0.936-1.64-2.028-4.171-2.704c-5.083-1.355-12.601-12-12.601-12
		s-5,0.4-7.799,0.601c-2.801,0.2-9.801,1.2-12.601,6.8c-1.444,2.89-3.2,10.2-3,14.2c0.2,3.999-0.2,9.2-1.6,12
		c-1.4,2.8-4.8,9.6-3.2,11.399c1.6,1.801,9,9,10.8,9s20.8-10.199,20.8-10.199s4.65-17.352,12.051-26.751"/>
	<path fill="#94B5C4" stroke="#94B5C4" stroke-miterlimit="10" d="M515.803,298.542c-5.083-1.355-12.601-12-12.601-12
		s-5,0.4-7.799,0.601c-2.801,0.2-9.801,1.2-12.601,6.8c-0.052,0.102-0.103,0.221-0.155,0.334c-0.6,1.402-2.443,6.914,4.154,9.865
		c7.602,3.4,11.602,4.601,11.602,4.601s3.391,0.409,1.4,5.8c-4.102,11.1-14.001,26-14.001,26c1.8,0,20.8-10.199,20.8-10.199
		s6.801-17.751,12.051-26.751c0,0,0.996-1.221,1.421-2.196c0.026-0.062,0.009-0.135,0.003-0.203
		C520.001,300.3,518.132,299.163,515.803,298.542z"/>
	<linearGradient id="SVGID_1_" gradientUnits="userSpaceOnUse" x1="499.251" y1="329.1533" x2="514.2512" y2="293.153">
		<stop  offset="0" style="stop-color:#FFFFFF"/>
		<stop  offset="1" style="stop-color:#94B5C4"/>
	</linearGradient>
	<path fill="url(#SVGID_1_)" d="M499.778,314.542c-4.1,11.1-14,26-14,26c1.8,0,20.799-10.199,20.799-10.199
		s7.125-18.126,12.051-26.751L499.778,314.542z"/>
	<path fill="#2A2A23" stroke="#94B5C4" stroke-linecap="round" stroke-linejoin="round" stroke-miterlimit="10" d="M487.9,298.248
		c0,0-2.502,3.295,4.07,6.027l14.6-5.4l-7.994-7.049C498.576,291.826,494.322,291.492,487.9,298.248z"/>
	<path fill="#798494" d="M490.929,303.941c-7.393-2.099-5.488-6.026-5.488-6.026c3.17-6.339,11.721-5.547,11.721-5.547l2.168,4.773
		c0,0-9.507,0.866-6.293,6.284C493.624,304.417,490.929,303.941,490.929,303.941z"/>
	<path fill="#FFFFFF" stroke="#94B5C4" stroke-miterlimit="10" d="M541.202,267.142c0,0-9.799,20-12.4,22.2c0,0-0.398,1.001-0.6,3
		c-0.199,2,1.201,40,1.801,41.4s5,0.399,7.8-0.2s18.8-4.6,28.399-19.4c0,0-2.6-10.999-2.199-16c0.4-5,13.4-83.199,4.6-105.799
		c0,0-20.4,14.399-24.6,19.199c-4.2,4.801-3.6,20.6-3.6,24.601C540.403,240.142,541.202,267.142,541.202,267.142z"/>
	<path fill="#94B5C4" d="M525.928,329.542c0,0,2.476-0.8,1.675-4.8c-0.707-3.533-0.475-23.101-0.324-24.75
		c0.149-1.65-0.301-5.101-2.851-2.4s-12.325,20.351-15.024,30.55c0,0-0.75,2.951,1.8,2.801S523.978,329.992,525.928,329.542z"/>
	<polygon fill="#94B5C4" stroke="#94B5C4" stroke-miterlimit="10" points="504.864,299.711 492.012,304.483 497.536,306.133 
		507.036,301.883 506.458,300.102 	"/>
	<path fill="#FFFFFF" stroke="#94B5C4" stroke-miterlimit="10" d="M491.173,230.555c0,0,24.95-11.338,37.751-11.338
		c12.799,0,16.999-0.402,17.799,2.598c0.186,0.697,2.4,9.002,2.4,9.002c4.801,24-6.399,36.6-8.399,39.6
		c-1.999,3-20.853,31.015-20.853,31.015c-16-1-23.747-5.215-25.547-6.615c-1.801-1.4-2-3.6-2.4-7.199s2-35.201,1.801-42
		c-0.201-6.8-2.801-15.399-2.801-15.399"/>
	<path fill="none" stroke="#94B5C4" stroke-width="0.5" stroke-miterlimit="10" d="M494.353,233.542c0,0,6,6.9,4.801,17.25
		c-1.201,10.35-6.601,33.3-3.301,45.15"/>
	<linearGradient id="SVGID_2_" gradientUnits="userSpaceOnUse" x1="490.5889" y1="210.9521" x2="569.627" y2="210.9521">
		<stop  offset="0" style="stop-color:#FFFFFF"/>
		<stop  offset="1" style="stop-color:#94B5C4"/>
	</linearGradient>
	<path fill="url(#SVGID_2_)" stroke="#94B5C4" stroke-miterlimit="10" d="M568.964,191.222c3.961,8.523-10.225,24.265-31.684,35.16
		c-21.462,10.896-42.068,12.82-46.028,4.299c-3.96-8.52,10.226-24.263,31.685-35.159
		C544.399,184.628,565.004,182.701,568.964,191.222z"/>
	<linearGradient id="SVGID_3_" gradientUnits="userSpaceOnUse" x1="545.0791" y1="213.0635" x2="498.7463" y2="206.397">
		<stop  offset="0" style="stop-color:#FFFFFF"/>
		<stop  offset="1" style="stop-color:#94B5C4"/>
	</linearGradient>
	<path fill="url(#SVGID_3_)" stroke="#94B5C4" stroke-miterlimit="10" d="M565.917,192.658c3.287,7.113-10.176,21.038-30.072,31.099
		c-19.896,10.062-38.689,12.453-41.977,5.34c-3.287-7.111,10.176-21.036,30.072-31.098S562.63,185.546,565.917,192.658z"/>
	<path fill="#FFFFFF" stroke="#94B5C4" stroke-miterlimit="10" d="M485.803,340.542c-1.796,0-9.205-7.2-10.8-9
		c-1.6-1.8,1.8-8.6,3.2-11.399c1.399-2.8,1.8-8.001,1.6-12c-0.2-4,1.556-11.311,3-14.2c0,0-3.601,6.8,3.999,10.199
		c7.602,3.4,11.602,4.601,11.602,4.601s3.391,0.409,1.4,5.8C495.702,325.642,485.803,340.542,485.803,340.542z"/>
	<g>
		<path fill="#94B5C4" d="M543.566,192.269l0.363,0.11l-13.962,9.054l1.197,0.358l-1.692,1.099l-1.562-0.464L543.566,192.269z"/>
		<path fill="#94B5C4" d="M530.979,203.339l1.386-0.927l-0.014-0.004c-0.992,0.539-2,0.987-2.285,0.9
			c-0.408-0.123,0.986-1.224,2.613-2.276c2.715-1.764,4.637-2.6,5.39-2.351l0.234-0.151c0.929-0.602,2.555-1.7,2.144-1.823
			c-0.188-0.055-0.709,0.097-1.361,0.387l1.263-0.9c0.771-0.342,1.407-0.523,1.661-0.449c0.617,0.183-1.578,1.75-3.832,3.212
			l-4.205,2.726c-0.977,0.632-1.92,1.253-2.661,1.757L530.979,203.339z M536.664,199.602c-0.354-0.149-1.205-0.028-3.388,1.387
			c-1.321,0.86-1.795,1.313-1.606,1.369c0.262,0.081,1.359-0.475,2.369-1.073c0.223-0.134,0.465-0.283,0.673-0.417L536.664,199.602z
			"/>
		<path fill="#94B5C4" d="M533.91,202.234c-0.286,0.29-0.512,0.619-0.33,0.672c0.266,0.08,1.135-0.366,2.064-0.966
			c0.976-0.634,1.406-1.012,1.691-1.455c0.361-0.574,1.303-1.347,2.65-2.222c1.812-1.175,3.561-2.061,3.992-1.932
			c0.205,0.06,0.061,0.324-0.199,0.599l-1.579,0.938c0.198-0.204,0.425-0.489,0.237-0.544c-0.217-0.064-1.033,0.353-1.87,0.893
			c-0.928,0.601-1.226,0.908-1.522,1.35c-0.392,0.586-1.19,1.272-2.861,2.356c-1.975,1.282-3.645,2.103-4.123,1.961
			c-0.219-0.067-0.12-0.324,0.203-0.667L533.91,202.234z"/>
		<path fill="#94B5C4" d="M548.432,194.845l-3.228,2.094l0.523,0.156l-1.556,1.009l-0.525-0.157l-6.063,3.934
			c-1.393,0.902-2.113,1.436-1.908,1.497c0.095,0.029,0.235,0.005,0.351-0.026l-1.517,0.999c-0.232,0.083-0.463,0.128-0.605,0.084
			c-0.168-0.051-0.003-0.288,0.467-0.675c0.5-0.423,1.459-1.083,2.783-1.942l6.136-3.978l-0.313-0.093l1.557-1.007l0.311,0.093
			l2.693-1.749L548.432,194.845z"/>
		<path fill="#94B5C4" d="M540.532,203.289c-1.161,0.753-2.181,1.416-3.048,1.993l-0.327-0.098l1.813-1.195l-0.006-0.003
			c-1.004,0.559-2.398,1.263-2.756,1.158c-0.316-0.099,0.276-0.841,4.229-3.403l6.572-4.261l0.367,0.108l-6.226,4.037
			c-2.138,1.387-3.463,2.355-3.13,2.456c0.244,0.071,1.372-0.495,2.343-1.062c0.323-0.191,0.706-0.427,1.08-0.668l6.899-4.475
			l0.365,0.11L540.532,203.289z"/>
		<path fill="#94B5C4" d="M540.115,204.086c-0.287,0.288-0.514,0.616-0.33,0.672c0.266,0.079,1.135-0.366,2.063-0.969
			c0.977-0.633,1.405-1.01,1.694-1.453c0.356-0.574,1.301-1.348,2.647-2.222c1.812-1.175,3.562-2.061,3.994-1.932
			c0.202,0.061,0.058,0.325-0.203,0.6l-1.577,0.938c0.199-0.206,0.424-0.488,0.238-0.545c-0.217-0.064-1.033,0.351-1.871,0.893
			c-0.926,0.603-1.225,0.909-1.521,1.35c-0.393,0.588-1.189,1.274-2.862,2.356c-1.976,1.282-3.642,2.104-4.12,1.962
			c-0.223-0.067-0.123-0.322,0.201-0.666L540.115,204.086z"/>
		<path fill="#94B5C4" d="M545.178,202.606c-2.758,1.794-3.578,2.626-3.211,2.735c0.262,0.081,0.675-0.041,1.138-0.208l-1.405,0.967
			c-0.449,0.172-1.046,0.348-1.365,0.251c-0.619-0.184,1.289-1.772,4.678-3.97c3.391-2.201,6.422-3.827,7.009-3.65
			c0.657,0.196-2.396,2.342-4.465,3.683c-0.417,0.271-0.751,0.479-0.963,0.615L545.178,202.606z M547.715,201.977
			c1.305-0.842,3.226-2.182,2.813-2.306c-0.369-0.11-2.438,1.076-3.881,1.985L547.715,201.977z"/>
		<path fill="#94B5C4" d="M560.04,196.395l-13.587,8.813c-0.999,0.65-2.134,1.388-2.887,1.89l-0.326-0.098l1.93-1.271l-0.006-0.003
			c-1.367,0.779-2.564,1.324-2.895,1.227c-0.486-0.146,1.439-1.75,4.854-3.964c3.732-2.426,6.449-3.794,6.941-3.647
			c0.309,0.092-0.297,0.681-1.109,1.295l0.006,0.003l6.713-4.353L560.04,196.395z M549.849,202.658
			c0.257-0.166,0.601-0.391,0.843-0.563c1.246-0.859,2.115-1.612,1.84-1.694c-0.379-0.113-2.459,1.026-4.947,2.639
			c-2.273,1.475-3.957,2.754-3.562,2.873c0.246,0.073,1.376-0.448,2.977-1.423c0.294-0.175,0.574-0.355,0.898-0.566L549.849,202.658
			z"/>
		<path fill="#94B5C4" d="M553.455,201.16c0.858-0.557,1.566-0.918,1.715-0.874c0.145,0.044-0.365,0.466-1.221,1.024
			c-0.813,0.527-1.535,0.904-1.689,0.857C552.113,202.125,552.643,201.687,553.455,201.16z M545.254,206.479
			c0.861-0.558,1.569-0.916,1.716-0.874c0.145,0.043-0.362,0.464-1.219,1.023c-0.813,0.528-1.536,0.904-1.688,0.858
			C543.916,207.442,544.443,207.006,545.254,206.479z"/>
		<g>
			<path fill="#94B5C4" d="M504.955,213.801l16.832-11.837l0.426,0.137l-7.549,6.302c-1.751,1.458-3.35,2.763-4.929,4.023
				l0.033-0.016c2.21-1.593,4.251-3.035,6.874-4.88l7.043-4.953l0.366,0.118l-16.835,11.839l-0.393-0.127l7.584-6.317
				c1.664-1.386,3.383-2.803,5.058-4.133l-0.042,0.013c-2.1,1.5-4.115,2.926-6.908,4.894l-7.195,5.059L504.955,213.801z"/>
			<path fill="#94B5C4" d="M513.75,210.854c-2.963,2.091-3.847,3.061-3.452,3.188c0.284,0.092,0.728-0.046,1.224-0.243l-1.506,1.128
				c-0.488,0.202-1.126,0.406-1.473,0.292c-0.666-0.214,1.385-2.066,5.029-4.631c3.65-2.563,6.904-4.458,7.535-4.255
				c0.709,0.23-2.573,2.73-4.798,4.295c-0.45,0.317-0.81,0.56-1.038,0.716L513.75,210.854z M516.479,210.119
				c1.401-0.981,3.468-2.543,3.024-2.688c-0.398-0.13-2.619,1.254-4.174,2.316L516.479,210.119z"/>
			<path fill="#94B5C4" d="M522.387,207.029l-2.287,1.928c-0.594,0.5-1.15,0.962-1.756,1.458l0.014,0.005
				c0.798-0.488,1.493-0.901,2.215-1.336l2.877-1.712l0.424,0.138l-6.583,3.873l-5.483,4.637l-0.446-0.144l2.403-2.018
				c0.617-0.52,1.217-1.018,1.865-1.552l-0.008-0.002c-0.797,0.487-1.52,0.918-2.325,1.401l-3.037,1.814l-0.433-0.14l6.938-4.09
				l5.186-4.401L522.387,207.029z"/>
			<path fill="#94B5C4" d="M528.281,205.375l-3.473,2.439l0.565,0.184l-1.674,1.176l-0.563-0.184l-6.52,4.584
				c-1.499,1.056-2.272,1.677-2.054,1.746c0.104,0.035,0.254,0.008,0.379-0.03l-1.631,1.167c-0.25,0.097-0.498,0.146-0.648,0.096
				c-0.184-0.058-0.006-0.335,0.498-0.788c0.538-0.492,1.572-1.26,2.995-2.261l6.594-4.638l-0.335-0.108l1.673-1.175l0.336,0.108
				l2.896-2.04L528.281,205.375z"/>
			<path fill="#94B5C4" d="M515.877,217.336l1.493-1.08l-0.013-0.006c-1.071,0.627-2.152,1.151-2.461,1.049
				c-0.438-0.139,1.061-1.425,2.808-2.655c2.923-2.055,4.987-3.029,5.797-2.741l0.252-0.175c0.997-0.704,2.747-1.985,2.305-2.127
				c-0.202-0.065-0.763,0.113-1.464,0.451l1.36-1.047c0.829-0.399,1.513-0.612,1.785-0.524c0.663,0.21-1.699,2.037-4.122,3.745
				l-4.521,3.178c-1.048,0.737-2.064,1.461-2.861,2.05L515.877,217.336z M521.988,212.979c-0.38-0.173-1.291-0.033-3.639,1.618
				c-1.423,1-1.93,1.531-1.729,1.595c0.282,0.091,1.462-0.553,2.548-1.253c0.24-0.153,0.496-0.327,0.723-0.484L521.988,212.979z"/>
			<path fill="#94B5C4" d="M529.041,209.184l-6.367,4.914c-1.027,0.796-1.97,1.518-2.924,2.237l0.014,0.004
				c1.049-0.688,2.111-1.373,3.28-2.121l7.214-4.642l0.412,0.135l-12.937,8.224l-0.377-0.121l11.265-8.767L529.041,209.184z"/>
			<path fill="#94B5C4" d="M520.135,218.715l1.492-1.081l-0.016-0.006c-1.066,0.629-2.148,1.152-2.457,1.051
				c-0.438-0.141,1.062-1.426,2.809-2.655c2.924-2.056,4.986-3.029,5.795-2.742l0.252-0.176c1.001-0.702,2.748-1.981,2.304-2.127
				c-0.198-0.064-0.759,0.114-1.462,0.45l1.359-1.046c0.828-0.4,1.513-0.614,1.787-0.529c0.662,0.217-1.699,2.042-4.123,3.749
				l-4.52,3.177c-1.051,0.738-2.066,1.462-2.863,2.05L520.135,218.715z M526.248,214.357c-0.381-0.173-1.295-0.035-3.641,1.618
				c-1.424,1-1.931,1.531-1.729,1.597c0.281,0.091,1.461-0.556,2.547-1.255c0.238-0.154,0.498-0.328,0.724-0.484L526.248,214.357z"
				/>
			<path fill="#94B5C4" d="M537.018,208.278c-0.742,0.529-1.443,0.916-1.599,0.867c-0.142-0.046,0.36-0.499,1.11-1.027
				c0.776-0.544,1.479-0.931,1.621-0.884C538.299,207.282,537.791,207.732,537.018,208.278z M521.096,219.024l12.084-8.501
				l0.398,0.128l-12.088,8.5L521.096,219.024z"/>
			<path fill="#94B5C4" d="M539.873,206.894l0.395,0.127l-17.73,12.471l-0.395-0.127L539.873,206.894z"/>
			<path fill="#94B5C4" d="M524.396,220.094l1.493-1.081l-0.013-0.003c-1.07,0.628-2.15,1.15-2.461,1.05
				c-0.438-0.144,1.063-1.428,2.809-2.659c2.923-2.054,4.986-3.027,5.798-2.74l0.25-0.176c0.999-0.701,2.749-1.982,2.304-2.126
				c-0.199-0.065-0.761,0.116-1.46,0.45l1.357-1.045c0.829-0.4,1.514-0.615,1.786-0.526c0.662,0.215-1.699,2.04-4.123,3.743
				l-4.521,3.183c-1.046,0.736-2.063,1.459-2.86,2.047L524.396,220.094z M530.509,215.737c-0.381-0.175-1.29-0.034-3.639,1.618
				c-1.425,1-1.93,1.531-1.73,1.596c0.282,0.09,1.462-0.553,2.548-1.255c0.239-0.153,0.499-0.328,0.725-0.484L530.509,215.737z"/>
			<path fill="#94B5C4" d="M525.34,220.398c0.832-0.575,2.064-1.434,3.137-2.188l14.612-10.277l0.388,0.126l-7.592,5.339
				l0.009,0.005c1.49-0.906,2.612-1.439,2.962-1.326c0.537,0.174-1.58,2.054-5.256,4.634c-4.32,3.04-6.955,4.392-7.438,4.235
				c-0.313-0.1,0.108-0.657,1.545-1.833l-0.013-0.005l-2.015,1.4L525.34,220.398z M530.591,217.123
				c-0.274,0.194-0.54,0.39-0.781,0.569c-1.448,1.094-2.268,1.907-1.983,2c0.412,0.132,2.532-1.106,5.305-3.054
				c2.422-1.704,4.271-3.235,3.852-3.371c-0.268-0.088-1.544,0.552-3.297,1.702c-0.258,0.173-0.572,0.379-0.92,0.627
				L530.591,217.123z"/>
			<path fill="#94B5C4" d="M545.635,208.759l0.395,0.128l-17.73,12.47l-0.396-0.129L545.635,208.759z"/>
			<path fill="#94B5C4" d="M534.824,217.672c-2.963,2.091-3.848,3.063-3.451,3.192c0.281,0.09,0.726-0.048,1.222-0.247l-1.505,1.13
				c-0.489,0.201-1.127,0.406-1.473,0.292c-0.665-0.214,1.384-2.064,5.031-4.63c3.646-2.565,6.902-4.458,7.533-4.255
				c0.708,0.229-2.574,2.73-4.797,4.294c-0.451,0.315-0.811,0.559-1.041,0.716L534.824,217.672z M537.555,216.939
				c1.401-0.983,3.467-2.544,3.024-2.688c-0.399-0.128-2.62,1.255-4.176,2.317L537.555,216.939z"/>
			<path fill="#94B5C4" d="M541.199,215.169c0.924-0.648,1.687-1.069,1.844-1.019c0.155,0.051-0.393,0.542-1.311,1.19
				c-0.871,0.615-1.652,1.058-1.818,1.004C539.758,216.294,540.326,215.786,541.199,215.169z M532.385,221.371
				c0.922-0.65,1.684-1.069,1.841-1.021c0.157,0.052-0.39,0.542-1.308,1.191c-0.875,0.619-1.653,1.058-1.82,1.002
				C530.941,222.496,531.51,221.986,532.385,221.371z"/>
		</g>
	</g>
	<path fill="none" d="M491.253,304.482c-3.011-0.855-4.978-2.145-5.843-3.83c-0.787-1.531-0.342-2.811-0.322-2.864
		c0.736-2.476,3.184-4.276,7.234-5.229l0.17,0.73c-2.679,0.63-5.855,1.923-6.692,4.731c-0.021,0.061-0.358,1.069,0.287,2.307
		c0.763,1.465,2.62,2.651,5.371,3.432l0.2,0.482L491.253,304.482z"/>
	<g>
		<g>
			<path fill="#FFFFFF" stroke="#798494" stroke-width="0.75" stroke-miterlimit="10" d="M488.285,284.033
				c1.403,1.654,0.354,5.936-1.731,6.723l-11.311,4.264c-2.085,0.789-4.917,0.08-6.319-1.576l0,0
				c-1.402-1.654-1.484-6.326,0.604-7.111L488.285,284.033z"/>
			<path fill="#FFFFFF" stroke="#798494" stroke-width="0.75" stroke-miterlimit="10" d="M487.79,283.168
				c1.405,1.656,0.85,3.637-1.236,4.426l-11.311,4.262c-2.085,0.787-4.917,0.082-6.319-1.576l0,0
				c-1.402-1.654-0.85-3.639,1.24-4.424l11.309-4.264C483.559,280.806,486.391,281.512,487.79,283.168L487.79,283.168z"/>
		</g>
		<path fill="none" stroke="#798494" stroke-width="0.5" stroke-miterlimit="10" d="M475.116,284.055c0,0,3.886,0.389,5.828,5.438"
			/>
	</g>
	<path fill="#FFFFFF" d="M497.389,240.375c0.762-0.131,1.896,0.392,1.896,0.392s1.579,13.574-0.796,21.699s-1.25,8.042-1.25,8.042
		s-2.375,0.375-2.25,0s0-4.417,0.75-8.542s1.375-6.125,1.625-9.5S497.389,240.375,497.389,240.375z"/>
	<g>
		<defs>
			<path id="SVGID_4_" d="M494.271,242.677c-0.029,0.116-0.063,14.04-0.873,23.553c0,0,1.186,4.626,1.504,5.118
				s4.049,2.603,5.176,2.313c1.128-0.289,5.234,0.954,7.461-7.605s0.317-16.222-1.359-18.969s-4.189-7.412-10.844-5.523
				L494.271,242.677z"/>
		</defs>
		<clipPath id="SVGID_5_">
			<use xlink:href="#SVGID_4_"  overflow="visible"/>
		</clipPath>
		<g clip-path="url(#SVGID_5_)">
			<g>
				<path fill="#94B5C4" d="M499.879,248.15c-0.267-0.095-0.533-0.211-0.799-0.282c-1.18-0.315-2.227-0.029-3.146,0.837
					c-0.65,0.613-1.179,1.445-1.656,2.368c-0.479,0.927-1.057,1.634-1.813,1.976c-0.287,0.13-0.342,0.731-0.129,1.192
					c0.164,0.357,0.402,0.502,0.656,0.386c0.801-0.367,1.438-1.093,1.972-2.047c0.258-0.461,0.51-0.934,0.786-1.368
					c0.525-0.822,1.142-1.442,1.906-1.683c1.174-0.369,2.363,0.122,3.539,1.211c1.359,1.259,2.255,3.14,2.793,5.442
					c0.144,0.614,0.275,1.241,0.248,1.848c-0.028,0.638-0.068,1.273-0.146,1.88c-0.146,1.121-0.326,2.218-0.482,3.33
					c-0.084,0.598-0.113,1.219-0.043,1.884c0.163,1.533,0.684,2.865,1.305,4.141c0.104,0.216,0.254,0.318,0.407,0.33
					c0.196,0.017,0.335-0.114,0.399-0.397c0.066-0.282,0.016-0.564-0.107-0.859c-0.225-0.531-0.455-1.059-0.654-1.61
					c-0.227-0.626-0.388-1.296-0.361-1.954c0.023-0.564,0.088-1.114,0.158-1.652c0.158-1.204,0.34-2.393,0.495-3.598
					c0.074-0.589,0.093-1.214,0.021-1.86c-0.234-2.101-0.834-4.021-1.758-5.755C502.465,250.022,501.245,248.84,499.879,248.15z
					 M501.804,259.086c-0.008-0.247-0.006-0.495-0.023-0.744c-0.073-1.058-0.292-2.069-0.76-2.98
					c-0.802-1.563-2.057-2.136-3.015-1.395c-0.418,0.325-0.712,0.851-0.959,1.472c-0.455,1.144-0.996,2.149-1.709,2.879
					c-0.492,0.501-1.027,0.893-1.576,1.241c-0.557,0.353-1.115,0.695-1.673,1.042c-0.187,0.117-0.284,0.347-0.257,0.709
					c0.048,0.635,0.448,1.075,0.792,0.864c0.658-0.405,1.316-0.81,1.968-1.235c0.734-0.483,1.43-1.064,2.023-1.885
					c0.555-0.762,1-1.686,1.396-2.683c0.158-0.397,0.359-0.715,0.633-0.902c0.559-0.377,1.254-0.061,1.662,0.806
					c0.425,0.9,0.563,1.848,0.417,2.781c-0.11,0.703-0.357,1.256-0.634,1.77c-0.569,1.059-1.264,1.885-1.997,2.635
					c-1.222,1.251-2.532,2.27-3.9,3.146c-0.269,0.171-0.347,0.621-0.188,1.082c0.148,0.438,0.461,0.658,0.721,0.491
					c1.758-1.132,3.436-2.46,4.926-4.246c0.621-0.745,1.19-1.581,1.629-2.632C501.551,260.654,501.743,259.934,501.804,259.086z
					 M503.455,259.139c0.01,0.002,0.02,0.006,0.031,0.009c-0.021-0.553-0.02-1.101-0.068-1.656c-0.12-1.34-0.525-2.547-1.09-3.678
					c-1.23-2.457-3.095-3.643-4.674-2.953c-0.842,0.367-1.486,1.151-2,2.207c-0.201,0.414-0.362,0.884-0.564,1.295
					c-0.354,0.72-0.82,1.231-1.336,1.627c-0.473,0.361-0.971,0.659-1.461,0.972c-0.203,0.131-0.316,0.388-0.287,0.728
					c0.054,0.614,0.426,1.047,0.766,0.879c0.629-0.306,1.223-0.717,1.785-1.217c0.707-0.631,1.307-1.439,1.724-2.581
					c0.265-0.723,0.627-1.303,1.065-1.748c0.586-0.596,1.254-0.856,2.033-0.6c0.832,0.273,1.545,1.017,2.149,2.139
					c0.679,1.257,0.999,2.607,0.913,4.078c-0.051,0.872-0.202,1.674-0.342,2.485c-0.121,0.718-0.253,1.432-0.342,2.173
					c-0.143,1.187-0.039,2.442,0.187,3.717c0.309,1.739,0.964,3.099,1.95,4.079c0.185,0.184,0.363,0.222,0.521,0.074
					c0.156-0.149,0.219-0.395,0.181-0.723c-0.036-0.315-0.153-0.556-0.33-0.732c-0.619-0.622-1.069-1.456-1.293-2.56
					c-0.203-0.996-0.3-1.979-0.236-2.938c0.055-0.846,0.219-1.613,0.36-2.399C503.254,260.95,503.409,260.083,503.455,259.139z
					 M500.076,245.395c-0.518-0.25-1.035-0.423-1.552-0.52c-1.196-0.225-2.295,0.008-3.271,0.794
					c-1.017,0.818-1.813,2.051-2.541,3.408c-0.169,0.314-0.1,0.844,0.133,1.176c0.233,0.336,0.537,0.354,0.707,0.032
					c0.396-0.749,0.835-1.42,1.304-2.043c0.676-0.897,1.449-1.519,2.382-1.711c0.722-0.149,1.468-0.046,2.232,0.235
					c0.612,0.224,1.213,0.549,1.802,1.032c1.297,1.067,2.361,2.636,3.27,4.536c0.344,0.722,0.65,1.476,0.917,2.265
					c0.188,0.561,0.597,0.758,0.825,0.413c0.154-0.233,0.162-0.6,0.017-1.03c-0.463-1.367-1.032-2.63-1.69-3.8
					C503.313,247.88,501.819,246.223,500.076,245.395z M500.023,242.549c-0.449-0.211-0.98-0.401-1.514-0.512
					c-1.41-0.292-2.713-0.053-3.873,0.85c-0.332,0.258-0.633,0.602-0.931,0.944c-0.222,0.256-0.204,0.792,0.006,1.176
					c0.212,0.391,0.524,0.474,0.735,0.193c0.033-0.044,0.066-0.09,0.102-0.131c0.753-0.889,1.646-1.339,2.641-1.454
					c1.326-0.152,2.664,0.331,4.009,1.255c1.061,0.727,2.044,1.721,2.926,3.043c0.353,0.531,0.679,1.113,1.014,1.679
					c0.297,0.5,0.728,0.47,0.833-0.082c0.069-0.356-0.038-0.681-0.211-0.999C504.164,245.569,502.268,243.637,500.023,242.549z
					 M499.924,258.064c0.007-0.39-0.139-0.787-0.365-0.983c-0.229-0.198-0.482-0.131-0.598,0.177
					c-0.279,0.759-0.643,1.393-1.036,1.982c-1.032,1.544-2.237,2.711-3.532,3.677c-0.51,0.382-1.039,0.712-1.561,1.062
					c-0.225,0.151-0.318,0.507-0.234,0.91c0.115,0.54,0.478,0.863,0.773,0.66c0.758-0.523,1.522-1.029,2.258-1.61
					c1.078-0.854,2.068-1.903,2.948-3.185c0.476-0.691,0.919-1.437,1.254-2.341C499.87,258.306,499.894,258.18,499.924,258.064z
					 M506.746,261.749c0.042-0.943,0.053-1.946-0.046-2.977c-0.06-0.617-0.149-1.24-0.257-1.856
					c-0.082-0.462-0.385-0.759-0.646-0.698c-0.259,0.06-0.39,0.457-0.303,0.921c0.026,0.141,0.054,0.281,0.077,0.424
					c0.188,1.213,0.211,2.39,0.163,3.547c-0.06,1.486-0.257,2.885-0.526,4.232c-0.028,0.139-0.034,0.313-0.017,0.47
					c0.041,0.374,0.239,0.696,0.462,0.795c0.24,0.105,0.445-0.054,0.521-0.426C506.463,264.785,506.662,263.328,506.746,261.749z
					 M498.383,267.338c-0.43-0.216-0.719-0.175-0.995-0.054c-0.521,0.229-0.962,0.66-1.361,1.187
					c-0.065,0.086-0.11,0.236-0.129,0.382c-0.042,0.325,0.067,0.692,0.255,0.923c0.191,0.235,0.418,0.275,0.586,0.095
					s0.324-0.392,0.504-0.541c0.217-0.178,0.445-0.328,0.682-0.454c0.234-0.124,0.458,0.067,0.637,0.419
					c0.1,0.199,0.192,0.431,0.247,0.661c0.097,0.41,0.167,0.827,0.237,1.243c0.081,0.479,0.33,0.831,0.609,0.838
					c0.27,0.004,0.445-0.351,0.391-0.814c-0.078-0.636-0.191-1.268-0.382-1.881C499.356,268.347,498.908,267.626,498.383,267.338z
					 M499.811,266.107c0,0.215-0.001,0.43,0.002,0.649c0.002,0.107,0.011,0.219,0.021,0.329c0.159,1.803,0.784,3.316,1.593,4.701
					c0.258,0.439,0.65,0.368,0.771-0.096c0.081-0.311,0.021-0.662-0.177-1.012c-0.401-0.715-0.758-1.475-0.983-2.346
					c-0.29-1.117-0.301-2.122,0.064-2.978c0.044-0.101,0.067-0.247,0.067-0.384c0.002-0.388-0.143-0.724-0.375-0.912
					c-0.209-0.17-0.43-0.118-0.559,0.148C499.98,264.74,499.854,265.385,499.811,266.107z"/>
				<linearGradient id="SVGID_6_" gradientUnits="userSpaceOnUse" x1="492.207" y1="258.6694" x2="505.7051" y2="258.6694">
					<stop  offset="0" style="stop-color:#FFFFFF"/>
					<stop  offset="1" style="stop-color:#94B5C4"/>
				</linearGradient>
				<path fill-rule="evenodd" clip-rule="evenodd" fill="url(#SVGID_6_)" d="M499.879,248.15c1.366,0.69,2.586,1.872,3.59,3.758
					c0.924,1.734,1.523,3.654,1.758,5.755c0.072,0.646,0.054,1.271-0.021,1.86c-0.155,1.205-0.337,2.394-0.495,3.598
					c-0.07,0.538-0.135,1.088-0.158,1.652c-0.026,0.658,0.135,1.328,0.361,1.954c0.199,0.552,0.43,1.079,0.654,1.61
					c0.123,0.295,0.174,0.577,0.107,0.859c-0.064,0.283-0.203,0.414-0.399,0.397c-0.153-0.012-0.303-0.114-0.407-0.33
					c-0.621-1.275-1.142-2.607-1.305-4.141c-0.07-0.665-0.041-1.286,0.043-1.884c0.156-1.112,0.337-2.209,0.482-3.33
					c0.078-0.606,0.118-1.242,0.146-1.88c0.027-0.606-0.104-1.233-0.248-1.848c-0.538-2.303-1.434-4.184-2.793-5.442
					c-1.176-1.089-2.365-1.58-3.539-1.211c-0.765,0.24-1.381,0.86-1.906,1.683c-0.276,0.435-0.528,0.907-0.786,1.368
					c-0.534,0.954-1.171,1.68-1.972,2.047c-0.254,0.116-0.492-0.028-0.656-0.386c-0.213-0.461-0.158-1.063,0.129-1.192
					c0.756-0.342,1.333-1.049,1.813-1.976c0.478-0.923,1.006-1.755,1.656-2.368c0.92-0.866,1.967-1.152,3.146-0.837
					C499.346,247.939,499.612,248.055,499.879,248.15z"/>
				<linearGradient id="SVGID_7_" gradientUnits="userSpaceOnUse" x1="491.8271" y1="260.9409" x2="501.8037" y2="260.9409">
					<stop  offset="0" style="stop-color:#FFFFFF"/>
					<stop  offset="1" style="stop-color:#94B5C4"/>
				</linearGradient>
				<path fill-rule="evenodd" clip-rule="evenodd" fill="url(#SVGID_7_)" d="M501.804,259.086c-0.061,0.848-0.253,1.567-0.524,2.216
					c-0.438,1.051-1.008,1.887-1.629,2.632c-1.49,1.786-3.168,3.114-4.926,4.246c-0.26,0.167-0.572-0.053-0.721-0.491
					c-0.158-0.461-0.08-0.911,0.188-1.082c1.368-0.877,2.679-1.896,3.9-3.146c0.733-0.75,1.428-1.576,1.997-2.635
					c0.276-0.514,0.523-1.066,0.634-1.77c0.146-0.934,0.008-1.881-0.417-2.781c-0.408-0.866-1.104-1.183-1.662-0.806
					c-0.273,0.188-0.475,0.505-0.633,0.902c-0.396,0.997-0.842,1.921-1.396,2.683c-0.594,0.82-1.289,1.401-2.023,1.885
					c-0.651,0.426-1.31,0.83-1.968,1.235c-0.344,0.211-0.744-0.229-0.792-0.864c-0.027-0.362,0.07-0.592,0.257-0.709
					c0.558-0.347,1.116-0.689,1.673-1.042c0.549-0.349,1.084-0.74,1.576-1.241c0.713-0.729,1.254-1.735,1.709-2.879
					c0.247-0.621,0.541-1.146,0.959-1.472c0.958-0.741,2.213-0.169,3.015,1.395c0.468,0.911,0.687,1.923,0.76,2.98
					C501.798,258.591,501.796,258.839,501.804,259.086z"/>
				<linearGradient id="SVGID_8_" gradientUnits="userSpaceOnUse" x1="492.001" y1="260.9624" x2="504.6064" y2="260.9624">
					<stop  offset="0" style="stop-color:#FFFFFF"/>
					<stop  offset="1" style="stop-color:#94B5C4"/>
				</linearGradient>
				<path fill-rule="evenodd" clip-rule="evenodd" fill="url(#SVGID_8_)" d="M503.455,259.139c-0.046,0.943-0.201,1.811-0.358,2.677
					c-0.142,0.786-0.306,1.554-0.36,2.399c-0.063,0.959,0.033,1.941,0.236,2.938c0.224,1.104,0.674,1.938,1.293,2.56
					c0.177,0.177,0.294,0.417,0.33,0.732c0.038,0.328-0.024,0.573-0.181,0.723c-0.157,0.147-0.336,0.109-0.521-0.074
					c-0.986-0.98-1.642-2.34-1.95-4.079c-0.226-1.274-0.329-2.53-0.187-3.717c0.089-0.741,0.221-1.455,0.342-2.173
					c0.14-0.812,0.291-1.613,0.342-2.485c0.086-1.471-0.234-2.821-0.913-4.078c-0.604-1.122-1.317-1.865-2.149-2.139
					c-0.779-0.257-1.447,0.004-2.033,0.6c-0.438,0.445-0.801,1.025-1.065,1.748c-0.417,1.142-1.017,1.95-1.724,2.581
					c-0.563,0.5-1.156,0.911-1.785,1.217c-0.34,0.168-0.712-0.265-0.766-0.879c-0.029-0.34,0.084-0.597,0.287-0.728
					c0.49-0.313,0.988-0.61,1.461-0.972c0.516-0.396,0.982-0.907,1.336-1.627c0.202-0.411,0.363-0.881,0.564-1.295
					c0.514-1.056,1.158-1.84,2-2.207c1.579-0.689,3.443,0.496,4.674,2.953c0.564,1.131,0.97,2.338,1.09,3.678
					c0.049,0.556,0.047,1.104,0.068,1.656C503.475,259.145,503.465,259.141,503.455,259.139z"/>
				<linearGradient id="SVGID_9_" gradientUnits="userSpaceOnUse" x1="492.6182" y1="249.9893" x2="506.4043" y2="249.9893">
					<stop  offset="0" style="stop-color:#FFFFFF"/>
					<stop  offset="1" style="stop-color:#94B5C4"/>
				</linearGradient>
				<path fill-rule="evenodd" clip-rule="evenodd" fill="url(#SVGID_9_)" d="M500.076,245.395c1.743,0.828,3.236,2.485,4.533,4.788
					c0.658,1.17,1.228,2.433,1.69,3.8c0.146,0.431,0.138,0.797-0.017,1.03c-0.229,0.345-0.637,0.147-0.825-0.413
					c-0.267-0.789-0.573-1.543-0.917-2.265c-0.908-1.9-1.973-3.469-3.27-4.536c-0.589-0.483-1.189-0.809-1.802-1.032
					c-0.765-0.281-1.511-0.385-2.232-0.235c-0.933,0.192-1.706,0.813-2.382,1.711c-0.469,0.623-0.908,1.294-1.304,2.043
					c-0.17,0.321-0.474,0.304-0.707-0.032c-0.232-0.332-0.302-0.861-0.133-1.176c0.728-1.357,1.524-2.59,2.541-3.408
					c0.977-0.786,2.075-1.019,3.271-0.794C499.041,244.972,499.559,245.145,500.076,245.395z"/>
				<linearGradient id="SVGID_10_" gradientUnits="userSpaceOnUse" x1="493.5469" y1="245.9336" x2="505.9922" y2="245.9336">
					<stop  offset="0" style="stop-color:#FFFFFF"/>
					<stop  offset="1" style="stop-color:#94B5C4"/>
				</linearGradient>
				<path fill-rule="evenodd" clip-rule="evenodd" fill="url(#SVGID_10_)" d="M500.023,242.549c2.244,1.088,4.141,3.02,5.736,5.962
					c0.173,0.318,0.28,0.643,0.211,0.999c-0.105,0.552-0.536,0.582-0.833,0.082c-0.335-0.565-0.661-1.147-1.014-1.679
					c-0.882-1.322-1.865-2.316-2.926-3.043c-1.345-0.924-2.683-1.407-4.009-1.255c-0.995,0.115-1.888,0.565-2.641,1.454
					c-0.035,0.041-0.068,0.087-0.102,0.131c-0.211,0.28-0.523,0.197-0.735-0.193c-0.21-0.384-0.228-0.92-0.006-1.176
					c0.298-0.343,0.599-0.687,0.931-0.944c1.16-0.902,2.463-1.142,3.873-0.85C499.043,242.148,499.574,242.338,500.023,242.549z"/>
				<linearGradient id="SVGID_11_" gradientUnits="userSpaceOnUse" x1="492.5674" y1="261.2891" x2="499.9238" y2="261.2891">
					<stop  offset="0" style="stop-color:#FFFFFF"/>
					<stop  offset="1" style="stop-color:#94B5C4"/>
				</linearGradient>
				<path fill-rule="evenodd" clip-rule="evenodd" fill="url(#SVGID_11_)" d="M499.924,258.064c-0.03,0.116-0.054,0.242-0.093,0.349
					c-0.335,0.904-0.778,1.649-1.254,2.341c-0.88,1.281-1.87,2.331-2.948,3.185c-0.735,0.581-1.5,1.087-2.258,1.61
					c-0.296,0.203-0.658-0.12-0.773-0.66c-0.084-0.403,0.01-0.759,0.234-0.91c0.521-0.35,1.051-0.68,1.561-1.062
					c1.295-0.966,2.5-2.133,3.532-3.677c0.394-0.59,0.757-1.224,1.036-1.982c0.115-0.308,0.369-0.375,0.598-0.177
					C499.785,257.277,499.931,257.674,499.924,258.064z"/>
				<linearGradient id="SVGID_12_" gradientUnits="userSpaceOnUse" x1="505.1826" y1="261.4238" x2="506.7764" y2="261.4238">
					<stop  offset="0" style="stop-color:#FFFFFF"/>
					<stop  offset="1" style="stop-color:#94B5C4"/>
				</linearGradient>
				<path fill-rule="evenodd" clip-rule="evenodd" fill="url(#SVGID_12_)" d="M506.746,261.749c-0.084,1.579-0.283,3.036-0.57,4.432
					c-0.076,0.372-0.281,0.531-0.521,0.426c-0.223-0.099-0.421-0.421-0.462-0.795c-0.018-0.157-0.012-0.331,0.017-0.47
					c0.27-1.348,0.467-2.746,0.526-4.232c0.048-1.157,0.024-2.334-0.163-3.547c-0.023-0.143-0.051-0.283-0.077-0.424
					c-0.087-0.464,0.044-0.861,0.303-0.921c0.261-0.061,0.563,0.236,0.646,0.698c0.107,0.616,0.197,1.239,0.257,1.856
					C506.799,259.802,506.788,260.805,506.746,261.749z"/>
				<linearGradient id="SVGID_13_" gradientUnits="userSpaceOnUse" x1="495.8887" y1="269.6108" x2="500.0547" y2="269.6108">
					<stop  offset="0" style="stop-color:#FFFFFF"/>
					<stop  offset="1" style="stop-color:#94B5C4"/>
				</linearGradient>
				<path fill-rule="evenodd" clip-rule="evenodd" fill="url(#SVGID_13_)" d="M498.383,267.338c0.525,0.288,0.974,1.009,1.28,2.003
					c0.19,0.613,0.304,1.245,0.382,1.881c0.055,0.464-0.121,0.818-0.391,0.814c-0.279-0.007-0.528-0.358-0.609-0.838
					c-0.07-0.416-0.141-0.833-0.237-1.243c-0.055-0.23-0.147-0.462-0.247-0.661c-0.179-0.352-0.402-0.543-0.637-0.419
					c-0.236,0.126-0.465,0.276-0.682,0.454c-0.18,0.149-0.336,0.36-0.504,0.541s-0.395,0.141-0.586-0.095
					c-0.188-0.23-0.297-0.598-0.255-0.923c0.019-0.146,0.063-0.296,0.129-0.382c0.399-0.526,0.841-0.958,1.361-1.187
					C497.664,267.164,497.953,267.123,498.383,267.338z"/>
				<linearGradient id="SVGID_14_" gradientUnits="userSpaceOnUse" x1="499.8105" y1="268.0215" x2="502.2314" y2="268.0215">
					<stop  offset="0" style="stop-color:#FFFFFF"/>
					<stop  offset="1" style="stop-color:#94B5C4"/>
				</linearGradient>
				<path fill-rule="evenodd" clip-rule="evenodd" fill="url(#SVGID_14_)" d="M499.811,266.107c0.044-0.722,0.17-1.367,0.424-1.898
					c0.129-0.267,0.35-0.318,0.559-0.148c0.232,0.188,0.377,0.524,0.375,0.912c0,0.137-0.023,0.283-0.067,0.384
					c-0.365,0.855-0.354,1.86-0.064,2.978c0.226,0.871,0.582,1.631,0.983,2.346c0.197,0.35,0.258,0.701,0.177,1.012
					c-0.12,0.464-0.513,0.535-0.771,0.096c-0.809-1.385-1.434-2.898-1.593-4.701c-0.01-0.11-0.019-0.222-0.021-0.329
					C499.81,266.537,499.811,266.322,499.811,266.107z"/>
			</g>
		</g>
	</g>
	<g>
		<g>
			<path fill="none" stroke="#FFFFFF" stroke-width="0.75" stroke-miterlimit="10" stroke-dasharray="1,1" d="M499.488,299.508
				c-0.5,0.167-4,2.334-8,0.834c-1.714-0.643-2.979-2.004-3.814-3.783"/>
			<g>
				<polygon fill="#FFFFFF" points="489.721,297.168 487.913,297.063 486.582,298.289 486.822,294.009 				"/>
			</g>
		</g>
	</g>
	<g>
		<g>
			<polyline fill="none" stroke="#231F20" stroke-width="0.5" stroke-miterlimit="10" stroke-dasharray="3,3" points="
				447.58,267.25 481.982,267.25 481.982,282.322 			"/>
			<g>
				<circle fill="#231F20" cx="447.655" cy="267.25" r="1.504"/>
			</g>
			<g>
				<circle fill="#231F20" cx="481.982" cy="282.246" r="1.504"/>
			</g>
		</g>
	</g>
	<g>
		<g>
			<polyline fill="none" stroke="#231F20" stroke-width="0.5" stroke-miterlimit="10" stroke-dasharray="3,3" points="
				452.912,226.665 483.842,226.652 483.842,253.799 494.313,253.911 			"/>
			<g>
				<circle fill="#231F20" cx="452.987" cy="226.665" r="1.504"/>
			</g>
			<g>
				<circle fill="#231F20" cx="494.237" cy="253.91" r="1.504"/>
			</g>
		</g>
	</g>
	<rect x="214.499" y="185.852" fill="none" width="118.826" height="55.989"/>
	<text transform="matrix(1 0 0 1 214.501 192.9517)"><tspan x="0" y="0" fill="#231F20" font-family="'MyriadPro-Bold'" font-size="10">CURRENT PATIENT</tspan><tspan x="0" y="12" fill="#231F20" font-family="'MyriadPro-Regular'" font-size="9.5">Physician </tspan><tspan x="39.13" y="12" fill="#231F20" font-family="'MyriadPro-Bold'" font-size="9.5">prescribes PICARD</tspan><tspan x="117.153" y="12" fill="#231F20" font-family="'MyriadPro-Regular'" font-size="9.5"> </tspan><tspan x="0" y="23" fill="#231F20" font-family="'MyriadPro-Regular'" font-size="9.5">with opioid medication.</tspan></text>
	<polygon fill="none" points="484.227,373.14 362.154,373.14 362.154,223.658 456.642,223.992 457.209,268.842 466.607,270.893 
		470.642,336.244 481.059,343.494 491.059,361.828 	"/>
	<text transform="matrix(1 0 0 1 362.1538 230.4028)"><tspan x="0" y="0" fill="#231F20" font-family="'MyriadPro-Bold'" font-size="9.5">Thumb print sensor</tspan><tspan x="82.868" y="0" fill="#231F20" font-family="'MyriadPro-Regular'" font-size="9.5"> </tspan><tspan x="0" y="11" fill="#231F20" font-family="'MyriadPro-Regular'" font-size="9.5">recognizes patient and </tspan><tspan x="0" y="22" fill="#231F20" font-family="'MyriadPro-Regular'" font-size="9.5">dispenses medication</tspan><tspan x="0" y="40" fill="#231F20" font-family="'MyriadPro-Bold'" font-size="9.5">Controlled dosage</tspan><tspan x="0" y="51" fill="#231F20" font-family="'MyriadPro-Regular'" font-size="9.5">is dispensed at prescribed </tspan><tspan x="0" y="62" fill="#231F20" font-family="'MyriadPro-Regular'" font-size="9.5">times, otherwise device </tspan><tspan x="0" y="73" fill="#231F20" font-family="'MyriadPro-Regular'" font-size="9.5">locks out attempts.</tspan><tspan x="0" y="91" fill="#231F20" font-family="'MyriadPro-Bold'" font-size="9.5">Location is registered </tspan><tspan x="0" y="102" fill="#231F20" font-family="'MyriadPro-Regular'" font-size="9.5">for security. If PICARD is </tspan><tspan x="0" y="113" fill="#231F20" font-family="'MyriadPro-Regular'" font-size="9.5">lost or stolen, it locks and </tspan><tspan x="0" y="124" fill="#231F20" font-family="'MyriadPro-Regular'" font-size="9.5">sends an alert to the patient </tspan><tspan x="0" y="135" fill="#231F20" font-family="'MyriadPro-Regular'" font-size="9.5">along with current location.</tspan></text>
	<text transform="matrix(1 0 0 1 548.2031 365.502)"><tspan x="0" y="0" fill="#231F20" font-family="'MyriadPro-Bold'" font-size="9.5">Activity and vital statistics</tspan><tspan x="110.786" y="0" fill="#231F20" font-family="'MyriadPro-Regular'" font-size="9.5"> are synchronized </tspan><tspan x="0" y="11" fill="#231F20" font-family="'MyriadPro-Regular'" font-size="9.5">with smartwatch.</tspan></text>
	<text transform="matrix(1 0 0 1 583.9258 193.8027)" fill="#231F20" font-family="'MyriadPro-Bold'" font-size="9.5">WHAT DATA ARE COLLECTED</text>
	<g>
		<text transform="matrix(1 0 0 1 362.1567 192.8018)"><tspan x="0" y="0" fill="#231F20" font-family="'MyriadPro-Bold'" font-size="9.5">HOW PICARD WORKS</tspan><tspan x="0" y="12" fill="#231F20" font-family="'MyriadPro-Regular'" font-size="9.5">Hand-held, compact pill dispenser</tspan></text>
	</g>
	<polygon fill="none" points="604.867,296.331 754.221,296.331 744.211,350.003 604.867,350.003 	"/>
	<text transform="matrix(1 0 0 1 604.8691 303.0762)"><tspan x="0" y="0" fill="#231F20" font-family="'MyriadPro-Bold'" font-size="9.5">S</tspan><tspan x="5.196" y="0" fill="#231F20" font-family="'MyriadPro-Bold'" font-size="9.5">el</tspan><tspan x="12.824" y="0" fill="#231F20" font-family="'MyriadPro-Bold'" font-size="9.5">f</tspan><tspan x="16.045" y="0" fill="#231F20" font-family="'MyriadPro-Bold'" font-size="9.5">-</tspan><tspan x="19.104" y="0" fill="#231F20" font-family="'MyriadPro-Bold'" font-size="9.5">r</tspan><tspan x="22.647" y="0" fill="#231F20" font-family="'MyriadPro-Bold'" font-size="9.5">e</tspan><tspan x="27.664" y="0" fill="#231F20" font-family="'MyriadPro-Bold'" font-size="9.5">p</tspan><tspan x="33.363" y="0" fill="#231F20" font-family="'MyriadPro-Bold'" font-size="9.5">o</tspan><tspan x="38.846" y="0" fill="#231F20" font-family="'MyriadPro-Bold'" font-size="9.5">r</tspan><tspan x="42.654" y="0" fill="#231F20" font-family="'MyriadPro-Bold'" font-size="9.5">t</tspan><tspan x="46.104" y="0" fill="#231F20" font-family="'MyriadPro-Bold'" font-size="9.5">ed pain-l</tspan><tspan x="83.238" y="0" fill="#231F20" font-family="'MyriadPro-Bold'" font-size="9.5">e</tspan><tspan x="88.197" y="0" fill="#231F20" font-family="'MyriadPro-Bold'" font-size="9.5">v</tspan><tspan x="93.1" y="0" fill="#231F20" font-family="'MyriadPro-Bold'" font-size="9.5">el </tspan><tspan x="102.647" y="0" fill="#231F20" font-family="'MyriadPro-Regular'" font-size="9.5">inqui</tspan><tspan x="122.949" y="0" fill="#231F20" font-family="'MyriadPro-Regular'" font-size="9.5">r</tspan><tspan x="126.283" y="0" fill="#231F20" font-family="'MyriadPro-Regular'" font-size="9.5">ies </tspan><tspan x="0" y="11" fill="#231F20" font-family="'MyriadPro-Regular'" font-size="9.5">are </tspan><tspan x="14.459" y="11" fill="#231F20" font-family="'MyriadPro-Regular'" font-size="9.5">o</tspan><tspan x="19.712" y="11" fill="#231F20" font-family="'MyriadPro-Regular'" font-size="9.5">c</tspan><tspan x="23.92" y="11" fill="#231F20" font-family="'MyriadPro-Regular'" font-size="9.5">casionally se</tspan><tspan x="73.301" y="11" fill="#231F20" font-family="'MyriadPro-Regular'" font-size="9.5">n</tspan><tspan x="78.535" y="11" fill="#231F20" font-family="'MyriadPro-Regular'" font-size="9.5">t to patients </tspan><tspan x="0" y="22" fill="#231F20" font-family="'MyriadPro-Regular'" font-size="9.5">smartphone 45-60 minu</tspan><tspan x="95.531" y="22" fill="#231F20" font-family="'MyriadPro-Regular'" font-size="9.5">t</tspan><tspan x="98.628" y="22" fill="#231F20" font-family="'MyriadPro-Regular'" font-size="9.5">es a</tspan><tspan x="113.742" y="22" fill="#231F20" font-family="'MyriadPro-Regular'" font-size="9.5">f</tspan><tspan x="116.621" y="22" fill="#231F20" font-family="'MyriadPro-Regular'" font-size="9.5">t</tspan><tspan x="119.717" y="22" fill="#231F20" font-family="'MyriadPro-Regular'" font-size="9.5">er </tspan><tspan x="0" y="33" fill="#231F20" font-family="'MyriadPro-Regular'" font-size="9.5">medic</tspan><tspan x="24.52" y="33" fill="#231F20" font-family="'MyriadPro-Regular'" font-size="9.5">a</tspan><tspan x="29.061" y="33" fill="#231F20" font-family="'MyriadPro-Regular'" font-size="9.5">tion is dispensed to gauge </tspan><tspan x="0" y="44" fill="#231F20" font-family="'MyriadPro-Regular'" font-size="9.5">the drugs effectiveness.</tspan></text>
	<text transform="matrix(1 0 0 1 604.8672 248.5273)"><tspan x="0" y="0" fill="#231F20" font-family="'MyriadPro-Regular'" font-size="9.5">A</tspan><tspan x="5.795" y="0" fill="#231F20" font-family="'MyriadPro-Regular'" font-size="9.5">n</tspan><tspan x="10.943" y="0" fill="#231F20" font-family="'MyriadPro-Regular'" font-size="9.5">y </tspan><tspan x="17.432" y="0" fill="#231F20" font-family="'MyriadPro-Bold'" font-size="9.5">unauthori</tspan><tspan x="59.84" y="0" fill="#231F20" font-family="'MyriadPro-Bold'" font-size="9.5">z</tspan><tspan x="64.229" y="0" fill="#231F20" font-family="'MyriadPro-Bold'" font-size="9.5">ed </tspan><tspan x="76.825" y="0" fill="#231F20" font-family="'MyriadPro-Bold'" font-size="9.5">a</tspan><tspan x="81.774" y="0" fill="#231F20" font-family="'MyriadPro-Bold'" font-size="9.5">t</tspan><tspan x="85.261" y="0" fill="#231F20" font-family="'MyriadPro-Bold'" font-size="9.5">t</tspan><tspan x="88.699" y="0" fill="#231F20" font-family="'MyriadPro-Bold'" font-size="9.5">empts </tspan></text>
	<text transform="matrix(1 0 0 1 604.8672 214.957)"><tspan x="0" y="0" fill="#231F20" font-family="'MyriadPro-Regular'" font-size="9.5">Number of </tspan><tspan x="44.696" y="0" fill="#231F20" font-family="'MyriadPro-Bold'" font-size="9.5">a</tspan><tspan x="49.646" y="0" fill="#231F20" font-family="'MyriadPro-Bold'" font-size="9.5">t</tspan><tspan x="53.133" y="0" fill="#231F20" font-family="'MyriadPro-Bold'" font-size="9.5">t</tspan><tspan x="56.58" y="0" fill="#231F20" font-family="'MyriadPro-Bold'" font-size="9.5">empts </tspan></text>
	<text transform="matrix(1 0 0 1 604.8672 281.0977)"><tspan x="0" y="0" fill="#231F20" font-family="'MyriadPro-Bold'" font-size="9.5">T</tspan><tspan x="4.996" y="0" fill="#231F20" font-family="'MyriadPro-Bold'" font-size="9.5">ime/d</tspan><tspan x="29.592" y="0" fill="#231F20" font-family="'MyriadPro-Bold'" font-size="9.5">a</tspan><tspan x="34.541" y="0" fill="#231F20" font-family="'MyriadPro-Bold'" font-size="9.5">t</tspan><tspan x="37.989" y="0" fill="#231F20" font-family="'MyriadPro-Bold'" font-size="9.5">e</tspan><tspan x="43.006" y="0" fill="#231F20" font-family="'MyriadPro-Regular'" font-size="9.5"> each pill is dispensed</tspan></text>
</g>
</svg>
