<?xml version="1.0" encoding="utf-8"?>
<!-- Generator: Adobe Illustrator 16.0.0, SVG Export Plug-In . SVG Version: 6.00 Build 0)  -->
<!DOCTYPE svg PUBLIC "-//W3C//DTD SVG 1.1//EN" "http://www.w3.org/Graphics/SVG/1.1/DTD/svg11.dtd">
<svg version="1.1" id="Layer_1" xmlns="http://www.w3.org/2000/svg" xmlns:xlink="http://www.w3.org/1999/xlink" x="0px" y="0px"
	 width="960px" height="560px" viewBox="0 0 960 560" enable-background="new 0 0 960 560" xml:space="preserve">
<polygon fill="#D1D1CA" points="745.449,383.226 214.909,383.226 234.378,280.892 214.909,175.976 745.449,175.976 "/>
<polyline fill="none" stroke="#FFFFFF" stroke-width="2" stroke-miterlimit="10" points="439.19,175.978 458.431,280.894 
	448.199,383.228 "/>
<g>
	<g>
		<path fill="#94B5C4" d="M528.137,255.008v-13.264c-7.449,0.745-13.266,7.031-13.266,14.677c0,3.29,1.078,6.328,2.898,8.782
			L528.137,255.008z"/>
		<path fill="#E8BA80" d="M531.107,254.123h13.086c-1.027-6.574-6.398-11.711-13.086-12.379V254.123z"/>
		<path fill="#E8BA80" d="M530.25,257.094L519.772,267.4c2.612,2.345,6.063,3.771,9.85,3.771c7.922,0,14.382-6.243,14.734-14.078
			H530.25z"/>
	</g>
	<g>
		<path d="M560.953,260.741h-0.198v6.137c0,0.984-0.798,1.782-1.782,1.782"/>
		<path fill="#FFFFFF" d="M560.755,258.166c0-0.984-0.798-1.781-1.782-1.781h-3.959c-0.984,0-1.783,0.797-1.783,1.781v2.575h7.524
			V258.166z"/>
		<path fill="#94B5C4" d="M560.755,266.878v-6.137h-7.524v6.137c0,0.984,0.799,1.782,1.783,1.782h3.959
			C559.957,268.66,560.755,267.862,560.755,266.878z"/>
	</g>
	<g>
		<path fill="#FFFFFF" d="M570.654,248.465c0-0.984-0.797-1.782-1.781-1.782h-3.96c-0.984,0-1.782,0.798-1.782,1.782v6.732h7.523
			V248.465z"/>
		<path fill="#94B5C4" d="M564.913,268.66h3.96c0.984,0,1.781-0.798,1.781-1.782v-11.681h-7.523v11.681
			C563.131,267.862,563.929,268.66,564.913,268.66z"/>
	</g>
	<g>
		<path fill="#FFFFFF" d="M580.159,239.159c0-0.984-0.799-1.782-1.782-1.782h-3.961c-0.982,0-1.781,0.798-1.781,1.782v10.494h7.524
			V239.159z"/>
		<path fill="#E8BA80" d="M574.416,268.66h3.961c0.983,0,1.782-0.798,1.782-1.782v-17.225h-7.524v17.225
			C572.635,267.862,573.434,268.66,574.416,268.66z"/>
	</g>
	<path fill="#E8BA80" d="M591.149,250.634c1.732,0.134,3.254-1.167,3.389-2.901c0.027-0.359-0.01-0.708-0.098-1.04l5.426-3.347
		c0.506,0.479,1.172,0.792,1.918,0.85c0.721,0.057,1.402-0.138,1.967-0.506l4.854,5.604c-0.331,0.453-0.547,1.002-0.593,1.604
		c-0.134,1.734,1.167,3.252,2.899,3.386c1.732,0.135,3.254-1.164,3.388-2.898c0.019-0.237,0.008-0.472-0.026-0.696l5.324-1.928
		c0.456,0.331,1.288,0.513,1.89,0.56c1.734,0.135,2.97-1.134,3.104-2.868c0.135-1.732-1.168-3.252-2.902-3.387
		c-1.732-0.135-3.252,1.168-3.386,2.9c-0.037,0.479,0.037,0.939,0.198,1.36l-4.975,1.739c-0.524-0.598-1.273-1.003-2.127-1.069
		c-0.488-0.037-0.953,0.041-1.38,0.207l-5.104-5.891c0.138-0.313,0.229-0.653,0.257-1.015c0.134-1.735-1.167-3.255-2.899-3.389
		c-1.734-0.135-3.254,1.166-3.389,2.901c-0.027,0.344,0.006,0.678,0.084,0.996l-5.447,3.36c-0.502-0.46-1.154-0.764-1.883-0.82
		c-1.734-0.135-3.254,1.167-3.389,2.899C588.114,248.979,589.415,250.499,591.149,250.634z M621.552,244.842
		c0.754,0.059,1.318,0.719,1.261,1.472c-0.059,0.754-0.72,1.322-1.474,1.264c-0.753-0.059-1.318-0.722-1.26-1.476
		C620.138,245.349,620.798,244.783,621.552,244.842z M612.521,251.246c-0.059,0.754-0.72,1.319-1.472,1.261
		c-0.754-0.059-1.32-0.719-1.262-1.473c0.059-0.755,0.719-1.321,1.473-1.263S612.58,250.491,612.521,251.246z M602.134,239.686
		c0.754,0.058,1.32,0.719,1.262,1.474c-0.059,0.753-0.719,1.318-1.473,1.261c-0.754-0.059-1.32-0.72-1.262-1.473
		C600.72,240.192,601.38,239.627,602.134,239.686z M591.499,246.123c0.754,0.059,1.32,0.719,1.262,1.472
		c-0.059,0.754-0.721,1.32-1.473,1.262c-0.754-0.059-1.32-0.72-1.262-1.474C590.085,246.63,590.745,246.064,591.499,246.123z"/>
	<path fill="#E8BA80" d="M621.548,255.419c-1.386,0.285-2.373,1.441-2.503,2.781l-3.77,0.566c-0.473-1.531-2.044-2.484-3.646-2.155
		c-0.931,0.19-1.68,0.778-2.111,1.548l-4.848-1.457c-0.01-0.145-0.024-0.289-0.056-0.436c-0.349-1.702-2.021-2.803-3.724-2.453
		c-1.615,0.332-2.687,1.853-2.494,3.462l-3.915,1.587c-0.724-0.751-1.805-1.128-2.9-0.903c-1.703,0.351-2.804,2.021-2.454,3.725
		c0.351,1.704,2.021,2.804,3.724,2.452c1.691-0.348,2.788-1.996,2.46-3.686l3.789-1.536c0.721,0.866,1.883,1.318,3.063,1.077
		c0.93-0.191,1.678-0.777,2.11-1.549l4.848,1.459c0.01,0.144,0.025,0.286,0.056,0.434c0.35,1.702,2.021,2.805,3.723,2.455
		c1.188-0.244,2.082-1.131,2.396-2.227l4.088-0.61c0.633,1.223,2.021,1.935,3.435,1.645c1.702-0.349,2.805-2.021,2.455-3.724
		C624.922,256.171,623.25,255.07,621.548,255.419z M592.493,262.394c-0.74,0.151-1.467-0.327-1.619-1.068s0.326-1.468,1.066-1.619
		c0.74-0.154,1.468,0.326,1.618,1.067C593.712,261.515,593.233,262.241,592.493,262.394z M601.805,258.246
		c-0.74,0.153-1.467-0.327-1.62-1.069c-0.152-0.74,0.327-1.467,1.068-1.617c0.74-0.152,1.466,0.326,1.618,1.066
		C603.023,257.368,602.545,258.095,601.805,258.246z M612.541,261.042c-0.74,0.152-1.468-0.325-1.619-1.065
		c-0.152-0.741,0.326-1.468,1.066-1.62c0.74-0.151,1.468,0.327,1.62,1.067C613.76,260.164,613.281,260.891,612.541,261.042z
		 M622.459,259.852c-0.741,0.151-1.468-0.325-1.62-1.066c-0.151-0.743,0.327-1.468,1.067-1.622c0.74-0.151,1.467,0.326,1.619,1.068
		C623.677,258.972,623.199,259.7,622.459,259.852z"/>
</g>
<g opacity="0.2">
	<g>
		<circle fill="#94B5C4" cx="489.266" cy="256.808" r="17.458"/>
		<g>
			<defs>
				<circle id="SVGID_1_" cx="489.266" cy="256.808" r="17.458"/>
			</defs>
			<use xlink:href="#SVGID_1_"  overflow="visible" fill="#94B5C4"/>
			<clipPath id="SVGID_2_">
				<use xlink:href="#SVGID_1_"  overflow="visible"/>
			</clipPath>
			<path clip-path="url(#SVGID_2_)" fill="#94B5C4" d="M491.494,237.987c0,0,0.106,1.846-0.382,2.335
				c-0.487,0.488-1.084,2.009-2.875,1.953c-1.792-0.054-1.738,0.056-2.39,0.544s-0.923,0.543-1.247,0.813
				c-0.504,0.42-1.194,0.707-1.303-0.107c-0.152-1.131,1.031-1.9,0.38-1.9c-0.653,0-2.117,0.218-2.28,0.271
				c-0.162,0.055-0.435,0.38,0,0.543c0.436,0.162,1.141,0.271,0.542,0.652c-0.597,0.381-1.194,0-1.14,0.867
				c0.055,0.869,0.271,1.086,0.381,1.793c0.082,0.527,0.107,1.41-0.76,1.465c-0.936,0.059-0.597-0.76-1.031-0.598
				s-0.543-0.055-0.381,0.326c0.164,0.379-0.054,0.922-0.977,1.303c-0.923,0.379-1.302,0.65-1.574,0.922
				c-0.271,0.271-0.759,0.867-0.813,1.248c-0.057,0.381-0.272,0.705-0.869,1.195c-0.598,0.486-1.737,1.194-1.792,1.357
				c-0.054,0.162-0.38,0.486-0.108,1.355s0.707,2.117,1.086,2.172s0.76-0.434,1.52-0.109c0.76,0.326,1.141,0.65,1.465,1.086
				c0.326,0.434,0.814,0.489,1.467,0.868c0.65,0.38,1.031,0.597,1.084,1.14c0.057,0.543-0.65,0.325,0.543,0.76
				c1.195,0.436,2.063,1.085,2.877,1.357c0.416,0.139,0.706,0.27,0.489,1.085c-0.218,0.815-0.599,1.086-0.599,1.683
				c0,0.598,0.326,0.705-0.053,1.52c-0.381,0.814-0.271,0.978-0.922,1.249c-0.652,0.272-0.815,0.163-0.762,0.868
				c0.055,0.706,0.381,0.65,0.055,1.141c-0.326,0.488-0.65,0.488-0.543,1.139c0.108,0.651,0.271,0.435,0.327,0.978
				c0.053,0.542-0.651,2.769-0.651,2.931s-4.886-1.791-4.886-1.791s0.162-1.791,0.379-3.474c0.218-1.683-0.053-3.581-0.053-3.744
				s-0.271-0.489-1.194-1.847c-0.922-1.356-1.086-2.117-1.139-3.094c-0.056-0.977,0.106-1.573-0.272-2.172
				c-0.38-0.596-0.38-1.138-0.761-1.572c-0.379-0.434-1.248-1.736-1.41-1.9c-0.164-0.162-1.141-3.691-1.141-3.691
				s3.584-5.644,4.723-7.761c1.141-2.117,2.877-3.04,4.559-3.637s5.645-2.009,6.514-2.116
				C486.445,237.282,491.494,237.987,491.494,237.987z"/>
			<path clip-path="url(#SVGID_2_)" fill="#94B5C4" d="M498.821,239.997c0,0-0.761,0.922-1.9,1.465s-0.869,0.813-1.465,0.923
				c-0.598,0.108-1.248,0.216-1.303,0.597c-0.055,0.379-0.218,0.705-0.109,1.031c0.109,0.326,0.109,0.543-0.055,0.707
				c-0.162,0.161-0.543,0.759-0.543,0.759s-0.704,0.434-1.139,0.216c-0.436-0.216-0.979-0.324-1.521,0.271
				c-0.543,0.598-0.651,1.412-0.651,1.412s-0.27,0.76,0.108,1.467c0.381,0.705,0.76-0.11,0.706,0.379
				c-0.055,0.488-0.163,0.869-0.651,1.248s-0.976,0.814-1.304,1.193c-0.324,0.381-0.813,1.142-0.813,2.063
				c0,0.923-0.434,2.063,0.056,2.823c1.046,1.627,1.418,2.18,2.007,2.441c0.427,0.189,0.653,0.813,1.575,0.543
				c0.923-0.271,1.357-0.814,2.008-0.651s1.303,0.108,1.355,0.651c0.055,0.542,0.381,1.627,0.652,2.225s0.543,0.381,0.543,1.305
				c0,0.922,0,1.084-0.271,1.519s0,1.356,0.164,1.954c0.161,0.597,0.867,2.442,0.867,2.442s0.109,0.923,1.195,0.489
				c1.084-0.436,1.79-1.195,2.17-1.629c0.381-0.434,1.193-1.791,1.41-2.279c0.219-0.49,0.924-1.195,1.087-1.684
				s0.379-0.977,0.325-1.684c-0.055-0.705-0.055-0.759,0.164-1.355c0.216-0.598,0.38-0.869,0.705-1.194
				c0.324-0.325,0.65-0.651,0.867-1.194s0.598-0.543,0.217-1.14c-0.379-0.597-0.434-0.813-0.379-1.085
				c0.055-0.272,0.218-0.38,0.542-0.543c0.326-0.163,0.651-0.163,0.761-0.869c0.108-0.705,0.217-0.76,0.487-1.357
				c0.272-0.597,0.925-1.029,1.032-1.248c0.108-0.217,0.598-1.193,0.598-1.193S504.194,242.493,498.821,239.997z"/>
			<path clip-path="url(#SVGID_2_)" fill="#94B5C4" d="M493.12,248.788c0,0,0.707-1.085,1.25-1.031
				c0.543,0.057,0.923,0.109,1.357,0.49c0.434,0.379,1.248,0.598,1.248,0.598s-0.109,0.921,0.324,0.759
				c0.436-0.163,0.924-0.489,0.924-0.489s0.381,0.436,0.924,0.489s1.193,0,1.572,0.162c0.381,0.163,0.867,0.271,0.761,0.651
				c-0.108,0.381-0.487,0.598-0.487,0.598s-0.6,0.163-1.467,0.056c-0.869-0.112-0.813-0.165-1.248-0.165
				c-0.436,0-0.381,0.165-0.76-0.326c-0.381-0.486-0.163-0.867-0.762-1.192c-0.596-0.326-0.867-0.706-1.41-0.706
				s-0.977,0.054-1.465,0.271C493.393,249.169,492.632,249.061,493.12,248.788z"/>
		</g>
	</g>
	<path fill="#94B5C4" d="M509.231,259.49c-0.615-2.534-5.477-4.647-13.003-5.655c-2.794-0.374-5.729-0.563-8.729-0.563
		c-8.105,0-15.385,1.424-18.543,3.628c-1.764,1.23-1.904,2.432-1.713,3.221c0.402,1.654,2.613,3.129,6.196,4.234
		c-0.167-0.348-0.319-0.704-0.464-1.064c-3.173-1.089-4.641-2.365-4.886-3.375c-0.186-0.766,0.272-1.539,1.365-2.302
		c3.021-2.108,10.104-3.472,18.044-3.472c2.961,0,5.859,0.188,8.614,0.557c8.437,1.13,11.884,3.398,12.271,4.998
		c0.186,0.764-0.274,1.538-1.366,2.301c-0.428,0.299-0.777,0.508-1.357,0.775c-0.143,0.385-0.299,0.764-0.467,1.137
		c0.984-0.385,1.664-0.738,2.322-1.197C509.28,261.479,509.423,260.28,509.231,259.49z"/>
	<path fill="#94B5C4" d="M485.547,273.855c-1.702,1.19-3.185,1.853-4.272,1.853c-0.445,0-1.797,0-1.822-2.54
		c-0.055-5.241,5.607-15.854,12.622-23.66c4.12-4.583,8.086-7.431,10.353-7.431c0.444,0,1.796,0,1.822,2.539
		c0.01,0.83-0.072,1.611-0.334,2.68c0.215,0.336,0.42,0.681,0.609,1.033c0.431-1.479,0.607-2.621,0.596-3.723
		c-0.03-2.959-1.7-3.4-2.693-3.4c-2.582,0-6.592,2.813-11.001,7.721c-7.14,7.943-12.902,18.822-12.846,24.251
		c0.03,2.96,1.701,3.401,2.694,3.401c1.442,0,3.33-0.879,5.484-2.51C486.349,274.014,485.946,273.939,485.547,273.855z"/>
	<path fill="#FFFFFF" stroke="#94B5C4" stroke-miterlimit="10" d="M484.753,266.175h-0.311c0.03-0.104,0.047-0.213,0.047-0.326
		c0-0.635-0.515-1.15-1.15-1.15c-0.02,0-0.039,0.002-0.059,0.004c-0.203-0.883-0.934-1.537-1.802-1.537
		c-0.833,0-1.537,0.601-1.772,1.428c-0.059-0.007-0.115-0.012-0.175-0.012c-0.83,0-1.503,0.713-1.503,1.594h-0.354
		c-0.587,0-1.062,0.475-1.062,1.062c0,0.586,0.475,1.062,1.062,1.062h7.079c0.586,0,1.062-0.476,1.062-1.062
		C485.814,266.649,485.339,266.175,484.753,266.175z"/>
	<path fill="#94B5C4" d="M495.203,261.933c-5.245-9.302-13.716-18.237-18.88-19.918c-1.807-0.588-3.152-0.258-3.828,0.898
		c-0.813,1.395-0.58,3.918,0.584,7.154c0.164-0.393,0.342-0.777,0.535-1.154c-0.813-2.539-0.975-4.52-0.367-5.561
		c0.298-0.51,0.775-0.757,1.458-0.757c0.391,0,0.845,0.083,1.349,0.247c4.986,1.623,13.236,10.379,18.391,19.519
		c3.256,5.77,4.651,10.712,3.555,12.589c-0.469,0.803-1.421,0.963-2.809,0.51c-0.887-0.287-1.877-0.806-2.936-1.508
		c-0.41,0.074-0.824,0.135-1.244,0.178c1.42,1.034,2.75,1.781,3.91,2.16c0.592,0.191,1.137,0.289,1.619,0.289
		c0.992,0,1.756-0.41,2.211-1.189C500.039,273.185,498.713,268.154,495.203,261.933z"/>
	<path fill="#FFFFFF" stroke="#94B5C4" stroke-miterlimit="10" d="M484.971,245.81h-0.311c0.03-0.104,0.047-0.212,0.047-0.324
		c0-0.637-0.515-1.15-1.149-1.15c-0.021,0-0.039,0.001-0.06,0.002c-0.203-0.883-0.933-1.535-1.802-1.535
		c-0.832,0-1.537,0.6-1.773,1.427c-0.057-0.007-0.114-0.011-0.174-0.011c-0.83,0-1.504,0.713-1.504,1.592h-0.354
		c-0.586,0-1.063,0.476-1.063,1.063c0,0.586,0.477,1.061,1.063,1.061h7.079c0.586,0,1.062-0.475,1.062-1.061
		C486.032,246.285,485.557,245.81,484.971,245.81z"/>
	<path fill="#FFFFFF" stroke="#94B5C4" stroke-miterlimit="10" d="M506.604,255.356h-0.31c0.03-0.104,0.046-0.211,0.046-0.324
		c0-0.637-0.514-1.151-1.149-1.151c-0.021,0-0.039,0.002-0.059,0.003c-0.203-0.882-0.933-1.535-1.802-1.535
		c-0.832,0-1.537,0.6-1.773,1.428c-0.057-0.008-0.115-0.012-0.174-0.012c-0.83,0-1.504,0.713-1.504,1.592h-0.354
		c-0.587,0-1.063,0.476-1.063,1.063c0,0.586,0.476,1.063,1.063,1.063h7.078c0.586,0,1.063-0.477,1.063-1.063
		C507.667,255.832,507.19,255.356,506.604,255.356z"/>
	<path fill="#FFFFFF" stroke="#94B5C4" stroke-miterlimit="10" d="M492.013,254.631h-0.311c0.03-0.104,0.047-0.212,0.047-0.325
		c0-0.635-0.514-1.15-1.15-1.15c-0.02,0-0.039,0.002-0.059,0.002c-0.203-0.882-0.933-1.535-1.803-1.535
		c-0.832,0-1.537,0.6-1.772,1.428c-0.058-0.008-0.114-0.012-0.173-0.012c-0.83,0-1.505,0.713-1.505,1.593h-0.353
		c-0.588,0-1.063,0.476-1.063,1.062s0.475,1.063,1.063,1.063h7.078c0.586,0,1.061-0.477,1.061-1.063
		S492.599,254.631,492.013,254.631z"/>
	<path fill="#FFFFFF" stroke="#94B5C4" stroke-miterlimit="10" d="M499.78,245.81h-0.311c0.031-0.104,0.047-0.212,0.047-0.324
		c0-0.637-0.514-1.15-1.149-1.15c-0.021,0-0.039,0.001-0.06,0.002c-0.203-0.883-0.932-1.535-1.802-1.535
		c-0.832,0-1.536,0.6-1.772,1.427c-0.059-0.007-0.115-0.011-0.174-0.011c-0.83,0-1.504,0.713-1.504,1.592h-0.354
		c-0.587,0-1.063,0.476-1.063,1.063c0,0.586,0.476,1.061,1.063,1.061h7.078c0.586,0,1.063-0.475,1.063-1.061
		C500.843,246.285,500.366,245.81,499.78,245.81z"/>
	<path fill="#FFFFFF" stroke="#94B5C4" stroke-miterlimit="10" d="M499.563,266.175h-0.312c0.03-0.104,0.048-0.213,0.048-0.326
		c0-0.635-0.516-1.15-1.15-1.15c-0.021,0-0.039,0.002-0.06,0.004c-0.202-0.883-0.933-1.537-1.802-1.537
		c-0.832,0-1.537,0.601-1.773,1.428c-0.057-0.007-0.113-0.012-0.174-0.012c-0.83,0-1.503,0.713-1.503,1.594h-0.354
		c-0.586,0-1.062,0.475-1.062,1.062c0,0.586,0.476,1.062,1.062,1.062h7.08c0.586,0,1.061-0.476,1.061-1.062
		C500.624,266.649,500.149,266.175,499.563,266.175z"/>
	<path fill="#FFFFFF" stroke="#94B5C4" stroke-miterlimit="10" d="M478.292,255.284h-0.312c0.03-0.104,0.048-0.213,0.048-0.326
		c0-0.635-0.516-1.15-1.15-1.15c-0.02,0-0.039,0.003-0.059,0.004c-0.203-0.883-0.934-1.536-1.803-1.536
		c-0.832,0-1.537,0.601-1.773,1.427c-0.057-0.006-0.113-0.011-0.172-0.011c-0.832,0-1.505,0.713-1.505,1.593h-0.354
		c-0.586,0-1.061,0.476-1.061,1.063c0,0.586,0.475,1.061,1.061,1.061h7.08c0.586,0,1.061-0.475,1.061-1.061
		C479.353,255.76,478.878,255.284,478.292,255.284z"/>
</g>
<g>
	<g>
		<path fill="#94B5C4" d="M513.035,239.787c-1.185,0-2.149-0.965-2.149-2.15c0-1.185,0.965-2.149,2.149-2.149
			c1.186,0,2.15,0.965,2.15,2.149C515.186,238.822,514.221,239.787,513.035,239.787z M513.035,236.287
			c-0.744,0-1.35,0.605-1.35,1.35c0,0.745,0.605,1.351,1.35,1.351c0.745,0,1.351-0.605,1.351-1.351
			C514.386,236.893,513.78,236.287,513.035,236.287z"/>
		<path fill="#94B5C4" d="M513.035,241.277c-2.006,0-3.639-1.633-3.639-3.641c0-2.007,1.633-3.64,3.639-3.64
			c2.008,0,3.641,1.633,3.641,3.64C516.676,239.645,515.043,241.277,513.035,241.277z M513.035,234.797
			c-1.564,0-2.838,1.274-2.838,2.84c0,1.566,1.273,2.841,2.838,2.841c1.566,0,2.842-1.274,2.842-2.841
			C515.877,236.071,514.602,234.797,513.035,234.797z"/>
	</g>
	<g>
		<path fill="#94B5C4" d="M513.035,275.887c-1.185,0-2.149-0.965-2.149-2.149c0-1.186,0.965-2.15,2.149-2.15
			c1.186,0,2.15,0.965,2.15,2.15C515.186,274.922,514.221,275.887,513.035,275.887z M513.035,272.387
			c-0.744,0-1.35,0.605-1.35,1.351c0,0.744,0.605,1.35,1.35,1.35c0.745,0,1.351-0.605,1.351-1.35
			C514.386,272.992,513.78,272.387,513.035,272.387z"/>
		<path fill="#94B5C4" d="M513.035,277.378c-2.006,0-3.639-1.633-3.639-3.641s1.633-3.641,3.639-3.641
			c2.008,0,3.641,1.633,3.641,3.641S515.043,277.378,513.035,277.378z M513.035,270.897c-1.564,0-2.838,1.273-2.838,2.84
			s1.273,2.84,2.838,2.84c1.566,0,2.842-1.273,2.842-2.84S514.602,270.897,513.035,270.897z"/>
	</g>
	<g>
		<path fill="#94B5C4" d="M531.136,293.687c-1.185,0-2.149-0.965-2.149-2.149c0-1.186,0.965-2.15,2.149-2.15s2.149,0.965,2.149,2.15
			C533.285,292.722,532.32,293.687,531.136,293.687z M531.136,290.187c-0.745,0-1.351,0.605-1.351,1.351
			c0,0.744,0.605,1.35,1.351,1.35s1.351-0.605,1.351-1.35C532.486,290.792,531.881,290.187,531.136,290.187z"/>
		<path fill="#94B5C4" d="M531.136,295.178c-2.007,0-3.64-1.633-3.64-3.641c0-2.007,1.633-3.64,3.64-3.64
			c2.008,0,3.641,1.633,3.641,3.64C534.776,293.545,533.144,295.178,531.136,295.178z M531.136,288.697
			c-1.565,0-2.839,1.274-2.839,2.84c0,1.566,1.273,2.841,2.839,2.841c1.566,0,2.841-1.274,2.841-2.841
			C533.977,289.972,532.702,288.697,531.136,288.697z"/>
	</g>
	<g>
		<path fill="#94B5C4" d="M548.736,257.987c-1.186,0-2.15-0.965-2.15-2.15s0.965-2.15,2.15-2.15c1.185,0,2.149,0.965,2.149,2.15
			S549.921,257.987,548.736,257.987z M548.736,254.487c-0.745,0-1.351,0.605-1.351,1.35s0.605,1.35,1.351,1.35
			c0.744,0,1.35-0.605,1.35-1.35S549.48,254.487,548.736,254.487z"/>
		<path fill="#94B5C4" d="M548.736,259.478c-2.007,0-3.64-1.633-3.64-3.641c0-2.007,1.633-3.64,3.64-3.64
			c2.008,0,3.641,1.633,3.641,3.64C552.377,257.845,550.744,259.478,548.736,259.478z M548.736,252.997
			c-1.566,0-2.84,1.274-2.84,2.84c0,1.566,1.273,2.841,2.84,2.841s2.84-1.274,2.84-2.841
			C551.576,254.271,550.303,252.997,548.736,252.997z"/>
	</g>
	<g>
		<path fill="#94B5C4" d="M566.736,257.987c-1.186,0-2.15-0.965-2.15-2.15s0.965-2.15,2.15-2.15c1.185,0,2.149,0.965,2.149,2.15
			S567.921,257.987,566.736,257.987z M566.736,254.487c-0.745,0-1.351,0.605-1.351,1.35s0.605,1.35,1.351,1.35
			c0.744,0,1.35-0.605,1.35-1.35S567.48,254.487,566.736,254.487z"/>
		<path fill="#94B5C4" d="M566.736,259.478c-2.007,0-3.64-1.633-3.64-3.641c0-2.007,1.633-3.64,3.64-3.64
			c2.008,0,3.641,1.633,3.641,3.64C570.377,257.845,568.744,259.478,566.736,259.478z M566.736,252.997
			c-1.566,0-2.84,1.274-2.84,2.84c0,1.566,1.273,2.841,2.84,2.841s2.84-1.274,2.84-2.841
			C569.576,254.271,568.303,252.997,566.736,252.997z"/>
	</g>
	<g>
		<path fill="#94B5C4" d="M566.736,239.787c-1.186,0-2.15-0.965-2.15-2.15c0-1.185,0.965-2.149,2.15-2.149
			c1.185,0,2.149,0.965,2.149,2.149C568.886,238.822,567.921,239.787,566.736,239.787z M566.736,236.287
			c-0.745,0-1.351,0.605-1.351,1.35c0,0.745,0.605,1.351,1.351,1.351c0.744,0,1.35-0.605,1.35-1.351
			C568.086,236.893,567.48,236.287,566.736,236.287z"/>
		<path fill="#94B5C4" d="M566.736,241.277c-2.007,0-3.64-1.633-3.64-3.641c0-2.007,1.633-3.64,3.64-3.64
			c2.008,0,3.641,1.633,3.641,3.64C570.377,239.645,568.744,241.277,566.736,241.277z M566.736,234.797
			c-1.566,0-2.84,1.274-2.84,2.84c0,1.566,1.273,2.841,2.84,2.841s2.84-1.274,2.84-2.841
			C569.576,236.071,568.303,234.797,566.736,234.797z"/>
	</g>
	<g>
		<path fill="#94B5C4" d="M566.736,293.687c-1.186,0-2.15-0.965-2.15-2.149c0-1.186,0.965-2.15,2.15-2.15
			c1.185,0,2.149,0.965,2.149,2.15C568.886,292.722,567.921,293.687,566.736,293.687z M566.736,290.187
			c-0.745,0-1.351,0.605-1.351,1.351c0,0.744,0.605,1.35,1.351,1.35c0.744,0,1.35-0.605,1.35-1.35
			C568.086,290.792,567.48,290.187,566.736,290.187z"/>
		<path fill="#94B5C4" d="M566.736,295.178c-2.007,0-3.64-1.633-3.64-3.641c0-2.007,1.633-3.64,3.64-3.64
			c2.008,0,3.641,1.633,3.641,3.64C570.377,293.545,568.744,295.178,566.736,295.178z M566.736,288.697
			c-1.566,0-2.84,1.274-2.84,2.84c0,1.566,1.273,2.841,2.84,2.841s2.84-1.274,2.84-2.841
			C569.576,289.972,568.303,288.697,566.736,288.697z"/>
	</g>
	<circle fill="#94B5C4" cx="531.031" cy="237.937" r="1.7"/>
	<circle fill="#94B5C4" cx="531.031" cy="273.837" r="1.7"/>
	<circle fill="#94B5C4" cx="566.631" cy="273.837" r="1.7"/>
	<circle fill="#94B5C4" cx="548.631" cy="291.537" r="1.7"/>
	<circle fill="#94B5C4" cx="513.031" cy="256.338" r="1.7"/>
	<circle fill="#94B5C4" cx="513.031" cy="290.737" r="1.7"/>
	<circle fill="#94B5C4" cx="548.931" cy="237.937" r="1.7"/>
	<ellipse fill="#94B5C4" cx="546.781" cy="271.037" rx="0.05" ry="0.1"/>
	<circle fill="#94B5C4" cx="548.781" cy="273.387" r="2.45"/>
	<path fill="#94B5C4" d="M530.881,258.137c-1.186,0-2.15-0.965-2.15-2.149c0-1.186,0.965-2.15,2.15-2.15s2.15,0.965,2.15,2.15
		C533.031,257.172,532.066,258.137,530.881,258.137z M530.881,254.637c-0.744,0-1.35,0.605-1.35,1.351c0,0.744,0.605,1.35,1.35,1.35
		s1.35-0.605,1.35-1.35C532.23,255.242,531.625,254.637,530.881,254.637z"/>
	
		<rect x="513.428" y="246.387" transform="matrix(0.7043 0.7099 -0.7099 0.7043 329.9236 -297.6476)" fill="#94B5C4" width="17.607" height="1.6"/>
	
		<rect x="521.331" y="255.666" transform="matrix(0.7105 0.7037 -0.7037 0.7105 337.0991 -290.9517)" fill="#94B5C4" width="1.6" height="17.042"/>
	
		<rect x="513.944" y="281.787" transform="matrix(0.7005 0.7136 -0.7136 0.7005 357.8643 -287.5876)" fill="#94B5C4" width="15.273" height="1.6"/>
	<rect x="534.23" y="254.737" fill="#94B5C4" width="9.4" height="1.6"/>
	<rect x="552.831" y="254.737" fill="#94B5C4" width="9.399" height="1.6"/>
	
		<rect x="556.981" y="238.809" transform="matrix(0.7225 0.6914 -0.6914 0.7225 325.4432 -317.1375)" fill="#94B5C4" width="1.6" height="16.056"/>
	<path fill="#94B5C4" d="M567.331,251.046l-1.601-0.019c0.037-3.079,0.073-8.152,0.014-8.655l1.563-0.329
		C567.338,242.167,567.433,242.543,567.331,251.046z"/>
</g>
<g>
	<g>
		<path fill="#94B5C4" d="M254.936,214.935c0,0.11,0,0.207,0,0.306c0,1.918,0,3.836-0.001,5.755c0,0.327,0.1,0.606,0.377,0.797
			c0.337,0.23,0.703,0.262,1.059,0.063c0.333-0.188,0.46-0.505,0.46-0.878c0-2.234-0.007-4.469,0.003-6.704
			c0.005-1.491-1.175-2.863-2.831-2.858c-1.603,0.004-3.205,0-4.809,0.002c-0.589,0.001-1.136,0.156-1.608,0.508
			c-0.84,0.622-1.224,1.466-1.218,2.513c0.013,2.126,0.004,4.254,0.005,6.38c0,0.099-0.001,0.199,0.01,0.298
			c0.082,0.742,0.902,1.112,1.516,0.686c0.3-0.207,0.363-0.519,0.363-0.854c0-1.919,0.002-3.837-0.003-5.756
			c-0.001-0.195,0.041-0.277,0.26-0.279c0.233-0.002,0.248,0.104,0.248,0.287c-0.004,2.933-0.003,5.864-0.003,8.798
			c0,2.566-0.001,5.134,0.001,7.701c0,0.599,0.345,1.102,0.862,1.269c0.915,0.296,1.719-0.277,1.719-1.239
			c0.002-3.122,0.001-6.246,0.001-9.369c0-0.104,0-0.206,0-0.309c0.206,0,0.369,0,0.552,0c0,0.114,0,0.213,0,0.31
			c0,3.09,0,6.182,0.002,9.272c0,0.154,0.009,0.315,0.041,0.469c0.179,0.847,1.303,1.232,1.987,0.701
			c0.4-0.31,0.492-0.716,0.492-1.185c-0.003-5.415-0.002-10.833-0.002-16.248C254.418,214.895,254.418,214.895,254.936,214.935z
			 M251.616,210.832c1.251-0.006,2.187-0.938,2.176-2.17c-0.01-1.186-0.999-2.167-2.183-2.168c-1.206-0.001-2.163,0.973-2.158,2.199
			C249.457,209.936,250.37,210.838,251.616,210.832z"/>
		<path fill="#94B5C4" d="M254.936,214.935c-0.518-0.04-0.518-0.04-0.518,0.433c0,5.415-0.001,10.833,0.002,16.248
			c0,0.469-0.092,0.875-0.492,1.185c-0.685,0.531-1.809,0.146-1.987-0.701c-0.032-0.153-0.041-0.314-0.041-0.469
			c-0.002-3.091-0.002-6.183-0.002-9.272c0-0.097,0-0.195,0-0.31c-0.183,0-0.346,0-0.552,0c0,0.103,0,0.205,0,0.309
			c0,3.123,0.001,6.247-0.001,9.369c0,0.962-0.804,1.535-1.719,1.239c-0.518-0.167-0.862-0.67-0.862-1.269
			c-0.002-2.567-0.001-5.135-0.001-7.701c0-2.934-0.001-5.865,0.003-8.798c0-0.183-0.015-0.289-0.248-0.287
			c-0.219,0.002-0.261,0.084-0.26,0.279c0.005,1.919,0.003,3.837,0.003,5.756c0,0.336-0.063,0.647-0.363,0.854
			c-0.613,0.427-1.434,0.057-1.516-0.686c-0.011-0.099-0.01-0.199-0.01-0.298c-0.001-2.126,0.008-4.254-0.005-6.38
			c-0.006-1.047,0.378-1.891,1.218-2.513c0.473-0.352,1.02-0.507,1.608-0.508c1.604-0.002,3.206,0.002,4.809-0.002
			c1.656-0.005,2.836,1.367,2.831,2.858c-0.01,2.235-0.003,4.47-0.003,6.704c0,0.373-0.127,0.69-0.46,0.878
			c-0.355,0.199-0.722,0.168-1.059-0.063c-0.277-0.19-0.377-0.47-0.377-0.797c0.001-1.919,0.001-3.837,0.001-5.755
			C254.936,215.142,254.936,215.045,254.936,214.935z"/>
		<path fill="#94B5C4" d="M251.616,210.832c-1.246,0.006-2.159-0.896-2.165-2.139c-0.005-1.227,0.952-2.2,2.158-2.199
			c1.184,0.001,2.173,0.982,2.183,2.168C253.803,209.894,252.867,210.826,251.616,210.832z"/>
	</g>
	<g>
		<path fill="#94B5C4" d="M284.991,214.935c0,0.11,0,0.207,0,0.306c0,1.918,0,3.836-0.001,5.755c0,0.327,0.1,0.606,0.378,0.797
			c0.337,0.23,0.703,0.262,1.058,0.063c0.333-0.188,0.46-0.505,0.46-0.878c0-2.234-0.006-4.469,0.003-6.704
			c0.005-1.491-1.175-2.863-2.83-2.858c-1.603,0.004-3.206,0-4.81,0.002c-0.588,0.001-1.136,0.156-1.608,0.508
			c-0.84,0.622-1.223,1.466-1.217,2.513c0.012,2.126,0.003,4.254,0.004,6.38c0,0.099-0.001,0.199,0.01,0.298
			c0.083,0.742,0.902,1.112,1.517,0.686c0.299-0.207,0.362-0.519,0.362-0.854c0-1.919,0.002-3.837-0.003-5.756
			c-0.001-0.195,0.042-0.277,0.26-0.279c0.233-0.002,0.248,0.104,0.248,0.287c-0.004,2.933-0.003,5.864-0.003,8.798
			c0,2.566-0.001,5.134,0.001,7.701c0,0.599,0.346,1.102,0.862,1.269c0.915,0.296,1.719-0.277,1.719-1.239
			c0.002-3.122,0.001-6.246,0.001-9.369c0-0.104,0-0.206,0-0.309c0.207,0,0.369,0,0.553,0c0,0.114,0,0.213,0,0.31
			c0,3.09,0,6.182,0.002,9.272c0,0.154,0.008,0.315,0.04,0.469c0.179,0.847,1.303,1.232,1.987,0.701
			c0.4-0.31,0.492-0.716,0.492-1.185c-0.003-5.415-0.002-10.833-0.002-16.248C284.474,214.895,284.474,214.895,284.991,214.935z
			 M281.672,210.832c1.252-0.006,2.188-0.938,2.176-2.17c-0.01-1.186-0.998-2.167-2.183-2.168c-1.206-0.001-2.162,0.973-2.157,2.199
			C279.513,209.936,280.426,210.838,281.672,210.832z"/>
		<path fill="#94B5C4" d="M284.991,214.935c-0.518-0.04-0.518-0.04-0.518,0.433c0,5.415-0.001,10.833,0.002,16.248
			c0,0.469-0.092,0.875-0.492,1.185c-0.685,0.531-1.809,0.146-1.987-0.701c-0.032-0.153-0.04-0.314-0.04-0.469
			c-0.002-3.091-0.002-6.183-0.002-9.272c0-0.097,0-0.195,0-0.31c-0.184,0-0.346,0-0.553,0c0,0.103,0,0.205,0,0.309
			c0,3.123,0.001,6.247-0.001,9.369c0,0.962-0.804,1.535-1.719,1.239c-0.517-0.167-0.862-0.67-0.862-1.269
			c-0.002-2.567-0.001-5.135-0.001-7.701c0-2.934-0.001-5.865,0.003-8.798c0-0.183-0.015-0.289-0.248-0.287
			c-0.218,0.002-0.261,0.084-0.26,0.279c0.005,1.919,0.003,3.837,0.003,5.756c0,0.336-0.063,0.647-0.362,0.854
			c-0.614,0.427-1.434,0.057-1.517-0.686c-0.011-0.099-0.01-0.199-0.01-0.298c-0.001-2.126,0.008-4.254-0.004-6.38
			c-0.006-1.047,0.377-1.891,1.217-2.513c0.473-0.352,1.021-0.507,1.608-0.508c1.604-0.002,3.207,0.002,4.81-0.002
			c1.655-0.005,2.835,1.367,2.83,2.858c-0.009,2.235-0.003,4.47-0.003,6.704c0,0.373-0.127,0.69-0.46,0.878
			c-0.354,0.199-0.721,0.168-1.058-0.063c-0.278-0.19-0.378-0.47-0.378-0.797c0.001-1.919,0.001-3.837,0.001-5.755
			C284.991,215.142,284.991,215.045,284.991,214.935z"/>
		<path fill="#94B5C4" d="M281.672,210.832c-1.246,0.006-2.159-0.896-2.164-2.139c-0.005-1.227,0.951-2.2,2.157-2.199
			c1.185,0.001,2.173,0.982,2.183,2.168C283.859,209.894,282.924,210.826,281.672,210.832z"/>
	</g>
	<g>
		<path fill="#94B5C4" d="M315.048,214.935c0,0.11,0,0.207,0,0.306c0,1.918,0,3.836-0.001,5.755c0,0.327,0.1,0.606,0.377,0.797
			c0.337,0.23,0.703,0.262,1.059,0.063c0.333-0.188,0.459-0.505,0.459-0.878c0-2.234-0.006-4.469,0.003-6.704
			c0.006-1.491-1.175-2.863-2.83-2.858c-1.603,0.004-3.206,0-4.809,0.002c-0.589,0.001-1.136,0.156-1.608,0.508
			c-0.84,0.622-1.224,1.466-1.218,2.513c0.013,2.126,0.003,4.254,0.004,6.38c0,0.099-0.001,0.199,0.011,0.298
			c0.082,0.742,0.902,1.112,1.516,0.686c0.3-0.207,0.363-0.519,0.363-0.854c0-1.919,0.002-3.837-0.003-5.756
			c-0.001-0.195,0.041-0.277,0.259-0.279c0.233-0.002,0.249,0.104,0.249,0.287c-0.004,2.933-0.003,5.864-0.003,8.798
			c0,2.566-0.001,5.134,0.001,7.701c0,0.599,0.345,1.102,0.862,1.269c0.915,0.296,1.719-0.277,1.719-1.239
			c0.002-3.122,0.001-6.246,0.001-9.369c0-0.104,0-0.206,0-0.309c0.206,0,0.369,0,0.552,0c0,0.114,0,0.213,0,0.31
			c0,3.09,0,6.182,0.002,9.272c0,0.154,0.009,0.315,0.041,0.469c0.179,0.847,1.302,1.232,1.987,0.701
			c0.4-0.31,0.491-0.716,0.491-1.185c-0.003-5.415-0.002-10.833-0.002-16.248C314.529,214.895,314.529,214.895,315.048,214.935z
			 M311.729,210.832c1.251-0.006,2.187-0.938,2.176-2.17c-0.011-1.186-0.999-2.167-2.183-2.168
			c-1.206-0.001-2.163,0.973-2.158,2.199C309.568,209.936,310.482,210.838,311.729,210.832z"/>
		<path fill="#94B5C4" d="M315.048,214.935c-0.519-0.04-0.519-0.04-0.519,0.433c0,5.415-0.001,10.833,0.002,16.248
			c0,0.469-0.091,0.875-0.491,1.185c-0.686,0.531-1.809,0.146-1.987-0.701c-0.032-0.153-0.041-0.314-0.041-0.469
			c-0.002-3.091-0.002-6.183-0.002-9.272c0-0.097,0-0.195,0-0.31c-0.183,0-0.346,0-0.552,0c0,0.103,0,0.205,0,0.309
			c0,3.123,0.001,6.247-0.001,9.369c0,0.962-0.804,1.535-1.719,1.239c-0.518-0.167-0.862-0.67-0.862-1.269
			c-0.002-2.567-0.001-5.135-0.001-7.701c0-2.934-0.001-5.865,0.003-8.798c0-0.183-0.016-0.289-0.249-0.287
			c-0.218,0.002-0.26,0.084-0.259,0.279c0.005,1.919,0.003,3.837,0.003,5.756c0,0.336-0.063,0.647-0.363,0.854
			c-0.613,0.427-1.434,0.057-1.516-0.686c-0.012-0.099-0.011-0.199-0.011-0.298c-0.001-2.126,0.009-4.254-0.004-6.38
			c-0.006-1.047,0.378-1.891,1.218-2.513c0.473-0.352,1.02-0.507,1.608-0.508c1.603-0.002,3.206,0.002,4.809-0.002
			c1.655-0.005,2.836,1.367,2.83,2.858c-0.009,2.235-0.003,4.47-0.003,6.704c0,0.373-0.126,0.69-0.459,0.878
			c-0.355,0.199-0.722,0.168-1.059-0.063c-0.277-0.19-0.377-0.47-0.377-0.797c0.001-1.919,0.001-3.837,0.001-5.755
			C315.048,215.142,315.048,215.045,315.048,214.935z"/>
		<path fill="#94B5C4" d="M311.729,210.832c-1.246,0.006-2.16-0.896-2.165-2.139c-0.005-1.227,0.952-2.2,2.158-2.199
			c1.184,0.001,2.172,0.982,2.183,2.168C313.915,209.894,312.979,210.826,311.729,210.832z"/>
	</g>
	<g>
		<path fill="#94B5C4" d="M345.104,214.935c0,0.11,0,0.207,0,0.306c0,1.918,0,3.836-0.001,5.755c0,0.327,0.1,0.606,0.378,0.797
			c0.337,0.23,0.702,0.262,1.058,0.063c0.333-0.188,0.46-0.505,0.46-0.878c0-2.234-0.006-4.469,0.003-6.704
			c0.005-1.491-1.175-2.863-2.831-2.858c-1.602,0.004-3.205,0-4.809,0.002c-0.589,0.001-1.136,0.156-1.608,0.508
			c-0.84,0.622-1.223,1.466-1.217,2.513c0.012,2.126,0.003,4.254,0.004,6.38c0,0.099-0.001,0.199,0.01,0.298
			c0.083,0.742,0.902,1.112,1.516,0.686c0.3-0.207,0.363-0.519,0.363-0.854c0-1.919,0.002-3.837-0.003-5.756
			c-0.001-0.195,0.041-0.277,0.26-0.279c0.233-0.002,0.248,0.104,0.248,0.287c-0.004,2.933-0.003,5.864-0.003,8.798
			c0,2.566-0.001,5.134,0.001,7.701c0,0.599,0.346,1.102,0.862,1.269c0.915,0.296,1.719-0.277,1.719-1.239
			c0.002-3.122,0.001-6.246,0.001-9.369c0-0.104,0-0.206,0-0.309c0.206,0,0.369,0,0.553,0c0,0.114,0,0.213,0,0.31
			c0,3.09,0,6.182,0.002,9.272c0,0.154,0.008,0.315,0.04,0.469c0.179,0.847,1.303,1.232,1.987,0.701
			c0.4-0.31,0.492-0.716,0.492-1.185c-0.003-5.415-0.002-10.833-0.002-16.248C344.586,214.895,344.586,214.895,345.104,214.935z
			 M341.784,210.832c1.252-0.006,2.188-0.938,2.176-2.17c-0.01-1.186-0.999-2.167-2.183-2.168c-1.206-0.001-2.162,0.973-2.157,2.199
			C339.625,209.936,340.538,210.838,341.784,210.832z"/>
		<path fill="#94B5C4" d="M345.104,214.935c-0.518-0.04-0.518-0.04-0.518,0.433c0,5.415-0.001,10.833,0.002,16.248
			c0,0.469-0.092,0.875-0.492,1.185c-0.685,0.531-1.809,0.146-1.987-0.701c-0.032-0.153-0.04-0.314-0.04-0.469
			c-0.002-3.091-0.002-6.183-0.002-9.272c0-0.097,0-0.195,0-0.31c-0.184,0-0.347,0-0.553,0c0,0.103,0,0.205,0,0.309
			c0,3.123,0.001,6.247-0.001,9.369c0,0.962-0.804,1.535-1.719,1.239c-0.517-0.167-0.862-0.67-0.862-1.269
			c-0.002-2.567-0.001-5.135-0.001-7.701c0-2.934-0.001-5.865,0.003-8.798c0-0.183-0.015-0.289-0.248-0.287
			c-0.219,0.002-0.261,0.084-0.26,0.279c0.005,1.919,0.003,3.837,0.003,5.756c0,0.336-0.063,0.647-0.363,0.854
			c-0.613,0.427-1.433,0.057-1.516-0.686c-0.011-0.099-0.01-0.199-0.01-0.298c-0.001-2.126,0.008-4.254-0.004-6.38
			c-0.006-1.047,0.377-1.891,1.217-2.513c0.473-0.352,1.02-0.507,1.608-0.508c1.604-0.002,3.207,0.002,4.809-0.002
			c1.656-0.005,2.836,1.367,2.831,2.858c-0.009,2.235-0.003,4.47-0.003,6.704c0,0.373-0.127,0.69-0.46,0.878
			c-0.355,0.199-0.721,0.168-1.058-0.063c-0.278-0.19-0.378-0.47-0.378-0.797c0.001-1.919,0.001-3.837,0.001-5.755
			C345.104,215.142,345.104,215.045,345.104,214.935z"/>
		<path fill="#94B5C4" d="M341.784,210.832c-1.246,0.006-2.159-0.896-2.164-2.139c-0.005-1.227,0.951-2.2,2.157-2.199
			c1.184,0.001,2.173,0.982,2.183,2.168C343.972,209.894,343.036,210.826,341.784,210.832z"/>
	</g>
	<circle fill="#E8BA80" stroke="#FFFFFF" stroke-miterlimit="10" cx="372.09" cy="220.046" r="16.823"/>
	<g>
		<path fill="#FFFFFF" d="M375.16,214.935c0,0.11,0,0.207,0,0.306c0,1.918,0,3.836-0.001,5.755c0,0.327,0.1,0.606,0.377,0.797
			c0.337,0.23,0.703,0.262,1.059,0.063c0.332-0.188,0.459-0.505,0.459-0.878c0-2.234-0.006-4.469,0.003-6.704
			c0.005-1.491-1.175-2.863-2.83-2.858c-1.603,0.004-3.206,0-4.81,0.002c-0.588,0.001-1.135,0.156-1.608,0.508
			c-0.84,0.622-1.223,1.466-1.217,2.513c0.013,2.126,0.003,4.254,0.004,6.38c0,0.099-0.001,0.199,0.011,0.298
			c0.082,0.742,0.902,1.112,1.516,0.686c0.3-0.207,0.363-0.519,0.363-0.854c0-1.919,0.002-3.837-0.003-5.756
			c-0.001-0.195,0.041-0.277,0.259-0.279c0.233-0.002,0.249,0.104,0.249,0.287c-0.004,2.933-0.003,5.864-0.003,8.798
			c0,2.566-0.001,5.134,0.001,7.701c0,0.599,0.345,1.102,0.861,1.269c0.916,0.296,1.72-0.277,1.72-1.239
			c0.002-3.122,0.001-6.246,0.001-9.369c0-0.104,0-0.206,0-0.309c0.206,0,0.369,0,0.552,0c0,0.114,0,0.213,0,0.31
			c0,3.09,0,6.182,0.002,9.272c0,0.154,0.008,0.315,0.04,0.469c0.18,0.847,1.303,1.232,1.988,0.701
			c0.4-0.31,0.491-0.716,0.491-1.185c-0.003-5.415-0.002-10.833-0.002-16.248C374.642,214.895,374.642,214.895,375.16,214.935z
			 M371.841,210.832c1.251-0.006,2.187-0.938,2.176-2.17c-0.011-1.186-0.999-2.167-2.183-2.168
			c-1.206-0.001-2.163,0.973-2.158,2.199C369.681,209.936,370.595,210.838,371.841,210.832z"/>
		<path fill="#FFFFFF" d="M375.16,214.935c-0.519-0.04-0.519-0.04-0.519,0.433c0,5.415-0.001,10.833,0.002,16.248
			c0,0.469-0.091,0.875-0.491,1.185c-0.686,0.531-1.809,0.146-1.988-0.701c-0.032-0.153-0.04-0.314-0.04-0.469
			c-0.002-3.091-0.002-6.183-0.002-9.272c0-0.097,0-0.195,0-0.31c-0.183,0-0.346,0-0.552,0c0,0.103,0,0.205,0,0.309
			c0,3.123,0.001,6.247-0.001,9.369c0,0.962-0.804,1.535-1.72,1.239c-0.517-0.167-0.861-0.67-0.861-1.269
			c-0.002-2.567-0.001-5.135-0.001-7.701c0-2.934-0.001-5.865,0.003-8.798c0-0.183-0.016-0.289-0.249-0.287
			c-0.218,0.002-0.26,0.084-0.259,0.279c0.005,1.919,0.003,3.837,0.003,5.756c0,0.336-0.063,0.647-0.363,0.854
			c-0.613,0.427-1.434,0.057-1.516-0.686c-0.012-0.099-0.011-0.199-0.011-0.298c-0.001-2.126,0.009-4.254-0.004-6.38
			c-0.006-1.047,0.377-1.891,1.217-2.513c0.474-0.352,1.021-0.507,1.608-0.508c1.604-0.002,3.207,0.002,4.81-0.002
			c1.655-0.005,2.835,1.367,2.83,2.858c-0.009,2.235-0.003,4.47-0.003,6.704c0,0.373-0.127,0.69-0.459,0.878
			c-0.355,0.199-0.722,0.168-1.059-0.063c-0.277-0.19-0.377-0.47-0.377-0.797c0.001-1.919,0.001-3.837,0.001-5.755
			C375.16,215.142,375.16,215.045,375.16,214.935z"/>
		<path fill="#FFFFFF" d="M371.841,210.832c-1.246,0.006-2.16-0.896-2.165-2.139c-0.005-1.227,0.952-2.2,2.158-2.199
			c1.184,0.001,2.172,0.982,2.183,2.168C374.027,209.894,373.092,210.826,371.841,210.832z"/>
	</g>
	<g>
		<path fill="#94B5C4" d="M405.216,214.935c0,0.11,0,0.207,0,0.306c0,1.918,0,3.836-0.001,5.755c0,0.327,0.1,0.606,0.377,0.797
			c0.337,0.23,0.703,0.262,1.059,0.063c0.333-0.188,0.46-0.505,0.46-0.878c0-2.234-0.007-4.469,0.003-6.704
			c0.005-1.491-1.175-2.863-2.831-2.858c-1.602,0.004-3.205,0-4.809,0.002c-0.589,0.001-1.136,0.156-1.608,0.508
			c-0.84,0.622-1.224,1.466-1.217,2.513c0.012,2.126,0.003,4.254,0.004,6.38c0,0.099-0.001,0.199,0.01,0.298
			c0.083,0.742,0.902,1.112,1.516,0.686c0.3-0.207,0.363-0.519,0.363-0.854c0-1.919,0.002-3.837-0.003-5.756
			c-0.001-0.195,0.041-0.277,0.26-0.279c0.233-0.002,0.248,0.104,0.248,0.287c-0.004,2.933-0.003,5.864-0.003,8.798
			c0,2.566-0.001,5.134,0.001,7.701c0,0.599,0.345,1.102,0.862,1.269c0.915,0.296,1.719-0.277,1.719-1.239
			c0.002-3.122,0.001-6.246,0.001-9.369c0-0.104,0-0.206,0-0.309c0.206,0,0.369,0,0.553,0c0,0.114,0,0.213,0,0.31
			c0,3.09,0,6.182,0.002,9.272c0,0.154,0.008,0.315,0.04,0.469c0.179,0.847,1.303,1.232,1.987,0.701
			c0.4-0.31,0.492-0.716,0.492-1.185c-0.003-5.415-0.002-10.833-0.002-16.248C404.698,214.895,404.698,214.895,405.216,214.935z
			 M401.896,210.832c1.251-0.006,2.187-0.938,2.176-2.17c-0.01-1.186-0.999-2.167-2.183-2.168c-1.206-0.001-2.163,0.973-2.157,2.199
			C399.737,209.936,400.65,210.838,401.896,210.832z"/>
		<path fill="#94B5C4" d="M405.216,214.935c-0.518-0.04-0.518-0.04-0.518,0.433c0,5.415-0.001,10.833,0.002,16.248
			c0,0.469-0.092,0.875-0.492,1.185c-0.685,0.531-1.809,0.146-1.987-0.701c-0.032-0.153-0.04-0.314-0.04-0.469
			c-0.002-3.091-0.002-6.183-0.002-9.272c0-0.097,0-0.195,0-0.31c-0.184,0-0.347,0-0.553,0c0,0.103,0,0.205,0,0.309
			c0,3.123,0.001,6.247-0.001,9.369c0,0.962-0.804,1.535-1.719,1.239c-0.518-0.167-0.862-0.67-0.862-1.269
			c-0.002-2.567-0.001-5.135-0.001-7.701c0-2.934-0.001-5.865,0.003-8.798c0-0.183-0.015-0.289-0.248-0.287
			c-0.219,0.002-0.261,0.084-0.26,0.279c0.005,1.919,0.003,3.837,0.003,5.756c0,0.336-0.063,0.647-0.363,0.854
			c-0.613,0.427-1.433,0.057-1.516-0.686c-0.011-0.099-0.01-0.199-0.01-0.298c-0.001-2.126,0.008-4.254-0.004-6.38
			c-0.007-1.047,0.377-1.891,1.217-2.513c0.473-0.352,1.02-0.507,1.608-0.508c1.604-0.002,3.207,0.002,4.809-0.002
			c1.656-0.005,2.836,1.367,2.831,2.858c-0.01,2.235-0.003,4.47-0.003,6.704c0,0.373-0.127,0.69-0.46,0.878
			c-0.355,0.199-0.722,0.168-1.059-0.063c-0.277-0.19-0.377-0.47-0.377-0.797c0.001-1.919,0.001-3.837,0.001-5.755
			C405.216,215.142,405.216,215.045,405.216,214.935z"/>
		<path fill="#94B5C4" d="M401.896,210.832c-1.246,0.006-2.159-0.896-2.164-2.139c-0.006-1.227,0.951-2.2,2.157-2.199
			c1.184,0.001,2.173,0.982,2.183,2.168C404.083,209.894,403.147,210.826,401.896,210.832z"/>
	</g>
</g>
<g opacity="0.2">
	<rect x="561.241" y="272.319" fill="#94B5C4" width="2.723" height="2.227"/>
	<rect x="550.599" y="272.319" fill="#94B5C4" width="2.723" height="2.227"/>
	<rect x="556.909" y="284.817" fill="#94B5C4" width="2.724" height="2.229"/>
	<rect x="556.909" y="290.758" fill="#94B5C4" width="2.724" height="2.228"/>
	<rect x="556.909" y="295.461" fill="#94B5C4" width="2.724" height="2.228"/>
	<rect x="565.077" y="306.599" fill="#94B5C4" width="2.723" height="2.227"/>
	<rect x="570.398" y="306.599" fill="#94B5C4" width="2.723" height="2.227"/>
	<rect x="556.909" y="321.942" fill="#94B5C4" width="2.724" height="2.229"/>
	<rect x="556.786" y="327.265" fill="#94B5C4" width="2.723" height="2.228"/>
	<rect x="566.438" y="295.461" fill="#94B5C4" width="2.723" height="2.228"/>
	<rect x="548.742" y="327.265" fill="#94B5C4" width="2.723" height="2.228"/>
	<rect x="570.398" y="295.461" fill="#94B5C4" width="2.723" height="2.228"/>
	<rect x="570.398" y="316.993" fill="#94B5C4" width="2.723" height="2.227"/>
	<rect x="566.315" y="327.265" fill="#94B5C4" width="2.722" height="2.228"/>
	<rect x="566.438" y="332.214" fill="#94B5C4" width="2.723" height="2.229"/>
	<rect x="566.438" y="336.175" fill="#94B5C4" width="2.723" height="2.227"/>
	<rect x="566.438" y="340.011" fill="#94B5C4" width="2.723" height="2.227"/>
	<rect x="566.438" y="272.319" fill="#94B5C4" width="2.723" height="2.227"/>
	<rect x="566.438" y="276.898" fill="#94B5C4" width="2.723" height="2.228"/>
	<rect x="566.438" y="280.858" fill="#94B5C4" width="2.723" height="2.228"/>
	<rect x="566.438" y="284.817" fill="#94B5C4" width="2.723" height="2.229"/>
	<rect x="570.398" y="284.817" fill="#94B5C4" width="2.723" height="2.229"/>
	<rect x="566.438" y="316.993" fill="#94B5C4" width="2.723" height="2.227"/>
	<rect x="561.86" y="316.993" fill="#94B5C4" width="2.723" height="2.227"/>
	<rect x="557.899" y="316.993" fill="#94B5C4" width="2.723" height="2.227"/>
	<rect x="570.274" y="327.265" fill="#94B5C4" width="2.723" height="2.228"/>
	<rect x="555.673" y="340.011" fill="#94B5C4" width="2.723" height="2.227"/>
	<rect x="553.815" y="306.599" fill="#94B5C4" width="2.724" height="2.227"/>
	<rect x="548.866" y="306.351" fill="#94B5C4" width="2.723" height="2.227"/>
	<rect x="537.604" y="306.351" fill="#94B5C4" width="2.723" height="2.227"/>
	<rect x="543.916" y="327.265" fill="#94B5C4" width="2.724" height="2.228"/>
	<rect x="550.475" y="340.011" fill="#94B5C4" width="2.723" height="2.227"/>
	<rect x="552.331" y="284.817" fill="#94B5C4" width="2.723" height="2.229"/>
	<rect x="548.866" y="284.817" fill="#94B5C4" width="2.723" height="2.229"/>
	<polygon fill="#94B5C4" points="577.976,286.349 577.976,286.349 574.235,289.644 574.235,282.714 	"/>
	<polygon fill="#94B5C4" points="577.976,296.868 577.976,296.868 574.235,300.163 574.235,293.233 	"/>
	<polygon fill="#94B5C4" points="577.976,307.882 577.976,307.882 574.235,311.177 574.235,304.246 	"/>
	<polygon fill="#94B5C4" points="577.976,318.277 577.976,318.277 574.235,321.571 574.235,314.642 	"/>
	<polygon fill="#94B5C4" points="577.976,328.3 577.976,328.3 574.235,331.595 574.235,324.665 	"/>
	<polygon fill="#94B5C4" points="564.473,341.171 564.473,341.171 560.732,344.465 560.732,337.536 	"/>
	<polygon fill="#94B5C4" points="555.935,328.425 555.935,328.425 552.194,331.72 552.194,324.789 	"/>
	<polygon fill="#94B5C4" points="562.741,307.759 562.741,307.759 559,311.053 559,304.123 	"/>
	<polygon fill="#94B5C4" points="546.282,307.759 546.282,307.759 542.542,311.053 542.542,304.123 	"/>
	<polygon fill="#94B5C4" points="565.216,296.868 565.216,296.868 561.476,300.163 561.476,293.233 	"/>
	<polygon fill="#94B5C4" points="547.52,286.226 547.52,286.226 543.778,289.521 543.778,282.59 	"/>
	<polygon fill="#94B5C4" points="559.041,273.355 559.041,273.355 555.302,276.65 555.302,269.72 	"/>
</g>
<g>
	<g>
		<path fill="#FFFFFF" d="M650.532,261.932c0,1.1-0.698,2.567-1.553,3.261l-23.535,19.123c-0.854,0.694-1.552,0.361-1.552-0.738
			v-25.6c0-1.1,0.698-2.567,1.552-3.261l23.535-19.123c0.854-0.693,1.553-0.36,1.553,0.739V261.932z"/>
	</g>
	<g>
		<g>
			<path fill="#94B5C4" d="M630.584,266.621l0.248-8.426c-1.32,1.477-2.461,6.247-2.604,11.101c-0.063,2.09,0.07,3.872,0.344,5.186
				L630.584,266.621z"/>
			<path fill="#E8BA80" d="M631.121,265.657l2.295-1.757c-0.055-4.037-0.9-6.577-2.063-6.103L631.121,265.657z"/>
			<path fill="#E8BA80" d="M630.915,267.659l-2.033,7.948c0.413,1.14,0.993,1.58,1.657,1.074c1.391-1.061,2.641-5.896,2.853-10.916
				L630.915,267.659z"/>
		</g>
		<g>
			<path d="M636.233,265.852l-0.032,0.025l-0.117,3.896c-0.018,0.623-0.174,1.24-0.346,1.371"/>
			<path fill="#FFFFFF" d="M636.249,264.24c0.019-0.625-0.108-1.02-0.279-0.889l-0.696,0.53c-0.172,0.132-0.327,0.743-0.345,1.369
				l-0.05,1.638l1.322-1.012L636.249,264.24z"/>
			<path fill="#94B5C4" d="M636.084,269.773l0.117-3.896l-1.322,1.012l-0.115,3.896c-0.018,0.621,0.106,1.022,0.28,0.891
				l0.694-0.531C635.91,271.014,636.066,270.396,636.084,269.773z"/>
		</g>
		<g>
			<path fill="#FFFFFF" d="M638.17,256.756c0.018-0.627-0.107-1.027-0.281-0.895l-0.693,0.533c-0.173,0.131-0.328,0.746-0.349,1.369
				l-0.125,4.273l1.319-1.008L638.17,256.756z"/>
			<path fill="#94B5C4" d="M636.779,270.348l0.697-0.532c0.172-0.133,0.326-0.747,0.345-1.37l0.22-7.416l-1.319,1.008l-0.22,7.418
				C636.482,270.078,636.608,270.479,636.779,270.348z"/>
		</g>
		<g>
			<path fill="#FFFFFF" d="M640.012,249.571c0.019-0.627-0.108-1.024-0.279-0.894l-0.695,0.531
				c-0.172,0.133-0.328,0.748-0.346,1.372l-0.197,6.661l1.321-1.01L640.012,249.571z"/>
			<path fill="#94B5C4" d="M638.449,269.068l0.693-0.53c0.174-0.133,0.33-0.748,0.348-1.372l0.325-10.934l-1.321,1.01l-0.324,10.936
				C638.15,268.804,638.275,269.201,638.449,269.068z"/>
		</g>
		<g>
			<path fill="#E8BA80" d="M641.803,256.654c0.307-0.234,0.579-1.32,0.613-2.426c0.008-0.228,0.003-0.438-0.012-0.63l0.975-3.078
				c0.087,0.21,0.203,0.28,0.334,0.181c0.127-0.098,0.248-0.342,0.349-0.676l0.828,2.6c-0.06,0.344-0.101,0.726-0.113,1.109
				c-0.03,1.104,0.188,1.813,0.495,1.579c0.305-0.235,0.58-1.323,0.612-2.425c0.006-0.154,0.005-0.299,0.001-0.43l0.966-2.809
				c0.077,0.119,0.175,0.154,0.282,0.072c0.305-0.232,0.578-1.322,0.61-2.425c0.035-1.104-0.188-1.813-0.492-1.579
				c-0.306,0.232-0.581,1.323-0.613,2.427c-0.01,0.308,0.002,0.577,0.027,0.808l-0.905,2.631c-0.091-0.275-0.22-0.394-0.371-0.277
				c-0.084,0.066-0.167,0.2-0.243,0.379l-0.868-2.73c0.025-0.221,0.043-0.45,0.05-0.679c0.03-1.104-0.19-1.812-0.495-1.583
				c-0.305,0.236-0.58,1.326-0.614,2.431c-0.005,0.218,0,0.42,0.01,0.603l-0.978,3.089c-0.085-0.192-0.199-0.263-0.328-0.165
				c-0.304,0.232-0.58,1.32-0.612,2.425C641.275,256.184,641.498,256.887,641.803,256.654z M647.217,246.85
				c0.133-0.1,0.229,0.209,0.215,0.688c-0.014,0.479-0.134,0.954-0.267,1.052c-0.133,0.103-0.229-0.202-0.214-0.685
				C646.965,247.426,647.084,246.953,647.217,246.85z M645.57,253.125c-0.014,0.482-0.133,0.951-0.266,1.055
				c-0.133,0.102-0.229-0.207-0.215-0.686c0.016-0.48,0.134-0.952,0.268-1.056C645.488,252.336,645.586,252.645,645.57,253.125z
				 M643.799,247.828c0.133-0.102,2.861,1.61,2.848,2.093c-0.015,0.478-2.766-0.456-2.899-0.354
				c-0.134,0.105-0.229-0.203-0.214-0.684C643.547,248.402,643.666,247.929,643.799,247.828z M641.889,253.782
				c0.134-0.099,0.229,0.203,0.213,0.685c-0.012,0.478-0.131,0.953-0.266,1.054c-0.131,0.103-0.229-0.204-0.213-0.687
				C641.637,254.355,641.756,253.887,641.889,253.782z"/>
			<path fill="#E8BA80" d="M646.939,256.16c-0.247,0.186-0.475,0.938-0.57,1.813l-0.663,0.377c0.003-0.989-0.211-1.604-0.495-1.384
				c-0.168,0.129-0.326,0.513-0.439,1.013l-0.736-0.927c0.006-0.093,0.012-0.187,0.014-0.28c0.033-1.107-0.188-1.814-0.494-1.58
				c-0.289,0.223-0.553,1.211-0.606,2.255l-0.743,1.045c-0.082-0.482-0.242-0.724-0.439-0.575c-0.306,0.233-0.579,1.323-0.612,2.428
				c-0.032,1.102,0.19,1.811,0.493,1.578c0.305-0.232,0.576-1.307,0.612-2.402l0.72-1.012c0.075,0.559,0.247,0.85,0.457,0.688
				c0.168-0.127,0.324-0.511,0.438-1.012l0.738,0.928c-0.008,0.093-0.011,0.186-0.016,0.283c-0.032,1.104,0.189,1.811,0.495,1.576
				c0.213-0.162,0.411-0.744,0.522-1.451l0.719-0.412c0.043,0.79,0.236,1.248,0.49,1.051c0.306-0.231,0.58-1.321,0.613-2.424
				C647.469,256.633,647.246,255.924,646.939,256.16z M641.68,260.789c-0.132,0.103-0.228-0.205-0.213-0.688
				c0.014-0.478,0.133-0.949,0.265-1.052c0.136-0.102,0.229,0.205,0.216,0.688C641.934,260.215,641.814,260.688,641.68,260.789z
				 M643.469,258.066c-0.133,0.101-0.229-0.209-0.214-0.688c0.015-0.481,0.134-0.952,0.267-1.055s0.229,0.208,0.216,0.687
				C643.722,257.492,643.604,257.966,643.469,258.066z M645.124,259.84c-0.134,0.102-0.229-0.209-0.216-0.687
				c0.015-0.479,0.133-0.952,0.269-1.057c0.133-0.101,0.228,0.208,0.214,0.688C645.377,259.264,645.258,259.739,645.124,259.84z
				 M646.857,259.027c-0.135,0.105-0.23-0.205-0.217-0.686c0.014-0.479,0.135-0.951,0.268-1.054
				c0.131-0.101,0.229,0.206,0.215,0.688C647.107,258.455,646.986,258.926,646.857,259.027z"/>
		</g>
	</g>
</g>
<g>
	<path fill="#C69D88" d="M621.168,317.938c-0.292-4.708-4.2-12.751-5.533-14.917c-2.937-4.772-0.803,14.149-0.803,14.149
		L621.168,317.938z"/>
	<g>
		<path fill="#DDE8EE" d="M651.74,334.443c0.245-0.448,0.242-0.545,0.242-0.545s-0.334,0.144-0.751,0.313
			c1.327-1.261,2.334-2.332,2.805-3.07c0.443-0.185,1.003-0.431,1.703-0.768c1.909-0.921,1.989-1.489,2.152-2.067
			c0.18-0.622-0.376-0.97-0.791-1.348c-0.409-0.376-0.865-2.012-0.865-2.012s0.371-1.552,0.037-2.361
			c-0.061-0.146-0.132-0.26-0.205-0.359c0.043,0.003,0.076,0.008,0.127,0.012c1.216,0.112,2.142-0.098,2.461-0.184
			c0.32-0.088,0.285-0.01,0.454-0.214c0.202-0.24,0.065-0.416,0.398-0.594c0.284-0.152,0.127-0.022,0.501-0.348
			c0.362-0.315-0.006-0.078,0.422-0.339c0.479-0.296,0.567-0.281,1.243-0.402c0.677-0.118,1.005-0.021,1.151-0.401
			c0.051-0.133-0.068-0.447-0.068-0.447l-0.216-0.457l0.4-0.594c0,0,0.471-0.532,0.483-0.955c0.859-0.511,1.723-1.682,0.234-2.075
			c-1.49-0.397-2.576-0.535-3.866-0.426c-1.294,0.108-0.863,0.181-2.771-0.049c-1.909-0.232-3.165-0.399-4.839-0.073
			c-1.675,0.325-2.095,0.16-3.215,0.629c-1.121,0.468-3.129,0.972-3.129,0.972s-2.293-0.25-3.91,0.159
			c-3.302,0.832-5.399,2.535-5.399,2.535s0.432,0.404,0.246,0.796c-0.184,0.392,0.32,0.57,0.32,0.57
			c1.023-0.06,0.96,0.07,1.316,0.368c0.357,0.295,0.223,0.319,1.43,0.196c1.208-0.123,2.659-0.44,2.659-0.44l1.403-1.267
			l0.544-1.085c0,0,0.874-0.604,0.725,0.172c-0.147,0.773-0.368,1.114-0.64,1.49c-0.221,0.307-0.316,0.418,0.252,0.6
			c-0.219,0.152-0.536,0.327-0.991,0.486c-3.29,0.179-5.546,1.338-6.929,2.173c-1.583,0.953-3.807,2.903-4.754,3.895
			c-0.95,0.992-1.399,2.702-1.221,3.017c0.014,0.022,0.037,0.039,0.057,0.058c-0.187,0.235-0.372,0.437-0.536,0.565
			c-0.739,0.581-1.831,0.819-3.788,2.108c-1.959,1.289-6.117,3.688-7.169,5.131c-1.056,1.444-2.145,2.176-3.624,3.831
			c-1.479,1.654-2.697,3.353-2.697,3.353s-1.182,0.433-0.795,0.499c0.078,0.014,0.262,0.136,0.509,0.32
			c-0.239,0.134-0.493,0.3-0.661,0.5c-0.418,0.494-8.437,9.953-10.499,8.519c-0.02-0.002-0.035-0.004-0.035-0.004
			s-1.071,0.099-0.665,0.686c0.155,0.223,0.485,0.47,0.915,0.696c-0.28,0.382-3.984,12.348,3.576,13.409
			c1.354,0.19-1.605,3.537,0.986,0.174c0.183-0.236,3.219-10.369,4-11c0.854,0.042,5.42-5.155,5.667-5.333
			c3.848-0.789,5.618-4.522,6.562-5.201c0.54-0.298,0.895-0.537,3.406-0.347c3.728,0.284,2.899,0.071,4.84,0.403
			c1.938,0.33,2.809,0.266,2.809,0.266s7.661-5.818,13.637-10.933C650.619,340.17,651.483,335.753,651.74,334.443z"/>
		<g>
			<g>
				<path fill="#C69D88" d="M608.341,339.813c-0.21-0.829,1.573,3.571-3.37,8.427l-1.365-1.686l2.086-8.267L608.341,339.813z"/>
				<path fill="#231F20" d="M598.791,358.594c0,0-0.682,0.735,0.201,1.619c0.884,0.882,2.768,1.43,4.053,1.189
					c1.283-0.24,2.805-0.602,3.928-0.602c1.124,0,1.135-0.043,2.41,0.361c1.463,0.464,2.57,0.802,3.693,0.643
					c1.123-0.162,1.943-0.064,2.424-0.627c0.482-0.561,0.634-1.297-0.168-2.1c-0.803-0.803-1.374-0.645-1.695-0.563
					C613.316,358.594,598.791,358.594,598.791,358.594z"/>
				<path fill="#C69D88" d="M600.074,355.141c0,0-1.363,1.928-1.283,3.131c0.08,1.204,0.4,1.928,1.604,1.846
					c1.204-0.079,4.655,0.563,6.099,0.402c1.445-0.16,2.328-0.24,3.371,0s1.686,0.481,2.809,0.481c1.124,0,2.034-0.29,2.248-0.401
					c0.746-0.387,0.803-0.963,0.08-1.846s-1.444-1.123-1.444-1.123l-0.829-0.611c0,0-1.43-0.756-2.815-0.882
					c-1.13-0.103-1.491,0.128-2.375-0.272c-0.883-0.402-3.05-1.686-3.05-1.686L600.074,355.141z"/>
				<path fill="#231F20" d="M606.094,355.062c0,0-0.964,3.692-1.524,4.093c-0.562,0.401,0.642,0.563,0.642,0.563l1.283-2.969
					c0,0,0.643,0.08,1.605,0.48c0.964,0.402,1.766,0.402,2.168,0.241c0.4-0.159,1.043,0.161,1.043,0.161l1.766,0.803l-0.883-1.123
					l-2.006-0.724c0,0-0.805-0.241-1.605-0.321c-0.804-0.08-1.365-0.563-1.365-0.563S606.816,354.902,606.094,355.062z"/>
				<path fill="#231F20" d="M600.074,369.347c0,0-0.723,1.045-0.48,1.604c0.24,0.564,1.123,1.045,2.246,1.045
					s1.686,0.561,2.97,0.802c1.284,0.242,4.413,1.204,5.778,1.445s0.883,0.882,3.049,0.241c2.168-0.643,2.168-0.724,2.81-1.283
					c0.644-0.564,1.284-1.686,1.284-1.686c-0.641-0.724-1.846-0.803-1.846-0.803l-15.649-1.043"/>
				<path fill="#C69D88" d="M600.074,338.209l-1.283,1.042c0,0-0.402,0.804-0.242,1.766c0.162,0.964,0.402,3.29,0.482,3.532
					c0.08,0.24,0.24,1.203,0,2.326c-0.24,1.125-0.963,4.576-0.803,5.459s0.643,4.574,1.203,5.697
					c0.563,1.123,1.125,3.531,1.204,4.816c0.081,1.283,0.161,1.766-0.16,2.729c-0.32,0.963-0.602,1.26-0.769,2.281
					c-0.13,0.791-0.113,1.893,0.127,2.052c0.24,0.161,0.321,1.042,1.604,1.123c1.284,0.081,1.847,0.403,2.81,0.804
					s4.895,1.925,5.777,1.846c0.883-0.08,2.489,0.723,3.772,0.32c1.284-0.4,2.247-1.123,2.648-1.685s2.007-0.963,0.161-1.525
					c-1.846-0.562-2.248-0.883-2.971-1.122c-0.721-0.242-5.617-2.248-5.617-2.248s-1.926-1.686-2.488-3.773
					c-0.561-2.086,0.16-14.365,0.16-15.408c0-1.044,0.563-9.549,0.563-9.549s-2.488,0.56-2.809,0.48
					C603.124,339.092,600.074,338.209,600.074,338.209z"/>
				<path fill="#231F20" d="M600.074,366.458l-0.201,0.481c0,0,2.529,2.006,4.937,3.372c0,0,0.08,0.08,0,0.64
					c-0.081,0.564-0.883,1.285-0.641,1.285c0.24,0,0.882-0.08,0.882-0.08s0.079-0.963,0.883-1.605
					c0.803-0.642,1.525-1.363,1.766-1.523c0.24-0.161,0.48,1.203,1.845,0.723c0,0-0.079,1.363,1.686,0.721
					c0,0-0.159,0.723,1.364,0.48l0.883-0.079c0,0-0.24-1.765-1.203-1.364c-0.963,0.401-0.481,0.081-0.481,0.081
					s0.321-0.723-1.044-0.481c-1.365,0.239-0.48,0.08-0.48,0.08s-0.803-1.125-1.525-0.883c-0.723,0.24-0.723,0.24-0.723,0.24
					l0.676-0.898l-0.516-0.145l-2.567,2.248c0,0-3.772-1.606-5.217-3.131L600.074,366.458z"/>
				<path fill="#798494" d="M596.063,303.938c0,0,1.082,3.733,1.082,4.936c0,1.205-0.602,1.928-0.842,4.696
					s-1.084,8.065-0.482,10.835c0.602,2.769,0.482,4.334,0.963,7.584c0.483,3.252,1.204,6.5,1.204,6.5s-0.48,1.084-0.12,1.084
					c0.361,0,5.178,3.73,6.501,3.73s2.528,0.244,3.612-0.961c1.083-1.203-0.361-2.046,2.768-2.648
					c3.129-0.602,2.287-0.724,4.094-0.724c1.806,0,2.408-0.36,2.408-0.36s0.453-29.452-1.604-36.102l-10.917,0.949L596.063,303.938z
					"/>
				<path fill="#C69D88" d="M622.296,315.888c0,0-0.673-1.544-1.147-1.702s-2.02-0.633-2.02-0.633l-1.543,0.752
					c-1.265-0.57-1.424-1.662-2.811-2.138c-0.83-0.316-2.404-4.247-2.494-4.71c-0.1-0.516-1.773-3.84-1.773-3.84l-5.057,3.252
					c0,0-1.686,1.924-1.686,2.046s3.492,3.892,3.492,3.892s3.193,3.194,3.795,3.555c0.604,0.361,1.527,1.43,2.851,1.109
					c1.325-0.32,2.97,0.238,2.97,0.238l1.228,1.346l1.979,0.118l1.306-0.712c0.447-0.402,0.991-0.933,1.028-1.623
					C623.407,316.204,622.296,315.888,622.296,315.888z"/>
				<path fill="#798494" d="M607.577,286.563c0,0,0.522-0.109,1.565,1.174c1.045,1.283,2.272,4.035,2.272,4.035
					s1.942,2.657,2.623,3.178c0.684,0.521,1.449,0.956,1.921,2.07c0.436,1.031,0.93,2.023,0.367,4.15
					c-0.562,2.127-1.002,2.809-1.043,3.091c-0.041,0.28,0,0.48-0.521,1.003c-0.522,0.521-1.244,1.324-1.404,1.564
					c-0.161,0.242-0.361,0.36-0.361,0.36l-1.967-2.647c0,0-0.121,2.006-2.047,3.051c-1.926,1.042-4.734,2.046-5.617,2.246
					c-0.883,0.201-0.4,0.4-0.683-0.161c-0.28-0.561-1.124-1.443-1.124-1.443s-1.484-0.321-2.488-0.321
					c-1.002,0-1.725,0.24-2.166-0.241c-0.441-0.482-1.766-3.53-2.006-5.497c-0.242-1.967-0.441-5.939-0.162-8.025
					c0.26-1.926,0.883-4.775,3.572-5.939S607.577,286.563,607.577,286.563z"/>
				<path fill="#C69D88" d="M609.465,276.651c0.4,0.724,0.561,1.767,0.561,1.767l0.271,1.128l0.611,0.718
					c0,0,0.397,0.501,0.488,0.742c0.258,0.692-0.086,0.621-0.488,1.022c-0.4,0.401-0.48,0.401-0.561,1.045
					c-0.072,0.569-0.02,0.06,0.01,0.701c0.029,0.663,0.023,0.396-0.045,0.737c-0.081,0.4,0.195,0.662,0.275,1.129
					c0.067,0.396,0.02,0.254-0.141,0.498c-0.16,0.24-0.663,0.866-1.705,1.027c-1.043,0.16-0.803,0.08-1.364,0.561
					c-0.562,0.482-0.08,0.723-0.08,0.723l0.642,0.963c0,0,1.124,1.284,2.248,2.648c1.123,1.364,1.363,1.686,1.686,3.29
					c0.32,1.606,0.561,2.167-0.081,2.971c-0.642,0.802-2.168,0.562-2.89,0.321c-0.723-0.24-3.371-1.445-5.778-2.328
					c-2.407-0.884-3.05-0.08-4.976,0.24c-1.927,0.321-2.353-0.764-2.568-1.605c-0.382-1.494,0-2.166,0.322-3.129
					c0.319-0.963,0.961-1.845,1.765-2.969c0.802-1.125,0.481-2.329,0.481-2.329s1.083-5.015,3.01-6.54
					c1.926-1.525,4.695-3.211,6.059-3.572C608.582,276.051,609.465,276.651,609.465,276.651z"/>
				<path fill="#603017" d="M595.018,280.022c0,0-1.998,0.242-2.836,1.407c-1.714,2.382-1.658,5.896-1.658,5.896
					s0.724,0.563,0.964,1.285c0.241,0.721,0.802,0.881,0.802,0.881c0.724-0.4,0.803-0.16,1.365,0.242
					c0.562,0.4,0.48,0.48,1.283-0.08c0.804-0.563,1.605-1.525,1.605-1.525l-0.16-2.568l-0.642-2.007c0,0,0.079-1.284,0.722,0.081
					c0.643,1.363,0.804,2.006,0.963,2.729c0.16,0.723,0.16,0.883,1.285,1.043c1.123,0.16,2.647-0.08,2.647-0.08
					s1.559-0.07,1.233-1.099c-0.18-0.571-0.029-2.191,0.532-2.593c0.562-0.402,1.62-0.832,1.862-0.191
					c0.24,0.643,0.705-0.466,0.705-0.466s-0.008-0.595,0.348-1.054c0.707-0.918,0.932-1.836,0.947-2.078
					c0.064-1.039-0.25-0.865,0.713-1.588s1.604-0.482,1.766-1.606c0.159-1.122-0.322-3.37-1.846-3.61
					c-1.525-0.24-2.489-0.16-3.371,0.4c-0.883,0.563-0.482,0.563-2.168,0.724c-1.685,0.159-2.809,0.24-3.771,1.282
					c-0.963,1.043-1.445,0.883-1.846,2.008C596.063,278.579,595.018,280.022,595.018,280.022z"/>
			</g>
		</g>
	</g>
</g>
<g>
	<path fill="#DDE8EE" d="M698.313,321.354c0,0,0,0,0.637,0.612c0.638,0.608,0.099,1.505,0.099,1.505s0,0,2.645-0.795
		c1.378-0.415,2.589-1.053,3.434-1.568c0.282-0.053,0.586-0.109,0.893-0.166c-0.348,0.258-0.647,0.488-0.804,0.643
		c-0.476,0.467-0.114,0.399-0.114,0.399l0.169-0.01l1.202-0.056c-4.192,3.459-11.028,9.057-12.231,9.95
		c-1.709,1.269-1.709,1.269-1.709,1.269l2.502,0.054c-1.168,1.005-2.131,1.851-2.592,2.319c-1.473,1.506-2.344,2.77-2.344,2.77
		c0.918,0.564,3.22,2.674,2.343,3.607c-0.521,0.555-2.186,1.922-3.894,3.25c-1.206-0.059-10.019,7.063-9.076,6.938
		c0.941-0.126,2.419-0.525,3.631-0.688c1.211-0.16,2.39-0.498,2.39-0.498s0.483-0.111,0.751-0.35s0.673-0.689,0.673-0.689
		s-0.065,0.049-0.192,0.124c0.164-0.136,0.397-0.341,0.733-0.648c0.644-0.589,1.595,0.55,2.255,0.145
		c2.75-1.625,14.365-10.315,14.302-10.52c1.515-0.116,2.513-0.224,2.513-0.224c0.166-0.184,0.475-0.54,0.861-0.992
		c0.143-0.012,0.248-0.018,0.313-0.021c1.189-0.035,2.738-0.179,2.967-0.381c0.197-0.176,3.266-3.803,4.322-4.871
		c0.865-0.877,3.363-3.572,4.833-5.082c0.868,0.16,1.769,0.236,2.614,0.144c0,0,2.269-0.706,3.797-1.874
		c0.598-0.395,1.215-0.851,1.756-1.334c1.226-1.09,1.611-1.816,2.488-2.503s4.614-3.253,5.085-3.863
		c0.472-0.611-1.147-1.177-1.147-1.177l-0.006,0.004c0.344-0.726,0.338-0.631-0.581-1.32c-0.313-0.234-0.617-0.565-0.888-0.904
		c0.817-0.907,3.41-2.563,3.924-3.395c0.488-0.79-0.432-1.625-1.035-2.06c0.336-0.253,0.676-0.579,0.949-1.052
		c0.461-0.793,0.057-1.006-0.331-1.363c-0.387-0.355-1.674-0.93-3.144-1.086c-1.471-0.154-3.982,0.361-5.074,0.634
		s-3.241,1.614-3.538,1.878c-0.297,0.266-0.668,0.596-0.668,0.596l-0.26,0.23l-1.052,0.854l-0.126,0.303c0,0-0.44,0.18-0.815,0.451
		c-0.316,0.229-0.219,0.292-0.447,0.623c-0.311,0.002-0.599,0.02-0.784,0.07c-0.616,0.166-1.371,0.393-2.356,1.143
		c-0.984,0.751-4.031,2.957-4.637,3.305s-1.313,0.724-2.1,1.49c-0.293,0.283-0.506,0.55-0.693,0.805l-2.93,0.957
		c0,0,0.029,0.006,0.068,0.02c-0.939,0.252-1.728,0.457-2.027,0.533l-0.722-1.097l-1.962,1.211l0.165-0.311
		c0,0-0.044-0.183-0.349-0.263c-0.305-0.078-0.719,0.194-0.914,0.305c-0.195,0.111-0.292,0.355-0.292,0.355l-0.454-0.072
		c0,0-0.285,0.03-0.621,0.074c-0.337,0.045-0.225,0.487-0.225,0.487s-0.359,0.099-0.648,0.163c-0.289,0.068-0.329,0.389-0.329,0.389
		s0,0-0.173,0.059c-0.172,0.059-0.479,0.269-0.479,0.269s0.003,0.042,0.021,0.105L698.313,321.354z M731.632,311.669l-0.066,0.277
		c-0.012-0.086-0.025-0.17-0.039-0.245c0.004-0.002,0.007-0.003,0.012-0.005C731.569,311.688,731.601,311.678,731.632,311.669z
		 M732.272,312.851c0.289-0.358,0.119-0.475-0.018-0.711c-0.189-0.328-0.39-0.459-0.506-0.509c1.271-0.416,2.119-0.927,2.675-1.374
		c-0.147,0.313-0.286,0.67-0.392,1.065C733.945,311.644,733.114,312.276,732.272,312.851z M701.856,320.151l-0.347,0.118
		l0.456-0.386C701.966,319.884,701.917,320.013,701.856,320.151z"/>
	<g>
		<path fill="#1A1918" d="M688.948,343.624c0,0,0.619,0.536,1.049,1.259c0.432,0.723,0.281,2.043-0.303,2.225
			c-0.879,0.273-1.189,0.41-2.438,0.117c-0.888-0.209-1.238-0.111-2.103-0.276c-0.865-0.165-1.637-0.157-2.748-0.136
			c-1.109,0.021-1.169,0.555-2.426,0.625c-1.255,0.07-3.766-0.32-3.766-0.32s-0.808-0.551-1.075-0.994
			c-0.131-0.215-0.214-0.516-0.118-0.77c0.248-0.65,0.756-0.588,1.58-0.818c0.826-0.23,2.453-0.592,3.534-1.07
			c0.829-0.369-0.227,1.74,0.817,2.002c2.709,0.684,5.117-0.107,6.496-0.459C689.194,344.564,689.278,344.455,688.948,343.624z"/>
		<path fill="#1A1918" d="M679.132,354.377l-1.152-1.613c0,0-0.941-0.77-1.114-0.883c-0.173-0.116-2.228,1.189-2.804,1.65
			c-0.414,0.332-1.572,1.482-1.859,1.654c-0.289,0.174-0.576,0.809,0.172,1.555c0.749,0.75,5.029-0.061,6.008-0.176
			c0.979-0.115,1.656-0.689,2.362-1.152c0.754-0.493,1.872-1.383,2.88-1.957c0.98-0.559,1.787-1.283,1.787-1.283
			s0.416-0.402,0.416-0.92c0-0.52-0.101-1.484-0.101-1.484s-0.144,1.383-1.411,2.248
			C683.399,352.639,680.11,354.549,679.132,354.377z"/>
		<path fill="#3B4142" d="M687.738,261.884c0,0,2.449-0.35,4.023,1.05s2.035,1.903,2.102,5.426c0.064,3.343,0.926,4.109,0.393,4.287
			c-0.787,0.263-3.412,0.656-3.412,0.656s-0.83-0.569-1.18-2.318c-0.352-1.751,0.086-3.566,0.26-4.966
			c0.258-2.058-1.252-2.456-2.1-2.625C686.951,263.218,687.738,261.884,687.738,261.884z"/>
		<path fill="#FFFFFF" d="M675.128,271.055c0,0,13.764-9.707,22.514,4.168c0,0,1.5,0.625,0.625,2.75s-7.875,0.75-7.875,0.75
			S671.878,274.805,675.128,271.055z"/>
		<path fill="#D3AA76" d="M689.942,324.701c0,0,1.584,5.473,0.576,8.354c-0.435,1.238-1.098,4.588-1.873,6.768
			c-0.768,2.159,0.808,4.435,0.808,4.795c0,0.359-0.851,1.541-2.722,1.613c-1.872,0.072-4.022-0.072-5.398-0.091
			c-3.547-0.052-2.597-1.491,0.14-3.507c7.188-5.297,2.968-16.736,2.839-15.959L689.942,324.701z"/>
		<path fill="#E8BA80" d="M679.175,355.162c0,0-3.889-2.281-2.736-3.072c1.152-0.793,4.847-3.576,5.199-5.212
			c0.529-2.448,0.816-17.231,0.287-21.997c-0.486-4.37,5.794-0.871,5.794-0.871l1.441,0.439c0,0,0,1.547,0.216,2.053
			c0.216,0.503,1.422,3.379-0.874,11.447c-0.604,2.124-2.896,5.357-2.823,10.684c0.027,2.018-0.072,2.018-0.072,2.018
			s-0.072,0.936-0.576,1.223c-0.504,0.289-0.215,0.434-1.367,1.08C682.511,353.602,679.175,355.162,679.175,355.162z"/>
		<path fill="#7498AB" d="M692.903,324.394c0,0-11.855,5.017-17.041,1.775c0,0-0.551-2.663-0.768-5.903
			c-0.216-3.24,0.432-14.977-0.096-19.633c-0.425-3.749,7.173,1.975,9.766,1.975c2.592,0,6.479,9.072,6.479,9.072
			S692.711,322.473,692.903,324.394z"/>
		<path fill="#FFFFFF" d="M674.267,271.598c0,0,3.875-4.875,11.5-2.75s-2.875,5.875-2.875,5.875l-6.75,0.375L674.267,271.598z"/>
		<path fill="#7498AB" d="M675.047,288.344c-0.216-5.399-1.3-9.498,0.644-11.875c0.852-1.041,1.658-1.512,2.295-1.713
			c0.019-0.071,0.039-0.142,0.061-0.211c0.361-1.08,0.721-3.885,0.721-3.885s3.515-2.254,3.875-1.75
			c0.36,0.505,4.91-2.718,4.91-2.718s0.359,0.024,1.223,0.984c0.55,0.61,0.912,0.769,0.864,2.496
			c1.317,0.123,0.958,4.419,0.958,4.419l-9.938,29.811c0,0-3.888-0.648-6.265-3.023
			C674.395,300.879,675.263,293.746,675.047,288.344z"/>
		<path fill="#E8BA80" d="M673.462,291.055c-0.215,0-7.333,0-7.333,0l-0.833-3.667c0,0,3.666-0.999,5.833-1.833L673.462,291.055z"/>
		<path fill="#FFFFFF" d="M678.517,270.473c0,0-0.567-0.932-1-0.5c-0.432,0.431-3.106,0.595-3.25,2.25
			c-0.297,3.425-0.589,6.025-0.324,5.059c0.216-0.793-0.504,1.655-0.432,3.311c0.072,1.658,0.576,2.953,0.576,4.321
			s-1.008,24.983-1.297,27.793c-0.287,2.808-0.287,2.808-0.287,2.808l2.668-0.307c0,0,0.068-10.71,0.068-12.222
			s0.096-11.063,0.24-13.585c0.144-2.52-0.352-4.561-0.137-6.145c0.217-1.584,4.936-11.664,4.864-12.311
			C680.135,270.297,678.517,270.473,678.517,270.473z"/>
		<path fill="#FFFFFF" d="M689.542,269.096c0,0,2.761,3.146,4.561,4.441c1.801,1.296,1.584,1.008,2.16,2.808
			s-0.72,5.399-1.008,7.488s-1.955,11.817-1.883,14.05s0.828,10.331,0.972,12.635c0.144,2.305,1.151,10.035,1.151,10.42
			c0,0.442-1.398,0.98-2.555,1.244c-0.604,0.138-4.506,1.955-9.905,2.1c-3.024,0.08-4.423-0.094-4.458-0.48
			c-0.109-1.188-0.098-2.383,0.189-5.408c0.289-3.023,0.032-32.4,0.896-34.707c0.864-2.303,2.266-6.584,4.359-8.205
			C690.071,270.801,689.542,269.096,689.542,269.096z"/>
		<path fill="#E8BA80" d="M689.847,296.139c0,0-4.321-5.914-4.773-6.082c-0.453-0.169-0.334-0.072-0.76-0.679
			c-0.427-0.606-0.609-0.624-0.919-0.809s-0.657-0.276-0.913-0.409c-1.148-0.602-1.178-1.215-1.895-1.824
			c-0.279-0.24,0.023-0.801,0.023-0.801s-0.301-0.113-0.563-0.52c-0.26-0.406-0.045-0.43,0.004-0.652
			c0.048-0.222,0.066-0.73,0.583-0.641s0.811,0.131,0.811,0.131l-1.437-0.572c0,0-0.879-0.232-0.684-0.65
			c0.176-0.381,0.664-0.215,1.467-0.156c0.803,0.061,1.816,0.061,2.657,0.479c0.841,0.416,1.024,0.434,1.556,0.666
			c0.531,0.234,0.88,0.45,0.861,0.959c-0.018,0.51,0.134,1.252,0.188,1.754c0.053,0.5,0.707,1.15,1.191,1.684
			c1.23,1.354,5.156,4.23,5.156,4.23S692.601,295.484,689.847,296.139z"/>
		<path fill="#FFFFFF" d="M696.181,276.068c0,0,2.268,0.863,2.483,2.16c0.216,1.295-0.648,7.019-0.756,8.53
			c-0.108,1.512,0.323,3.023,0.323,5.399c0,2.377-0.539,4.535-0.972,5.508c-0.432,0.973-1.776,2.355-3.829,1.6
			c-2.052-0.756-2.975-2.139-3.945-3.111c-0.973-0.973,2.482-2.051,2.807-4.86c0.324-2.806,0.756-7.665,0.756-7.665L696.181,276.068
			z"/>
		<path fill="#FFFFFF" d="M662.629,288.888l-1.5-4.166l4.667,0.833c0,0,1.733,3.668,2,6.333c0.166,1.667,0.666,2.834,0.666,2.834
			s-1.834,1.281-3.166,0.166c-0.461-0.387,2.377,1.369-1.167-0.333L662.629,288.888z"/>
		<path fill="#FFFFFF" d="M693.743,291.465l-3.816-2.232l-2.951,5.545l0.143,2.447c0,0,6.337,3.456,9.145,2.232
			c0,0,1.872-2.232,1.729-5.328C697.847,291.033,693.743,291.465,693.743,291.465z"/>
		<polyline fill="#7498AB" points="688.343,270.873 685.175,275.77 684.167,274.33 		"/>
		<g>
			<path fill="#E8BA80" d="M681.92,267.702c0.393,0.394,0.787,0.262,0.656,1.313c-0.133,1.05-1.391,4.258-1.391,4.258
				s6.136-2.104,6.771-5.046l0.307-8.531C688.264,259.695,681.525,267.308,681.92,267.702z"/>
		</g>
		<path fill="#E8BA80" d="M662.995,287.473l0.536,0.9l0.875,1.332c0,0,0.087,0.611-0.305,0.676
			c-0.392,0.068-0.656-0.086-0.809-0.379c-0.152-0.296-0.635-0.988-0.635-0.988l0.308,1.297c0,0,1.164,0.177,1.402,0.373
			c0.238,0.197,0.354,0.354,0.324,0.658c-0.032,0.308-0.432,0.34-0.432,0.34s0.533,0.044,0.537,0.341
			c0.004,0.298-0.212,0.466-0.212,0.466s0.308,0.179,0.162,0.33c-0.146,0.15-0.782,0.281-0.782,0.281s-0.865-0.029-1.365-0.232
			c-0.5-0.204-0.952-0.643-0.952-0.643s-0.051-0.471,0.017-0.637c0.067-0.168,0.067-0.168,0.067-0.168s-0.479-0.544-0.316-0.773
			c0.162-0.229,0.342-0.537,0.342-0.537s-0.813-0.68-0.571-0.891c0.241-0.213,0.457-0.382,0.457-0.382l0.54-0.069
			c0,0-0.303-0.439-0.299-0.703c0.006-0.262-0.046-0.88,0.363-0.878C662.659,287.189,662.995,287.473,662.995,287.473z"/>
		<g>
			<path fill="#1A1918" d="M690.886,258.427c0,0,1.08,3.24-1.008,5.689c-2.088,2.447-0.072-4.609-0.072-4.609L690.886,258.427z"/>
			<path fill="#E8BA80" d="M678.981,258.931l-0.144,2.809c0,0-0.124,1.051-0.096,1.656c0.033,0.697,0.12,0.625,0.265,1.367
				c0.146,0.762,0.359,1.129,0.504,1.561c0.143,0.432,0.635,2.864,0.894,3.056c0.552,0.408,0.912,0.48,1.921,0.119
				c1.007-0.359,2.513-0.991,3.137-1.278c0.603-0.279,1.561-0.816,2.064-1.967c0.504-1.154,0.768-1.418,0.768-1.418h0.359
				c0,0,0.289,0.648,0.865-0.504c0.575-1.152,1.655-2.521,0.504-3.24c-1.152-0.721-3.672-2.881-3.672-2.881l-3.744-1.654
				L678.981,258.931z"/>
			<path fill="#1A1918" d="M690.526,261.163c0,0-1.608-0.24-1.896,0.336s-0.912,1.512-0.912,1.512s-0.072-0.768-0.359-1.127
				c-0.288-0.359-0.773-0.102-1.225-0.648c-0.336-0.408-0.312-0.145-0.527-1.297c-0.174-0.922-0.912-0.791-0.912-0.791l-1.801,0.576
				c0,0-1.008,0.359-2.16,0.504c-1.151,0.143-1.799-0.313-1.799-0.313v-0.553c0,0,0-0.721,0-1.295c0-0.576,0.647-3.6,1.439-4.32
				s2.543-1.754,4.201-1.749c2.226,0.007,3.791,0.669,4.582,1.317c0.793,0.648,1.441,1.008,1.873,2.664s0.215,2.52,0.072,3.24
				C690.958,259.938,690.526,261.163,690.526,261.163z"/>
		</g>
		<path fill="#FFFFFF" d="M674.962,294.389l0.667-2.5l-0.833-10l-7.167,4.167c0,0,1.237,1.704,1.333,2.666
			c0.096,0.959,0.617,2.658,0.666,3.667c0.048,1.009,4.834-0.501,4.834-0.501"/>
		<path fill="#FFFFFF" d="M675.962,272.555c0,0-3.606,7.948-4.303,13.058c-0.697,5.109,1.137,1.942,1.137,1.942l2.166-5.833
			L675.962,272.555z"/>
	</g>
</g>
<text transform="matrix(1 0 0 1 658.1543 378.8828)" fill="#231F20" font-family="'HelveticaNeue-Light'" font-size="7">Graphic by Sharon Henry</text>
<polygon opacity="0.2" fill="#94B5C4" points="524.634,304.018 524.634,300.14 514.636,300.14 514.636,296.878 520.755,296.878 
	520.755,286.877 506.88,286.877 506.88,296.878 513.001,296.878 513.001,300.14 502.796,300.14 502.796,304.018 496.673,304.018 
	496.673,314.019 510.55,314.019 510.55,304.018 504.431,304.018 504.431,301.771 523.001,301.771 523.001,304.018 516.675,304.018 
	516.675,314.019 530.556,314.019 530.556,304.018 "/>
<g>
	<g>
		
			<line fill="none" stroke="#231F20" stroke-width="0.5" stroke-miterlimit="10" stroke-dasharray="3,3" x1="663.566" y1="233.627" x2="663.566" y2="280.283"/>
		<g>
			<circle fill="#231F20" cx="663.566" cy="233.702" r="1.504"/>
		</g>
		<g>
			<circle fill="#231F20" cx="663.566" cy="280.208" r="1.504"/>
		</g>
	</g>
</g>
<g opacity="0.2">
	<path fill="#94B5C4" d="M492.838,295.349c-3.715,0-6.952-0.736-8.669-1.829l7.142,9.184v3.843h2.84v-3.843l6.953-8.944
		C499.308,294.718,496.276,295.349,492.838,295.349z"/>
	<ellipse fill="#94B5C4" cx="492.84" cy="290.956" rx="9.991" ry="3.623"/>
	<rect x="486.347" y="289.621" fill="#FFFFFF" width="2.029" height="2.708"/>
	<rect x="489.638" y="288.13" fill="#FFFFFF" width="2.028" height="2.705"/>
	<rect x="493.581" y="288.45" fill="#FFFFFF" width="2.029" height="2.707"/>
	<rect x="497.123" y="289.519" fill="#FFFFFF" width="2.027" height="2.705"/>
	<rect x="486.347" y="285.671" fill="#94B5C4" width="2.029" height="2.704"/>
	<rect x="489.847" y="283.456" fill="#94B5C4" width="2.029" height="2.705"/>
	<rect x="493.581" y="283.839" fill="#94B5C4" width="2.029" height="2.705"/>
	<rect x="492.153" y="280.218" fill="#94B5C4" width="2.029" height="2.705"/>
	<rect x="497.123" y="285.565" fill="#94B5C4" width="2.027" height="2.707"/>
</g>
<g opacity="0.2">
	<polygon fill="#94B5C4" points="512.214,325.698 510.321,322.419 512.214,319.14 516.001,319.14 517.894,322.419 516.001,325.698 	
		"/>
	<polygon fill="#94B5C4" points="506.034,329.478 504.142,326.198 506.034,322.919 509.821,322.919 511.714,326.198 
		509.821,329.478 	"/>
	<polygon fill="#94B5C4" points="499.735,325.938 497.841,322.659 499.735,319.38 503.521,319.38 505.413,322.659 503.521,325.938 	
		"/>
	<polygon fill="#94B5C4" points="518.454,329.508 516.562,326.229 518.454,322.949 522.241,322.949 524.134,326.229 
		522.241,329.508 	"/>
	<polygon fill="#94B5C4" points="524.636,333.378 522.741,330.099 524.636,326.819 528.421,326.819 530.313,330.099 
		528.421,333.378 	"/>
	<polygon fill="#94B5C4" points="524.636,325.728 522.741,322.448 524.636,319.169 528.421,319.169 530.313,322.448 
		528.421,325.728 	"/>
</g>
<polygon fill="none" points="437.3,322.171 246.458,322.171 246.458,251.503 436.299,251.503 441.304,290.057 "/>
<text transform="matrix(1 0 0 1 246.4546 258.2446)"><tspan x="0" y="0" fill="#231F20" font-family="'MyriadPro-Bold'" font-size="9.5">Precision medicine</tspan><tspan x="0" y="12" fill="#231F20" font-family="'MyriadPro-Regular'" font-size="9.5">Predictive analytics are used to identify how </tspan><tspan x="0" y="23" fill="#231F20" font-family="'MyriadPro-Regular'" font-size="9.5">well a patient will respond to treatment based </tspan><tspan x="0" y="34" fill="#231F20" font-family="'MyriadPro-Regular'" font-size="9.5">on ean individuals specific medical condition </tspan><tspan x="0" y="45" fill="#231F20" font-family="'MyriadPro-Regular'" font-size="9.5">and preferences, rather than using the one-size-</tspan><tspan x="0" y="56" fill="#231F20" font-family="'MyriadPro-Regular'" font-size="9.5">fits-all practice for prescribing medications.</tspan></text>
<rect x="244.783" y="328.647" fill="none" width="185.497" height="46.334"/>
<text transform="matrix(1 0 0 1 244.7798 335.3906)"><tspan x="0" y="0" fill="#231F20" font-family="'MyriadPro-Bold'" font-size="9.5">Telemedicine</tspan><tspan x="0" y="12" fill="#231F20" font-family="'MyriadPro-Regular'" font-size="9.5">If a patient is taking too many opioids or </tspan><tspan x="0" y="23" fill="#231F20" font-family="'MyriadPro-Regular'" font-size="9.5">taking medication incorrectly, a nurse </tspan><tspan x="0" y="34" fill="#231F20" font-family="'MyriadPro-Regular'" font-size="9.5">practitioner can check in with the patient.</tspan></text>
<rect x="465.15" y="185.726" fill="none" width="265.12" height="49.989"/>
<text transform="matrix(1 0 0 1 465.1504 192.4707)"><tspan x="0" y="0" fill="#231F20" font-family="'MyriadPro-Bold'" font-size="9.5">FUTURE PATIENT</tspan><tspan x="0" y="12" fill="#231F20" font-family="'MyriadPro-Regular'" font-size="9.5">Physician is equipped to deliver a more patient-centric prescription </tspan><tspan x="0" y="23" fill="#231F20" font-family="'MyriadPro-Regular'" font-size="9.5">that maximizes the medications effectiveness while lessening side </tspan><tspan x="0" y="34" fill="#231F20" font-family="'MyriadPro-Regular'" font-size="9.5">effects and over-prescribing that could lead to opioid addiction.</tspan></text>
<text transform="matrix(1 0 0 1 240.1318 191.875)" fill="#231F20" font-family="'MyriadPro-Bold'" font-size="9.5">HOW HEALTH CARE IS TRANSFORMED</text>
</svg>
